AnekMalayalam-Medium.ufo
<glyph name="exclam" format="2">
  <advance width="474"/>
  <unicode hex="0021"/>
  <outline>
    <contour>
      <point x="342" y="1278" type="line"/>
      <point x="132" y="1278" type="line"/>
      <point x="155" y="402" type="line"/>
      <point x="319" y="402" type="line"/>
    </contour>
    <contour>
      <point x="237" y="-21" type="curve" smooth="yes"/>
      <point x="316" y="-21"/>
      <point x="354" y="24"/>
      <point x="354" y="102" type="curve" smooth="yes"/>
      <point x="354" y="112" type="line" smooth="yes"/>
      <point x="354" y="189"/>
      <point x="316" y="234"/>
      <point x="237" y="234" type="curve" smooth="yes"/>
      <point x="157" y="234"/>
      <point x="120" y="189"/>
      <point x="120" y="112" type="curve" smooth="yes"/>
      <point x="120" y="102" type="line" smooth="yes"/>
      <point x="120" y="24"/>
      <point x="157" y="-21"/>
    </contour>
  </outline>
</glyph>
<glyph name="quotesingle" format="2">
  <advance width="373"/>
  <unicode hex="0027"/>
  <outline>
    <contour>
      <point x="283" y="1324" type="line"/>
      <point x="90" y="1324" type="line"/>
      <point x="109" y="831" type="line"/>
      <point x="263" y="831" type="line"/>
    </contour>
  </outline>
</glyph>
<glyph name="zero" format="2">
  <advance width="1151"/>
  <unicode hex="0030"/>
  <outline>
    <contour>
      <point x="575" y="-26" type="curve" smooth="yes"/>
      <point x="890" y="-26"/>
      <point x="1051" y="152"/>
      <point x="1051" y="482" type="curve"/>
      <point x="1051" y="796" type="line"/>
      <point x="1051" y="1125"/>
      <point x="890" y="1304"/>
      <point x="575" y="1304" type="curve" smooth="yes"/>
      <point x="260" y="1304"/>
      <point x="100" y="1125"/>
      <point x="100" y="796" type="curve"/>
      <point x="100" y="482" type="line"/>
      <point x="100" y="152"/>
      <point x="261" y="-26"/>
    </contour>
    <contour>
      <point x="575" y="141" type="curve" smooth="yes"/>
      <point x="391" y="141"/>
      <point x="304" y="258"/>
      <point x="304" y="473" type="curve" smooth="yes"/>
      <point x="304" y="804" type="line" smooth="yes"/>
      <point x="304" y="1020"/>
      <point x="390" y="1137"/>
      <point x="575" y="1137" type="curve" smooth="yes"/>
      <point x="760" y="1137"/>
      <point x="847" y="1020"/>
      <point x="847" y="804" type="curve" smooth="yes"/>
      <point x="847" y="473" type="line" smooth="yes"/>
      <point x="847" y="258"/>
      <point x="760" y="141"/>
    </contour>
  </outline>
</glyph>
<glyph name="eight" format="2">
  <advance width="1122"/>
  <unicode hex="0038"/>
  <outline>
    <contour>
      <point x="560" y="-27" type="curve" smooth="yes"/>
      <point x="909" y="-27"/>
      <point x="1037" y="122"/>
      <point x="1037" y="328" type="curve" smooth="yes"/>
      <point x="1037" y="354" type="line" smooth="yes"/>
      <point x="1037" y="529"/>
      <point x="947" y="628"/>
      <point x="795" y="666" type="curve"/>
      <point x="795" y="676" type="line"/>
      <point x="944" y="703"/>
      <point x="1024" y="800"/>
      <point x="1024" y="949" type="curve" smooth="yes"/>
      <point x="1024" y="974" type="line" smooth="yes"/>
      <point x="1024" y="1177"/>
      <point x="881" y="1304"/>
      <point x="560" y="1304" type="curve" smooth="yes"/>
      <point x="242" y="1304"/>
      <point x="99" y="1177"/>
      <point x="99" y="974" type="curve" smooth="yes"/>
      <point x="99" y="949" type="line" smooth="yes"/>
      <point x="99" y="800"/>
      <point x="179" y="703"/>
      <point x="328" y="676" type="curve"/>
      <point x="328" y="666" type="line"/>
      <point x="177" y="629"/>
      <point x="86" y="530"/>
      <point x="86" y="354" type="curve" smooth="yes"/>
      <point x="86" y="328" type="line" smooth="yes"/>
      <point x="86" y="117"/>
      <point x="222" y="-27"/>
    </contour>
    <contour>
      <point x="563" y="140" type="curve" smooth="yes"/>
      <point x="372" y="140"/>
      <point x="289" y="226"/>
      <point x="289" y="348" type="curve" smooth="yes"/>
      <point x="289" y="371" type="line" smooth="yes"/>
      <point x="289" y="489"/>
      <point x="381" y="568"/>
      <point x="556" y="589" type="curve"/>
      <point x="738" y="569"/>
      <point x="834" y="491"/>
      <point x="834" y="371" type="curve" smooth="yes"/>
      <point x="834" y="348" type="line" smooth="yes"/>
      <point x="834" y="227"/>
      <point x="753" y="140"/>
    </contour>
    <contour>
      <point x="566" y="730" type="curve"/>
      <point x="409" y="739"/>
      <point x="298" y="806"/>
      <point x="298" y="937" type="curve" smooth="yes"/>
      <point x="298" y="952" type="line" smooth="yes"/>
      <point x="298" y="1065"/>
      <point x="378" y="1140"/>
      <point x="560" y="1140" type="curve" smooth="yes"/>
      <point x="745" y="1140"/>
      <point x="825" y="1065"/>
      <point x="825" y="952" type="curve" smooth="yes"/>
      <point x="825" y="937" type="line" smooth="yes"/>
      <point x="825" y="806"/>
      <point x="712" y="739"/>
    </contour>
  </outline>
</glyph>
<glyph name="question" format="2">
  <advance width="902"/>
  <unicode hex="003F"/>
  <outline>
    <contour>
      <point x="385" y="416" type="line" smooth="yes"/>
      <point x="674" y="478"/>
      <point x="821" y="594"/>
      <point x="821" y="857" type="curve" smooth="yes"/>
      <point x="821" y="936" type="line" smooth="yes"/>
      <point x="821" y="1171"/>
      <point x="694" y="1301"/>
      <point x="420" y="1301" type="curve" smooth="yes"/>
      <point x="263" y="1301"/>
      <point x="139" y="1256"/>
      <point x="68" y="1215" type="curve"/>
      <point x="46" y="1039" type="line"/>
      <point x="141" y="1089"/>
      <point x="261" y="1132"/>
      <point x="389" y="1132" type="curve" smooth="yes"/>
      <point x="559" y="1132"/>
      <point x="622" y="1056"/>
      <point x="622" y="919" type="curve" smooth="yes"/>
      <point x="622" y="854" type="line" smooth="yes"/>
      <point x="622" y="702"/>
      <point x="547" y="625"/>
      <point x="354" y="582" type="curve" smooth="yes"/>
      <point x="269" y="563" type="line"/>
      <point x="269" y="391" type="line"/>
    </contour>
    <contour>
      <point x="354" y="-21" type="curve" smooth="yes"/>
      <point x="433" y="-21"/>
      <point x="471" y="24"/>
      <point x="471" y="102" type="curve" smooth="yes"/>
      <point x="471" y="112" type="line" smooth="yes"/>
      <point x="471" y="189"/>
      <point x="433" y="234"/>
      <point x="354" y="234" type="curve" smooth="yes"/>
      <point x="274" y="234"/>
      <point x="237" y="189"/>
      <point x="237" y="112" type="curve" smooth="yes"/>
      <point x="237" y="102" type="line" smooth="yes"/>
      <point x="237" y="24"/>
      <point x="274" y="-21"/>
    </contour>
  </outline>
</glyph>
<glyph name="L" format="2">
  <advance width="979"/>
  <unicode hex="004C"/>
  <anchor x="526" y="0" name="bottom"/>
  <anchor x="463" y="646" name="center"/>
  <anchor x="243" y="1278" name="top"/>
  <anchor x="663" y="1278" name="topright"/>
  <outline>
    <contour>
      <point x="343" y="1278" type="line"/>
      <point x="142" y="1278" type="line"/>
      <point x="142" y="0" type="line"/>
      <point x="343" y="0" type="line"/>
    </contour>
    <contour>
      <point x="252" y="0" type="line"/>
      <point x="922" y="0" type="line"/>
      <point x="922" y="170" type="line"/>
      <point x="252" y="170" type="line"/>
    </contour>
  </outline>
</glyph>
<glyph name="P" format="2">
  <advance width="1134"/>
  <unicode hex="0050"/>
  <anchor x="565" y="0" name="bottom"/>
  <anchor x="565" y="1278" name="top"/>
  <outline>
    <contour>
      <point x="632" y="410" type="line" smooth="yes"/>
      <point x="925" y="410"/>
      <point x="1056" y="553"/>
      <point x="1056" y="796" type="curve" smooth="yes"/>
      <point x="1056" y="893" type="line" smooth="yes"/>
      <point x="1056" y="1135"/>
      <point x="926" y="1278"/>
      <point x="633" y="1278" type="curve" smooth="yes"/>
      <point x="273" y="1278" type="line"/>
      <point x="273" y="1113" type="line"/>
      <point x="629" y="1113" type="line" smooth="yes"/>
      <point x="787" y="1113"/>
      <point x="856" y="1033"/>
      <point x="856" y="888" type="curve" smooth="yes"/>
      <point x="856" y="801" type="line" smooth="yes"/>
      <point x="856" y="659"/>
      <point x="787" y="576"/>
      <point x="627" y="576" type="curve" smooth="yes"/>
      <point x="274" y="576" type="line"/>
      <point x="274" y="410" type="line"/>
    </contour>
    <contour>
      <point x="340" y="0" type="line"/>
      <point x="340" y="437" type="line"/>
      <point x="339" y="527" type="line"/>
      <point x="339" y="1278" type="line"/>
      <point x="142" y="1278" type="line"/>
      <point x="142" y="0" type="line"/>
    </contour>
  </outline>
</glyph>
<glyph name="a" format="2">
  <advance width="1002"/>
  <unicode hex="0061"/>
  <anchor x="494" y="0" name="bottom"/>
  <anchor x="932" y="0" name="ogonek"/>
  <anchor x="494" y="978" name="top"/>
  <outline>
    <contour>
      <point x="894" y="0" type="line"/>
      <point x="894" y="622" type="line" smooth="yes"/>
      <point x="894" y="852"/>
      <point x="788" y="1001"/>
      <point x="492" y="1001" type="curve" smooth="yes"/>
      <point x="330" y="1001"/>
      <point x="207" y="952"/>
      <point x="127" y="906" type="curve"/>
      <point x="109" y="742" type="line"/>
      <point x="203" y="792"/>
      <point x="321" y="838"/>
      <point x="459" y="838" type="curve" smooth="yes"/>
      <point x="628" y="838"/>
      <point x="701" y="769"/>
      <point x="701" y="619" type="curve"/>
      <point x="700" y="570" type="line"/>
      <point x="700" y="262" type="line"/>
      <point x="707" y="232" type="line"/>
      <point x="699" y="0" type="line"/>
    </contour>
    <contour>
      <point x="368" y="-22" type="curve" smooth="yes"/>
      <point x="578" y="-22"/>
      <point x="664" y="81"/>
      <point x="696" y="202" type="curve"/>
      <point x="732" y="202" type="line"/>
      <point x="705" y="333" type="line"/>
      <point x="679" y="227"/>
      <point x="587" y="141"/>
      <point x="432" y="141" type="curve" smooth="yes"/>
      <point x="319" y="141"/>
      <point x="264" y="191"/>
      <point x="264" y="280" type="curve" smooth="yes"/>
      <point x="264" y="294" type="line" smooth="yes"/>
      <point x="264" y="383"/>
      <point x="316" y="425"/>
      <point x="451" y="444" type="curve" smooth="yes"/>
      <point x="733" y="484" type="line"/>
      <point x="722" y="626" type="line"/>
      <point x="428" y="584" type="line" smooth="yes"/>
      <point x="180" y="549"/>
      <point x="69" y="469"/>
      <point x="69" y="283" type="curve" smooth="yes"/>
      <point x="69" y="253" type="line" smooth="yes"/>
      <point x="69" y="77"/>
      <point x="175" y="-22"/>
    </contour>
  </outline>
</glyph>
<glyph name="l" format="2">
  <advance width="452"/>
  <unicode hex="006C"/>
  <anchor x="227" y="0" name="bottom"/>
  <anchor x="227" y="657" name="center"/>
  <anchor x="227" y="1324" name="top"/>
  <anchor x="466" y="1324" name="topright"/>
  <outline>
    <contour>
      <point x="324" y="0" type="line"/>
      <point x="324" y="1324" type="line"/>
      <point x="128" y="1324" type="line"/>
      <point x="128" y="0" type="line"/>
    </contour>
  </outline>
</glyph>
<glyph name="bar" format="2">
  <advance width="494"/>
  <unicode hex="007C"/>
  <outline>
    <contour>
      <point x="330" y="1421" type="line"/>
      <point x="164" y="1421" type="line"/>
      <point x="164" y="-432" type="line"/>
      <point x="330" y="-432" type="line"/>
    </contour>
  </outline>
</glyph>
<glyph name="section" format="2">
  <advance width="953"/>
  <unicode hex="00A7"/>
  <outline>
    <contour>
      <point x="679" y="366" type="line"/>
      <point x="678" y="399" type="line"/>
      <point x="789" y="416"/>
      <point x="855" y="496"/>
      <point x="855" y="605" type="curve" smooth="yes"/>
      <point x="855" y="611" type="line" smooth="yes"/>
      <point x="855" y="772"/>
      <point x="765" y="829"/>
      <point x="520" y="887" type="curve" smooth="yes"/>
      <point x="337" y="930"/>
      <point x="288" y="961"/>
      <point x="288" y="1028" type="curve" smooth="yes"/>
      <point x="288" y="1038" type="line" smooth="yes"/>
      <point x="288" y="1103"/>
      <point x="339" y="1141"/>
      <point x="480" y="1141" type="curve" smooth="yes"/>
      <point x="618" y="1141"/>
      <point x="730" y="1104"/>
      <point x="819" y="1056" type="curve"/>
      <point x="801" y="1219" type="line"/>
      <point x="727" y="1262"/>
      <point x="613" y="1301"/>
      <point x="460" y="1301" type="curve" smooth="yes"/>
      <point x="217" y="1301"/>
      <point x="95" y="1212"/>
      <point x="95" y="1042" type="curve" smooth="yes"/>
      <point x="95" y="1031" type="line" smooth="yes"/>
      <point x="95" y="890"/>
      <point x="174" y="804"/>
      <point x="418" y="752" type="curve" smooth="yes"/>
      <point x="615" y="710"/>
      <point x="668" y="679"/>
      <point x="668" y="575" type="curve" smooth="yes"/>
      <point x="668" y="568" type="line" smooth="yes"/>
      <point x="668" y="504"/>
      <point x="629" y="446"/>
      <point x="552" y="422" type="curve"/>
    </contour>
    <contour>
      <point x="271" y="817" type="line"/>
      <point x="272" y="786" type="line"/>
      <point x="157" y="759"/>
      <point x="95" y="693"/>
      <point x="95" y="582" type="curve" smooth="yes"/>
      <point x="95" y="575" type="line" smooth="yes"/>
      <point x="95" y="437"/>
      <point x="181" y="365"/>
      <point x="418" y="304" type="curve" smooth="yes"/>
      <point x="610" y="255"/>
      <point x="662" y="228"/>
      <point x="662" y="154" type="curve" smooth="yes"/>
      <point x="662" y="144" type="line" smooth="yes"/>
      <point x="662" y="72"/>
      <point x="595" y="33"/>
      <point x="455" y="33" type="curve" smooth="yes"/>
      <point x="308" y="33"/>
      <point x="192" y="75"/>
      <point x="95" y="125" type="curve"/>
      <point x="113" y="-54" type="line"/>
      <point x="192" y="-93"/>
      <point x="309" y="-132"/>
      <point x="466" y="-132" type="curve" smooth="yes"/>
      <point x="725" y="-132"/>
      <point x="855" y="-39"/>
      <point x="855" y="139" type="curve" smooth="yes"/>
      <point x="855" y="155" type="line" smooth="yes"/>
      <point x="855" y="313"/>
      <point x="765" y="378"/>
      <point x="520" y="439" type="curve" smooth="yes"/>
      <point x="332" y="486"/>
      <point x="282" y="523"/>
      <point x="282" y="621" type="curve" smooth="yes"/>
      <point x="282" y="630" type="line"/>
      <point x="282" y="699"/>
      <point x="323" y="747"/>
      <point x="394" y="771" type="curve"/>
    </contour>
  </outline>
</glyph>
<glyph name="guillemetright" format="2">
  <advance width="999"/>
  <unicode hex="00BB"/>
  <outline>
    <contour>
      <point x="41" y="886" type="line"/>
      <point x="233" y="886" type="line"/>
      <point x="505" y="512" type="line"/>
      <point x="505" y="468" type="line"/>
      <point x="233" y="88" type="line"/>
      <point x="41" y="88" type="line"/>
      <point x="324" y="490" type="line"/>
    </contour>
    <contour>
      <point x="470" y="886" type="line"/>
      <point x="662" y="886" type="line"/>
      <point x="934" y="512" type="line"/>
      <point x="934" y="468" type="line"/>
      <point x="662" y="88" type="line"/>
      <point x="470" y="88" type="line"/>
      <point x="753" y="490" type="line"/>
    </contour>
  </outline>
</glyph>
<glyph name="ae" format="2">
  <advance width="1626"/>
  <unicode hex="00E6"/>
  <anchor x="814" y="0" name="bottom"/>
  <anchor x="814" y="978" name="top"/>
  <outline>
    <contour>
      <point x="1167" y="-23" type="curve" smooth="yes"/>
      <point x="1308" y="-23"/>
      <point x="1426" y="11"/>
      <point x="1514" y="63" type="curve"/>
      <point x="1532" y="230" type="line"/>
      <point x="1434" y="176"/>
      <point x="1325" y="142"/>
      <point x="1200" y="142" type="curve" smooth="yes"/>
      <point x="979" y="142"/>
      <point x="895" y="245"/>
      <point x="895" y="397" type="curve" smooth="yes"/>
      <point x="895" y="473" type="line"/>
      <point x="895" y="496" type="line"/>
      <point x="895" y="589" type="line" smooth="yes"/>
      <point x="895" y="748"/>
      <point x="971" y="845"/>
      <point x="1127" y="845" type="curve" smooth="yes"/>
      <point x="1283" y="845"/>
      <point x="1360" y="755"/>
      <point x="1360" y="593" type="curve" smooth="yes"/>
      <point x="1360" y="540"/>
      <point x="1359" y="480"/>
      <point x="1357" y="411" type="curve"/>
      <point x="1537" y="411" type="line"/>
      <point x="1544" y="454"/>
      <point x="1548" y="501"/>
      <point x="1548" y="547" type="curve" smooth="yes"/>
      <point x="1548" y="584" type="line" smooth="yes"/>
      <point x="1548" y="841"/>
      <point x="1414" y="1004"/>
      <point x="1150" y="1004" type="curve" smooth="yes"/>
      <point x="956" y="1004"/>
      <point x="838" y="914"/>
      <point x="797" y="783" type="curve"/>
      <point x="791" y="783" type="line"/>
      <point x="757" y="916"/>
      <point x="658" y="1001"/>
      <point x="472" y="1001" type="curve" smooth="yes"/>
      <point x="319" y="1001"/>
      <point x="203" y="952"/>
      <point x="127" y="906" type="curve"/>
      <point x="109" y="742" type="line"/>
      <point x="202" y="792"/>
      <point x="320" y="838"/>
      <point x="459" y="838" type="curve" smooth="yes"/>
      <point x="618" y="838"/>
      <point x="701" y="769"/>
      <point x="701" y="619" type="curve"/>
      <point x="700" y="528" type="line"/>
      <point x="699" y="445"/>
      <point x="701" y="375"/>
      <point x="706" y="300" type="curve"/>
      <point x="726" y="260" type="line"/>
      <point x="770" y="81"/>
      <point x="916" y="-23"/>
    </contour>
    <contour>
      <point x="378" y="-22" type="curve" smooth="yes"/>
      <point x="594" y="-22"/>
      <point x="693" y="78"/>
      <point x="737" y="206" type="curve"/>
      <point x="771" y="206" type="line"/>
      <point x="710" y="331" type="line"/>
      <point x="681" y="224"/>
      <point x="589" y="141"/>
      <point x="432" y="141" type="curve" smooth="yes"/>
      <point x="319" y="141"/>
      <point x="264" y="191"/>
      <point x="264" y="280" type="curve" smooth="yes"/>
      <point x="264" y="294" type="line" smooth="yes"/>
      <point x="264" y="383"/>
      <point x="316" y="425"/>
      <point x="451" y="444" type="curve" smooth="yes"/>
      <point x="733" y="484" type="line"/>
      <point x="722" y="626" type="line"/>
      <point x="428" y="584" type="line" smooth="yes"/>
      <point x="182" y="549"/>
      <point x="69" y="469"/>
      <point x="69" y="283" type="curve" smooth="yes"/>
      <point x="69" y="253" type="line" smooth="yes"/>
      <point x="69" y="80"/>
      <point x="174" y="-22"/>
    </contour>
    <contour>
      <point x="1497" y="411" type="line"/>
      <point x="1497" y="559" type="line"/>
      <point x="804" y="559" type="line"/>
      <point x="804" y="411" type="line"/>
    </contour>
  </outline>
</glyph>
<glyph name="combininganusvaraabovesign.mlm" format="2">
  <unicode hex="0D00"/>
  <outline>
    <contour>
      <point x="-882" y="1492" type="line" smooth="yes"/>
      <point x="-882" y="1344"/>
      <point x="-788" y="1263"/>
      <point x="-613" y="1263" type="curve" smooth="yes"/>
      <point x="-439" y="1263"/>
      <point x="-344" y="1344"/>
      <point x="-344" y="1492" type="curve" smooth="yes"/>
      <point x="-344" y="1498" type="line" smooth="yes"/>
      <point x="-344" y="1647"/>
      <point x="-439" y="1727"/>
      <point x="-613" y="1727" type="curve" smooth="yes"/>
      <point x="-788" y="1727"/>
      <point x="-882" y="1647"/>
      <point x="-882" y="1498" type="curve" smooth="yes"/>
    </contour>
    <contour>
      <point x="-493" y="1491" type="line" smooth="yes"/>
      <point x="-493" y="1421.54"/>
      <point x="-536.2" y="1384"/>
      <point x="-613" y="1384" type="curve" smooth="yes"/>
      <point x="-690.786" y="1384"/>
      <point x="-734" y="1421.54"/>
      <point x="-734" y="1491" type="curve" smooth="yes"/>
      <point x="-734" y="1498" type="line" smooth="yes"/>
      <point x="-734" y="1567.5"/>
      <point x="-690.786" y="1606"/>
      <point x="-613" y="1606" type="curve" smooth="yes"/>
      <point x="-536.2" y="1606"/>
      <point x="-493" y="1567.5"/>
      <point x="-493" y="1498" type="curve" smooth="yes"/>
    </contour>
  </outline>
</glyph>
<glyph name="Chandrabindu.mlm" format="2">
  <unicode hex="0D01"/>
  <outline>
    <contour>
      <point x="-559" y="1446" type="curve" smooth="yes"/>
      <point x="-715.316" y="1446"/>
      <point x="-792" y="1529"/>
      <point x="-792" y="1660" type="curve" smooth="yes"/>
      <point x="-792" y="1683" type="line"/>
      <point x="-945" y="1683" type="line"/>
      <point x="-945" y="1657" type="line" smooth="yes"/>
      <point x="-945" y="1442.79"/>
      <point x="-816.673" y="1312"/>
      <point x="-559" y="1312" type="curve" smooth="yes"/>
      <point x="-300.66" y="1312"/>
      <point x="-172" y="1441.76"/>
      <point x="-172" y="1657" type="curve" smooth="yes"/>
      <point x="-172" y="1683" type="line"/>
      <point x="-325" y="1683" type="line"/>
      <point x="-325" y="1660" type="line" smooth="yes"/>
      <point x="-325" y="1529"/>
      <point x="-402.672" y="1446"/>
    </contour>
    <contour>
      <point x="-659" y="1679" type="line" smooth="yes"/>
      <point x="-659" y="1610.84"/>
      <point x="-625.667" y="1571"/>
      <point x="-559" y="1571" type="curve" smooth="yes"/>
      <point x="-494.532" y="1571"/>
      <point x="-458" y="1610.84"/>
      <point x="-458" y="1679" type="curve" smooth="yes"/>
      <point x="-458" y="1687" type="line" smooth="yes"/>
      <point x="-458" y="1758.3"/>
      <point x="-494.532" y="1795"/>
      <point x="-559" y="1795" type="curve" smooth="yes"/>
      <point x="-625.667" y="1795"/>
      <point x="-659" y="1758.3"/>
      <point x="-659" y="1687" type="curve" smooth="yes"/>
    </contour>
  </outline>
</glyph>
<glyph name="Anuswara.mlm" format="2">
  <advance width="943"/>
  <unicode hex="0D02"/>
  <outline>
    <contour>
      <point x="663" y="418" type="curve" smooth="yes"/>
      <point x="663" y="347" type="line" smooth="yes"/>
      <point x="663" y="206.707"/>
      <point x="597" y="134"/>
      <point x="472" y="134" type="curve" smooth="yes"/>
      <point x="347" y="134"/>
      <point x="280" y="206.707"/>
      <point x="280" y="347" type="curve" smooth="yes"/>
      <point x="280" y="418" type="line" smooth="yes"/>
      <point x="280" y="557.269"/>
      <point x="347" y="631"/>
      <point x="472" y="631" type="curve" smooth="yes"/>
      <point x="597" y="631"/>
      <point x="663" y="557.269"/>
    </contour>
    <contour>
      <point x="97" y="419" type="curve" smooth="yes"/>
      <point x="97" y="346" type="line" smooth="yes"/>
      <point x="97" y="102.73"/>
      <point x="226" y="-26"/>
      <point x="472" y="-26" type="curve" smooth="yes"/>
      <point x="718" y="-26"/>
      <point x="846" y="102.73"/>
      <point x="846" y="346" type="curve" smooth="yes"/>
      <point x="846" y="419" type="line" smooth="yes"/>
      <point x="846" y="661.265"/>
      <point x="718" y="790"/>
      <point x="472" y="790" type="curve" smooth="yes"/>
      <point x="226" y="790"/>
      <point x="97" y="661.265"/>
    </contour>
  </outline>
</glyph>
<glyph name="Visarga.mlm" format="2">
  <advance width="757"/>
  <unicode hex="0D03"/>
  <outline>
    <contour>
      <point x="509" y="267" type="curve" smooth="yes"/>
      <point x="509" y="248" type="line" smooth="yes"/>
      <point x="509" y="164.048"/>
      <point x="465" y="119"/>
      <point x="379" y="119" type="curve" smooth="yes"/>
      <point x="294" y="119"/>
      <point x="248" y="164.048"/>
      <point x="248" y="248" type="curve" smooth="yes"/>
      <point x="248" y="267" type="line" smooth="yes"/>
      <point x="248" y="350.952"/>
      <point x="294" y="396"/>
      <point x="379" y="396" type="curve" smooth="yes"/>
      <point x="465" y="396"/>
      <point x="509" y="350.952"/>
    </contour>
    <contour>
      <point x="76" y="269" type="curve" smooth="yes"/>
      <point x="76" y="246" type="line" smooth="yes"/>
      <point x="76" y="70.0595"/>
      <point x="179" y="-26"/>
      <point x="379" y="-26" type="curve" smooth="yes"/>
      <point x="579" y="-26"/>
      <point x="681" y="70.0595"/>
      <point x="681" y="246" type="curve" smooth="yes"/>
      <point x="681" y="269" type="line" smooth="yes"/>
      <point x="681" y="443.937"/>
      <point x="579" y="540"/>
      <point x="379" y="540" type="curve" smooth="yes"/>
      <point x="179" y="540"/>
      <point x="76" y="443.937"/>
    </contour>
    <contour>
      <point x="509" y="920" type="curve" smooth="yes"/>
      <point x="509" y="904" type="line" smooth="yes"/>
      <point x="509" y="822.065"/>
      <point x="465" y="777"/>
      <point x="379" y="777" type="curve" smooth="yes"/>
      <point x="294" y="777"/>
      <point x="248" y="822.065"/>
      <point x="248" y="904" type="curve" smooth="yes"/>
      <point x="248" y="920" type="line" smooth="yes"/>
      <point x="248" y="1003.97"/>
      <point x="294" y="1048"/>
      <point x="379" y="1048" type="curve" smooth="yes"/>
      <point x="465" y="1048"/>
      <point x="509" y="1003.97"/>
    </contour>
    <contour>
      <point x="76" y="922" type="curve" smooth="yes"/>
      <point x="76" y="902" type="line" smooth="yes"/>
      <point x="76" y="727.056"/>
      <point x="179" y="632"/>
      <point x="379" y="632" type="curve" smooth="yes"/>
      <point x="579" y="632"/>
      <point x="681" y="727.056"/>
      <point x="681" y="902" type="curve" smooth="yes"/>
      <point x="681" y="922" type="line" smooth="yes"/>
      <point x="681" y="1096.94"/>
      <point x="579" y="1192"/>
      <point x="379" y="1192" type="curve" smooth="yes"/>
      <point x="179" y="1192"/>
      <point x="76" y="1096.94"/>
    </contour>
  </outline>
</glyph>
<glyph name="vowelA.mlm" format="2">
  <advance width="2896"/>
  <unicode hex="0D05"/>
  <outline>
    <contour>
      <point x="1628" y="5" type="line"/>
      <point x="1815" y="5" type="line"/>
      <point x="1815" y="666" type="line"/>
      <point x="1628" y="642" type="line"/>
    </contour>
    <contour>
      <point x="1719" y="899" type="line"/>
      <point x="1682" y="1082"/>
      <point x="1533" y="1188"/>
      <point x="1269" y="1188" type="curve" smooth="yes"/>
      <point x="1144" y="1188"/>
      <point x="1043" y="1157"/>
      <point x="976" y="1114" type="curve"/>
      <point x="1070" y="1017" type="line"/>
      <point x="1124" y="1034"/>
      <point x="1189" y="1040"/>
      <point x="1259" y="1040" type="curve" smooth="yes"/>
      <point x="1504" y="1040"/>
      <point x="1628" y="918"/>
      <point x="1628" y="678" type="curve" smooth="yes"/>
      <point x="1628" y="561" type="line"/>
      <point x="1723" y="561" type="line"/>
    </contour>
    <contour>
      <point x="303" y="588" type="line" smooth="yes"/>
      <point x="303" y="888.355"/>
      <point x="448.38" y="1036"/>
      <point x="743" y="1036" type="curve" smooth="yes"/>
      <point x="804" y="1036"/>
      <point x="862" y="1029"/>
      <point x="919" y="1015" type="curve"/>
      <point x="934" y="1011"/>
      <point x="963" y="1001"/>
      <point x="974" y="997" type="curve"/>
      <point x="1101" y="964"/>
      <point x="1179" y="901"/>
      <point x="1179" y="789" type="curve" smooth="yes"/>
      <point x="1179" y="779" type="line" smooth="yes"/>
      <point x="1179" y="686"/>
      <point x="1127" y="641"/>
      <point x="1021" y="636" type="curve" smooth="yes"/>
      <point x="952" y="633" type="line"/>
      <point x="952" y="480" type="line"/>
      <point x="1032" y="477" type="line" smooth="yes"/>
      <point x="1146" y="473"/>
      <point x="1198" y="423"/>
      <point x="1198" y="320" type="curve" smooth="yes"/>
      <point x="1198" y="309" type="line" smooth="yes"/>
      <point x="1198" y="196"/>
      <point x="1137" y="131"/>
      <point x="1007" y="131" type="curve" smooth="yes"/>
      <point x="856" y="131"/>
      <point x="782" y="218.231"/>
      <point x="782" y="401" type="curve" smooth="yes"/>
      <point x="782" y="576" type="line" smooth="yes"/>
      <point x="782" y="786.975"/>
      <point x="857" y="934.973"/>
      <point x="1015" y="999" type="curve"/>
      <point x="870" y="1057" type="line"/>
      <point x="688" y="984.009"/>
      <point x="598" y="817.171"/>
      <point x="598" y="569" type="curve" smooth="yes"/>
      <point x="598" y="395" type="line" smooth="yes"/>
      <point x="598" y="116.366"/>
      <point x="734" y="-25"/>
      <point x="1007" y="-25" type="curve" smooth="yes"/>
      <point x="1258" y="-25"/>
      <point x="1384" y="87"/>
      <point x="1384" y="296" type="curve" smooth="yes"/>
      <point x="1384" y="308" type="line" smooth="yes"/>
      <point x="1384" y="455"/>
      <point x="1315" y="541"/>
      <point x="1165" y="558" type="curve"/>
      <point x="1165" y="563" type="line"/>
      <point x="1300" y="582"/>
      <point x="1364" y="653"/>
      <point x="1364" y="774" type="curve" smooth="yes"/>
      <point x="1364" y="784" type="line" smooth="yes"/>
      <point x="1364" y="912"/>
      <point x="1281" y="1010"/>
      <point x="1127" y="1056" type="curve"/>
      <point x="1065" y="1104" type="line"/>
      <point x="988" y="1152"/>
      <point x="869" y="1188"/>
      <point x="720" y="1188" type="curve" smooth="yes"/>
      <point x="315.604" y="1188"/>
      <point x="115" y="988.723"/>
      <point x="115" y="587" type="curve" smooth="yes"/>
      <point x="115" y="449" type="line" smooth="yes"/>
      <point x="115" y="267.968"/>
      <point x="153" y="107.392"/>
      <point x="228" y="0" type="curve"/>
      <point x="423" y="0" type="line"/>
      <point x="346" y="119.671"/>
      <point x="303" y="269.005"/>
      <point x="303" y="448" type="curve" smooth="yes"/>
    </contour>
    <contour>
      <point x="2210" y="1189" type="curve" smooth="yes"/>
      <point x="1929" y="1189"/>
      <point x="1766" y="1086"/>
      <point x="1724" y="899" type="curve"/>
      <point x="1690" y="899" type="line"/>
      <point x="1698" y="578" type="line"/>
      <point x="1815" y="562" type="line"/>
      <point x="1815" y="684" type="line" smooth="yes"/>
      <point x="1815" y="909"/>
      <point x="1944" y="1026"/>
      <point x="2199" y="1026" type="curve" smooth="yes"/>
      <point x="2469" y="1026"/>
      <point x="2604" y="876.063"/>
      <point x="2604" y="639" type="curve"/>
      <point x="2604" y="639" type="line"/>
      <point x="2582" y="639" type="line"/>
      <point x="2601" y="573" type="line"/>
      <point x="2601" y="366" type="line" smooth="yes"/>
      <point x="2601" y="202.552"/>
      <point x="2543" y="129"/>
      <point x="2425" y="129" type="curve" smooth="yes"/>
      <point x="2309" y="129"/>
      <point x="2246" y="198.709"/>
      <point x="2246" y="333" type="curve" smooth="yes"/>
      <point x="2246" y="428" type="line" smooth="yes"/>
      <point x="2246" y="566.358"/>
      <point x="2305" y="634"/>
      <point x="2423" y="634" type="curve" smooth="yes"/>
      <point x="2501" y="634"/>
      <point x="2562" y="602.125"/>
      <point x="2605" y="549" type="curve"/>
      <point x="2608" y="609" type="line"/>
      <point x="2575" y="720.121"/>
      <point x="2490" y="787"/>
      <point x="2354" y="787" type="curve" smooth="yes"/>
      <point x="2167" y="787"/>
      <point x="2063" y="667.29"/>
      <point x="2063" y="437" type="curve" smooth="yes"/>
      <point x="2063" y="332" type="line" smooth="yes"/>
      <point x="2063" y="96.7232"/>
      <point x="2189" y="-27"/>
      <point x="2424" y="-27" type="curve" smooth="yes"/>
      <point x="2662" y="-27"/>
      <point x="2784" y="106.667"/>
      <point x="2784" y="374" type="curve" smooth="yes"/>
      <point x="2784" y="607" type="line" smooth="yes"/>
      <point x="2784" y="990.293"/>
      <point x="2592" y="1189"/>
    </contour>
  </outline>
</glyph>
<glyph name="vowelU.mlm" format="2">
  <advance width="1405"/>
  <unicode hex="0D09"/>
  <outline>
    <contour>
      <point x="697" y="1193" type="curve" smooth="yes"/>
      <point x="308" y="1193"/>
      <point x="110" y="1013.25"/>
      <point x="110" y="679" type="curve" smooth="yes"/>
      <point x="110" y="571" type="line" smooth="yes"/>
      <point x="110" y="341.706"/>
      <point x="222" y="223"/>
      <point x="452" y="223" type="curve" smooth="yes"/>
      <point x="679" y="223"/>
      <point x="785" y="331.777"/>
      <point x="785" y="529" type="curve" smooth="yes"/>
      <point x="785" y="575" type="line" smooth="yes"/>
      <point x="785" y="767.236"/>
      <point x="696" y="872"/>
      <point x="523" y="872" type="curve" smooth="yes"/>
      <point x="385" y="872"/>
      <point x="297" y="804"/>
      <point x="273" y="675" type="curve"/>
      <point x="283" y="617" type="line"/>
      <point x="312" y="687"/>
      <point x="375" y="729"/>
      <point x="459" y="729" type="curve" smooth="yes"/>
      <point x="556" y="729"/>
      <point x="609" y="670.241"/>
      <point x="609" y="562" type="curve" smooth="yes"/>
      <point x="609" y="532" type="line" smooth="yes"/>
      <point x="609" y="424.77"/>
      <point x="555" y="366"/>
      <point x="453" y="366" type="curve" smooth="yes"/>
      <point x="342" y="366"/>
      <point x="285" y="429.658"/>
      <point x="285" y="558" type="curve" smooth="yes"/>
      <point x="285" y="650" type="line"/>
      <point x="297" y="729" type="line"/>
      <point x="282" y="729" type="line"/>
      <point x="282" y="729" type="line"/>
      <point x="282" y="897"/>
      <point x="414" y="1035"/>
      <point x="694" y="1035" type="curve" smooth="yes"/>
      <point x="965" y="1035"/>
      <point x="1101" y="894.683"/>
      <point x="1101" y="612" type="curve" smooth="yes"/>
      <point x="1101" y="535" type="line" smooth="yes"/>
      <point x="1101" y="274.28"/>
      <point x="985" y="147"/>
      <point x="761" y="147" type="curve" smooth="yes"/>
      <point x="402" y="147" type="line" smooth="yes"/>
      <point x="206" y="147"/>
      <point x="107" y="60"/>
      <point x="107" y="-106" type="curve" smooth="yes"/>
      <point x="107" y="-273"/>
      <point x="206" y="-361"/>
      <point x="402" y="-361" type="curve" smooth="yes"/>
      <point x="1255" y="-361" type="line"/>
      <point x="1280" y="-213" type="line"/>
      <point x="420" y="-213" type="line" smooth="yes"/>
      <point x="337" y="-213"/>
      <point x="294" y="-178"/>
      <point x="294" y="-106" type="curve" smooth="yes"/>
      <point x="294" y="-35"/>
      <point x="337" y="0"/>
      <point x="420" y="0" type="curve" smooth="yes"/>
      <point x="800" y="0" type="line" smooth="yes"/>
      <point x="1120" y="0"/>
      <point x="1289" y="179.372"/>
      <point x="1289" y="532" type="curve" smooth="yes"/>
      <point x="1289" y="614" type="line" smooth="yes"/>
      <point x="1289" y="998.643"/>
      <point x="1091" y="1193"/>
    </contour>
  </outline>
</glyph>
<glyph name="vowelE.mlm" format="2">
  <advance width="2575"/>
  <unicode hex="0D0F"/>
  <outline>
    <contour>
      <point x="499" y="781" type="curve" smooth="yes"/>
      <point x="236" y="781"/>
      <point x="103" y="643.948"/>
      <point x="103" y="371" type="curve" smooth="yes"/>
      <point x="103" y="304" type="line" smooth="yes"/>
      <point x="103" y="178.943"/>
      <point x="127" y="72.1873"/>
      <point x="176" y="0" type="curve"/>
      <point x="365" y="0" type="line"/>
      <point x="318" y="78.2876"/>
      <point x="289" y="178.943"/>
      <point x="289" y="304" type="curve" smooth="yes"/>
      <point x="289" y="368" type="line" smooth="yes"/>
      <point x="289" y="535.975"/>
      <point x="358" y="618"/>
      <point x="498" y="618" type="curve" smooth="yes"/>
      <point x="640" y="618"/>
      <point x="710" y="535.975"/>
      <point x="710" y="368" type="curve" smooth="yes"/>
      <point x="710" y="304" type="line" smooth="yes"/>
      <point x="710" y="184.969"/>
      <point x="680" y="87.3021"/>
      <point x="628" y="11" type="curve"/>
      <point x="628" y="0" type="line"/>
      <point x="771" y="0" type="line"/>
      <point x="852.693" y="77.2338"/>
      <point x="896" y="178.857"/>
      <point x="896" y="313" type="curve" smooth="yes"/>
      <point x="896" y="386" type="line" smooth="yes"/>
      <point x="896" y="648.946"/>
      <point x="764" y="781"/>
    </contour>
    <contour>
      <point x="1841" y="1192" type="curve" smooth="yes"/>
      <point x="1391" y="1192"/>
      <point x="1167" y="956.941"/>
      <point x="1167" y="495" type="curve" smooth="yes"/>
      <point x="1167" y="95" type="line" smooth="yes"/>
      <point x="1167" y="-242"/>
      <point x="1297" y="-409"/>
      <point x="1560" y="-409" type="curve" smooth="yes"/>
      <point x="1791" y="-409"/>
      <point x="1905" y="-281.658"/>
      <point x="1905" y="-28" type="curve" smooth="yes"/>
      <point x="1905" y="910" type="line"/>
      <point x="1726" y="910" type="line"/>
      <point x="1715" y="113" type="line"/>
      <point x="1720" y="43" type="line"/>
      <point x="1720" y="-39" type="line" smooth="yes"/>
      <point x="1720" y="-188.777"/>
      <point x="1670" y="-260"/>
      <point x="1560" y="-260" type="curve" smooth="yes"/>
      <point x="1415" y="-260"/>
      <point x="1363" y="-143"/>
      <point x="1358" y="39" type="curve"/>
      <point x="1356" y="68" type="line"/>
      <point x="1356" y="83" type="line" smooth="yes"/>
      <point x="1356" y="100"/>
      <point x="1355" y="120"/>
      <point x="1355" y="137" type="curve" smooth="yes"/>
      <point x="1355" y="493" type="line" smooth="yes"/>
      <point x="1355" y="854.125"/>
      <point x="1513" y="1028"/>
      <point x="1841" y="1028" type="curve" smooth="yes"/>
      <point x="2132" y="1028"/>
      <point x="2273" y="898.333"/>
      <point x="2273" y="639" type="curve" smooth="yes"/>
      <point x="2273" y="610" type="line" smooth="yes"/>
      <point x="2273" y="460.712"/>
      <point x="2214.98" y="389.42"/>
      <point x="2093" y="383" type="curve" smooth="yes"/>
      <point x="2036" y="380" type="line"/>
      <point x="2036" y="228" type="line"/>
      <point x="2095" y="224" type="line" smooth="yes"/>
      <point x="2230" y="214.847"/>
      <point x="2292" y="148.246"/>
      <point x="2292" y="8" type="curve" smooth="yes"/>
      <point x="2292" y="-18" type="line" smooth="yes"/>
      <point x="2292" y="-166.372"/>
      <point x="2228" y="-238"/>
      <point x="2094" y="-238" type="curve" smooth="yes"/>
      <point x="2064" y="-238"/>
      <point x="2031" y="-236"/>
      <point x="1996" y="-229" type="curve"/>
      <point x="2022" y="-377" type="line"/>
      <point x="2062" y="-386"/>
      <point x="2106" y="-389"/>
      <point x="2145" y="-389" type="curve" smooth="yes"/>
      <point x="2367" y="-389"/>
      <point x="2480" y="-267.276"/>
      <point x="2480" y="-36" type="curve" smooth="yes"/>
      <point x="2480" y="-9" type="line" smooth="yes"/>
      <point x="2480" y="176.98"/>
      <point x="2402" y="282.674"/>
      <point x="2242" y="303" type="curve"/>
      <point x="2242" y="308" type="line"/>
      <point x="2391" y="335.446"/>
      <point x="2461" y="434.046"/>
      <point x="2461" y="616" type="curve" smooth="yes"/>
      <point x="2461" y="645" type="line" smooth="yes"/>
      <point x="2461" y="993.183"/>
      <point x="2255" y="1192"/>
    </contour>
    <contour>
      <point x="801" y="148" type="line"/>
      <point x="638" y="0" type="line"/>
      <point x="1271" y="0" type="line"/>
      <point x="1311" y="2" type="line"/>
      <point x="1781" y="2" type="line"/>
      <point x="1789" y="148" type="line"/>
    </contour>
  </outline>
</glyph>
<glyph name="vowelshortO.mlm" format="2">
  <advance width="1514"/>
  <unicode hex="0D12"/>
  <outline>
    <contour>
      <point x="1078" y="-22" type="curve" smooth="yes"/>
      <point x="1303" y="-22"/>
      <point x="1414" y="78.678"/>
      <point x="1414" y="278" type="curve" smooth="yes"/>
      <point x="1414" y="291" type="line" smooth="yes"/>
      <point x="1414" y="446.942"/>
      <point x="1337" y="535.615"/>
      <point x="1177" y="556" type="curve"/>
      <point x="1177" y="561" type="line"/>
      <point x="1320" y="583.361"/>
      <point x="1389" y="666.705"/>
      <point x="1389" y="809" type="curve" smooth="yes"/>
      <point x="1389" y="815" type="line" smooth="yes"/>
      <point x="1389" y="1060.61"/>
      <point x="1191" y="1192"/>
      <point x="807" y="1192" type="curve" smooth="yes"/>
      <point x="344" y="1192"/>
      <point x="111" y="971.543"/>
      <point x="111" y="564" type="curve" smooth="yes"/>
      <point x="111" y="373" type="line" smooth="yes"/>
      <point x="111" y="105.658"/>
      <point x="235" y="-27"/>
      <point x="473" y="-27" type="curve" smooth="yes"/>
      <point x="705" y="-27"/>
      <point x="824" y="93.7098"/>
      <point x="824" y="326" type="curve" smooth="yes"/>
      <point x="824" y="432" type="line" smooth="yes"/>
      <point x="824" y="650.359"/>
      <point x="728" y="757"/>
      <point x="555" y="757" type="curve" smooth="yes"/>
      <point x="403" y="757"/>
      <point x="309" y="681"/>
      <point x="282" y="542" type="curve"/>
      <point x="292" y="484" type="line"/>
      <point x="325.357" y="560.17"/>
      <point x="389.038" y="601"/>
      <point x="479" y="601" type="curve" smooth="yes"/>
      <point x="585" y="601"/>
      <point x="641" y="537.287"/>
      <point x="641" y="415" type="curve" smooth="yes"/>
      <point x="641" y="327" type="line" smooth="yes"/>
      <point x="641" y="193.632"/>
      <point x="583" y="129"/>
      <point x="473" y="129" type="curve" smooth="yes"/>
      <point x="354" y="129"/>
      <point x="294" y="198.504"/>
      <point x="294" y="360" type="curve" smooth="yes"/>
      <point x="294" y="513" type="line"/>
      <point x="308" y="589" type="line"/>
      <point x="288" y="589" type="line"/>
      <point x="288" y="591" type="line"/>
      <point x="288" y="870"/>
      <point x="459" y="1029"/>
      <point x="807" y="1029" type="curve" smooth="yes"/>
      <point x="1070" y="1029"/>
      <point x="1201" y="950.649"/>
      <point x="1201" y="797" type="curve" smooth="yes"/>
      <point x="1201" y="793" type="line" smooth="yes"/>
      <point x="1201" y="688.298"/>
      <point x="1147.01" y="641.872"/>
      <point x="1036" y="638" type="curve" smooth="yes"/>
      <point x="950" y="635" type="line"/>
      <point x="950" y="480" type="line"/>
      <point x="1039" y="477" type="line" smooth="yes"/>
      <point x="1166.99" y="472.686"/>
      <point x="1225" y="422.323"/>
      <point x="1225" y="314" type="curve" smooth="yes"/>
      <point x="1225" y="304" type="line" smooth="yes"/>
      <point x="1225" y="190.687"/>
      <point x="1164" y="133"/>
      <point x="1037" y="133" type="curve" smooth="yes"/>
      <point x="996" y="133"/>
      <point x="958" y="136"/>
      <point x="918" y="143" type="curve"/>
      <point x="942" y="-9" type="line"/>
      <point x="985" y="-19"/>
      <point x="1031" y="-22"/>
    </contour>
  </outline>
</glyph>
<glyph name="Ka.mlm" format="2">
  <advance width="2001"/>
  <unicode hex="0D15"/>
  <outline>
    <contour>
      <point x="1011" y="133" type="curve" smooth="yes"/>
      <point x="852" y="133"/>
      <point x="773" y="230.322"/>
      <point x="773" y="426" type="curve" smooth="yes"/>
      <point x="773" y="745" type="line" smooth="yes"/>
      <point x="773" y="941.762"/>
      <point x="851" y="1036"/>
      <point x="1011" y="1036" type="curve" smooth="yes"/>
      <point x="1171" y="1036"/>
      <point x="1249" y="941.762"/>
      <point x="1249" y="745" type="curve" smooth="yes"/>
      <point x="1249" y="426" type="line" smooth="yes"/>
      <point x="1249" y="230.322"/>
      <point x="1170" y="133"/>
    </contour>
    <contour>
      <point x="1011" y="1194" type="curve" smooth="yes"/>
      <point x="733" y="1194"/>
      <point x="592" y="1042.65"/>
      <point x="592" y="742" type="curve" smooth="yes"/>
      <point x="592" y="427" type="line" smooth="yes"/>
      <point x="592" y="338.633"/>
      <point x="605" y="264.651"/>
      <point x="629" y="203" type="curve"/>
      <point x="656" y="156" type="line"/>
      <point x="715" y="38.4157"/>
      <point x="838" y="-26"/>
      <point x="1011" y="-26" type="curve" smooth="yes"/>
      <point x="1288" y="-26"/>
      <point x="1430" y="127.386"/>
      <point x="1430" y="427" type="curve" smooth="yes"/>
      <point x="1430" y="742" type="line" smooth="yes"/>
      <point x="1430" y="1042.65"/>
      <point x="1288" y="1194"/>
    </contour>
    <contour>
      <point x="1717" y="359" type="curve" smooth="yes"/>
      <point x="1717" y="325" type="line" smooth="yes"/>
      <point x="1717" y="192.937"/>
      <point x="1682" y="82.5397"/>
      <point x="1624" y="0" type="curve"/>
      <point x="1816" y="0" type="line"/>
      <point x="1872.67" y="80.4299"/>
      <point x="1901" y="199.012"/>
      <point x="1901" y="331" type="curve" smooth="yes"/>
      <point x="1901" y="370" type="line" smooth="yes"/>
      <point x="1901" y="621.749"/>
      <point x="1780" y="743"/>
      <point x="1546" y="743" type="curve" smooth="yes"/>
      <point x="1382" y="743" type="line"/>
      <point x="1307" y="744" type="line"/>
      <point x="702" y="744" type="line"/>
      <point x="646" y="744" type="line"/>
      <point x="474" y="744" type="line" smooth="yes"/>
      <point x="225" y="744"/>
      <point x="98" y="619.685"/>
      <point x="98" y="369" type="curve" smooth="yes"/>
      <point x="98" y="320" type="line" smooth="yes"/>
      <point x="98" y="94.4821"/>
      <point x="201" y="-26"/>
      <point x="395" y="-26" type="curve" smooth="yes"/>
      <point x="544" y="-26"/>
      <point x="623" y="43.5367"/>
      <point x="653" y="155" type="curve"/>
      <point x="666" y="157" type="line"/>
      <point x="617" y="257" type="line"/>
      <point x="597" y="181.645"/>
      <point x="544" y="129"/>
      <point x="447" y="129" type="curve" smooth="yes"/>
      <point x="339" y="129"/>
      <point x="282" y="195.351"/>
      <point x="282" y="327" type="curve" smooth="yes"/>
      <point x="282" y="368" type="line" smooth="yes"/>
      <point x="282" y="524.977"/>
      <point x="350" y="593"/>
      <point x="486" y="593" type="curve" smooth="yes"/>
      <point x="654" y="593" type="line"/>
      <point x="694" y="593" type="line"/>
      <point x="1314" y="593" type="line"/>
      <point x="1361" y="592" type="line"/>
      <point x="1517" y="592" type="line" smooth="yes"/>
      <point x="1651" y="592"/>
      <point x="1717" y="520.951"/>
    </contour>
  </outline>
</glyph>
<glyph name="Gha.mlm" format="2">
  <advance width="2578"/>
  <unicode hex="0D18"/>
  <outline>
    <contour>
      <point x="784" y="558" type="line"/>
      <point x="604" y="415" type="line"/>
      <point x="1146" y="415" type="line"/>
      <point x="1146" y="558" type="line"/>
    </contour>
    <contour>
      <point x="479" y="1105" type="curve" smooth="yes"/>
      <point x="228" y="1105"/>
      <point x="101" y="976.979"/>
      <point x="101" y="725" type="curve" smooth="yes"/>
      <point x="101" y="691" type="line" smooth="yes"/>
      <point x="101" y="579.989"/>
      <point x="120" y="481.199"/>
      <point x="162" y="415" type="curve"/>
      <point x="348" y="415" type="line"/>
      <point x="307" y="486.316"/>
      <point x="284" y="575.97"/>
      <point x="284" y="686" type="curve" smooth="yes"/>
      <point x="284" y="724" type="line" smooth="yes"/>
      <point x="284" y="870.991"/>
      <point x="347" y="945"/>
      <point x="478" y="945" type="curve" smooth="yes"/>
      <point x="610" y="945"/>
      <point x="673" y="870.991"/>
      <point x="673" y="724" type="curve" smooth="yes"/>
      <point x="673" y="686" type="line" smooth="yes"/>
      <point x="673" y="580.98"/>
      <point x="649" y="494.314"/>
      <point x="604" y="426" type="curve"/>
      <point x="604" y="415" type="line"/>
      <point x="743" y="415" type="line"/>
      <point x="818.672" y="483.209"/>
      <point x="857" y="582.978"/>
      <point x="857" y="697" type="curve" smooth="yes"/>
      <point x="857" y="735" type="line" smooth="yes"/>
      <point x="857" y="980.989"/>
      <point x="731" y="1105"/>
    </contour>
    <contour>
      <point x="1759" y="562" type="line"/>
      <point x="1277" y="562" type="line"/>
      <point x="1277" y="758" type="line" smooth="yes"/>
      <point x="1277" y="940.355"/>
      <point x="1358" y="1031"/>
      <point x="1519" y="1031" type="curve" smooth="yes"/>
      <point x="1680" y="1031"/>
      <point x="1759" y="940.355"/>
      <point x="1759" y="758" type="curve" smooth="yes"/>
    </contour>
    <contour>
      <point x="1518" y="1190" type="curve" smooth="yes"/>
      <point x="1236" y="1190"/>
      <point x="1092" y="1042.22"/>
      <point x="1092" y="755" type="curve" smooth="yes"/>
      <point x="1092" y="0" type="line"/>
      <point x="2432" y="0" type="line"/>
      <point x="2432" y="1156" type="line"/>
      <point x="2245" y="1156" type="line"/>
      <point x="2245" y="148" type="line"/>
      <point x="1277" y="148" type="line"/>
      <point x="1277" y="415" type="line"/>
      <point x="1943" y="415" type="line"/>
      <point x="1943" y="755" type="line" smooth="yes"/>
      <point x="1943" y="1042.22"/>
      <point x="1800" y="1190"/>
    </contour>
  </outline>
</glyph>
<glyph name="Nga.mlm" format="2">
  <advance width="2166"/>
  <unicode hex="0D19"/>
  <outline>
    <contour>
      <point x="1078" y="5" type="line"/>
      <point x="1265" y="5" type="line"/>
      <point x="1265" y="683" type="line"/>
      <point x="1078" y="648" type="line"/>
    </contour>
    <contour>
      <point x="686" y="1189" type="curve" smooth="yes"/>
      <point x="303" y="1189"/>
      <point x="112" y="979.487"/>
      <point x="112" y="581" type="curve" smooth="yes"/>
      <point x="112" y="381" type="line" smooth="yes"/>
      <point x="112" y="108.317"/>
      <point x="237" y="-27"/>
      <point x="478" y="-27" type="curve" smooth="yes"/>
      <point x="712" y="-27"/>
      <point x="833" y="96.4188"/>
      <point x="833" y="334" type="curve" smooth="yes"/>
      <point x="833" y="431" type="line" smooth="yes"/>
      <point x="833" y="653.708"/>
      <point x="736" y="763"/>
      <point x="562" y="763" type="curve" smooth="yes"/>
      <point x="406" y="763"/>
      <point x="311" y="685"/>
      <point x="283" y="542" type="curve"/>
      <point x="291" y="480" type="line"/>
      <point x="326.18" y="564.491"/>
      <point x="391.513" y="607"/>
      <point x="484" y="607" type="curve" smooth="yes"/>
      <point x="593" y="607"/>
      <point x="650" y="541.612"/>
      <point x="650" y="414" type="curve" smooth="yes"/>
      <point x="650" y="335" type="line" smooth="yes"/>
      <point x="650" y="196.265"/>
      <point x="591" y="129"/>
      <point x="478" y="129" type="curve" smooth="yes"/>
      <point x="356" y="129"/>
      <point x="295" y="201.013"/>
      <point x="295" y="368" type="curve" smooth="yes"/>
      <point x="295" y="513" type="line"/>
      <point x="309" y="589" type="line"/>
      <point x="289" y="589" type="line"/>
      <point x="289" y="591" type="line"/>
      <point x="289" y="882.014"/>
      <point x="426" y="1026"/>
      <point x="695" y="1026" type="curve" smooth="yes"/>
      <point x="950" y="1026"/>
      <point x="1078" y="913"/>
      <point x="1078" y="696" type="curve" smooth="yes"/>
      <point x="1078" y="581" type="line"/>
      <point x="1167" y="581" type="line"/>
      <point x="1166" y="916" type="line"/>
      <point x="1122" y="1092"/>
      <point x="960" y="1189"/>
    </contour>
    <contour>
      <point x="1599" y="1189" type="curve" smooth="yes"/>
      <point x="1348" y="1189"/>
      <point x="1200" y="1096"/>
      <point x="1171" y="916" type="curve"/>
      <point x="1122" y="916" type="line"/>
      <point x="1122" y="560" type="line"/>
      <point x="1265" y="555" type="line"/>
      <point x="1265" y="745" type="line" smooth="yes"/>
      <point x="1265" y="935"/>
      <point x="1365" y="1029"/>
      <point x="1579" y="1029" type="curve" smooth="yes"/>
      <point x="1765" y="1029"/>
      <point x="1855" y="962.693"/>
      <point x="1855" y="826" type="curve" smooth="yes"/>
      <point x="1855" y="820" type="line" smooth="yes"/>
      <point x="1855" y="714.29"/>
      <point x="1795.01" y="666.613"/>
      <point x="1667" y="664" type="curve" smooth="yes"/>
      <point x="1520" y="661" type="line"/>
      <point x="1520" y="507" type="line"/>
      <point x="1668" y="503" type="line" smooth="yes"/>
      <point x="1810.01" y="499.162"/>
      <point x="1873" y="446.363"/>
      <point x="1873" y="330" type="curve" smooth="yes"/>
      <point x="1873" y="320" type="line" smooth="yes"/>
      <point x="1873" y="194.592"/>
      <point x="1808" y="136"/>
      <point x="1672" y="136" type="curve" smooth="yes"/>
      <point x="1601" y="136"/>
      <point x="1536" y="143"/>
      <point x="1467" y="160" type="curve"/>
      <point x="1489" y="7" type="line"/>
      <point x="1558" y="-12"/>
      <point x="1630" y="-20"/>
      <point x="1706" y="-20" type="curve" smooth="yes"/>
      <point x="1945" y="-20"/>
      <point x="2062" y="81.6287"/>
      <point x="2062" y="292" type="curve" smooth="yes"/>
      <point x="2062" y="306" type="line" smooth="yes"/>
      <point x="2062" y="471.996"/>
      <point x="1982" y="561.614"/>
      <point x="1818" y="583" type="curve"/>
      <point x="1818" y="588" type="line"/>
      <point x="1972" y="608.323"/>
      <point x="2044" y="692.661"/>
      <point x="2044" y="840" type="curve" smooth="yes"/>
      <point x="2044" y="845" type="line" smooth="yes"/>
      <point x="2044" y="1074.67"/>
      <point x="1894" y="1189"/>
    </contour>
  </outline>
</glyph>
<glyph name="Cha.mlm" format="2">
  <advance width="2576"/>
  <unicode hex="0D1B"/>
  <outline>
    <contour>
      <point x="41" y="150" type="line"/>
      <point x="65" y="0" type="line"/>
      <point x="1415" y="0" type="line"/>
      <point x="1419" y="150" type="line"/>
    </contour>
    <contour>
      <point x="607" y="143" type="curve"/>
      <point x="773" y="112" type="line"/>
      <point x="927" y="179.886"/>
      <point x="996" y="318.698"/>
      <point x="996" y="495" type="curve" smooth="yes"/>
      <point x="996" y="518" type="line" smooth="yes"/>
      <point x="996" y="761.279"/>
      <point x="869" y="889"/>
      <point x="613" y="889" type="curve" smooth="yes"/>
      <point x="362" y="889"/>
      <point x="238" y="767.251"/>
      <point x="238" y="541" type="curve" smooth="yes"/>
      <point x="238" y="527" type="line" smooth="yes"/>
      <point x="238" y="447.837"/>
      <point x="253" y="387.18"/>
      <point x="278" y="344" type="curve"/>
      <point x="455" y="344" type="line"/>
      <point x="436" y="390.316"/>
      <point x="421" y="447.953"/>
      <point x="421" y="520" type="curve" smooth="yes"/>
      <point x="421" y="534" type="line" smooth="yes"/>
      <point x="421" y="661.316"/>
      <point x="484" y="726"/>
      <point x="612" y="726" type="curve" smooth="yes"/>
      <point x="742" y="726"/>
      <point x="808" y="654.325"/>
      <point x="808" y="512" type="curve" smooth="yes"/>
      <point x="808" y="492" type="line" smooth="yes"/>
      <point x="808" y="333.733"/>
      <point x="739" y="208.945"/>
    </contour>
    <contour>
      <point x="1377" y="150" type="line"/>
      <point x="1172" y="150" type="line"/>
      <point x="1172" y="0" type="line"/>
      <point x="1548" y="0" type="line"/>
    </contour>
    <contour>
      <point x="1245" y="443" type="line" smooth="yes"/>
      <point x="1245" y="261.912"/>
      <point x="1297.18" y="101.286"/>
      <point x="1373" y="0" type="curve"/>
      <point x="1548" y="0" type="line"/>
      <point x="1548" y="11" type="line"/>
      <point x="1476" y="125.648"/>
      <point x="1433" y="274.076"/>
      <point x="1433" y="444" type="curve" smooth="yes"/>
      <point x="1433" y="584" type="line" smooth="yes"/>
      <point x="1433" y="879.644"/>
      <point x="1578" y="1029"/>
      <point x="1866" y="1029" type="curve" smooth="yes"/>
      <point x="2145" y="1029"/>
      <point x="2285" y="877.052"/>
      <point x="2285" y="639" type="curve"/>
      <point x="2285" y="639" type="line"/>
      <point x="2263" y="639" type="line"/>
      <point x="2282" y="573" type="line"/>
      <point x="2282" y="368" type="line" smooth="yes"/>
      <point x="2282" y="203.56"/>
      <point x="2222.33" y="129"/>
      <point x="2103" y="129" type="curve" smooth="yes"/>
      <point x="1986" y="129"/>
      <point x="1922" y="199.716"/>
      <point x="1922" y="335" type="curve" smooth="yes"/>
      <point x="1922" y="429" type="line" smooth="yes"/>
      <point x="1922" y="567.48"/>
      <point x="1982" y="635"/>
      <point x="2101" y="635" type="curve" smooth="yes"/>
      <point x="2181" y="635"/>
      <point x="2242" y="604.165"/>
      <point x="2286" y="551" type="curve"/>
      <point x="2289" y="609" type="line"/>
      <point x="2256" y="718.081"/>
      <point x="2164" y="786"/>
      <point x="2027" y="786" type="curve" smooth="yes"/>
      <point x="1842" y="786"/>
      <point x="1739" y="673.597"/>
      <point x="1739" y="441" type="curve" smooth="yes"/>
      <point x="1739" y="334" type="line" smooth="yes"/>
      <point x="1739" y="97.7275"/>
      <point x="1865" y="-27"/>
      <point x="2102" y="-27" type="curve" smooth="yes"/>
      <point x="2342" y="-27"/>
      <point x="2465" y="107.671"/>
      <point x="2465" y="376" type="curve" smooth="yes"/>
      <point x="2465" y="607" type="line" smooth="yes"/>
      <point x="2465" y="992.293"/>
      <point x="2262" y="1192"/>
      <point x="1859" y="1192" type="curve" smooth="yes"/>
      <point x="1452" y="1192"/>
      <point x="1245" y="984.566"/>
      <point x="1245" y="588" type="curve" smooth="yes"/>
    </contour>
  </outline>
</glyph>
<glyph name="Jha.mlm" format="2">
  <advance width="3177"/>
  <unicode hex="0D1D"/>
  <outline>
    <contour>
      <point x="2410" y="485" type="line"/>
      <point x="2410" y="1146" type="line"/>
      <point x="2223" y="1146" type="line"/>
      <point x="2223" y="482" type="line"/>
    </contour>
    <contour>
      <point x="1813" y="395" type="curve" smooth="yes"/>
      <point x="1813" y="492.52"/>
      <point x="1821" y="600.355"/>
      <point x="1821" y="696" type="curve" smooth="yes"/>
      <point x="1821" y="1028.76"/>
      <point x="1649" y="1188"/>
      <point x="1303" y="1188" type="curve" smooth="yes"/>
      <point x="1136" y="1188"/>
      <point x="1012" y="1142"/>
      <point x="934" y="1078" type="curve"/>
      <point x="868" y="1039" type="line"/>
      <point x="697" y="945.236"/>
      <point x="614" y="786.13"/>
      <point x="614" y="547" type="curve" smooth="yes"/>
      <point x="614" y="371" type="line" smooth="yes"/>
      <point x="614" y="109.428"/>
      <point x="737" y="-27"/>
      <point x="982" y="-27" type="curve" smooth="yes"/>
      <point x="1226" y="-27"/>
      <point x="1349" y="109.428"/>
      <point x="1349" y="371" type="curve" smooth="yes"/>
      <point x="1349" y="547" type="line" smooth="yes"/>
      <point x="1349" y="786.13"/>
      <point x="1266" y="945.236"/>
      <point x="1095" y="1039" type="curve"/>
      <point x="1029" y="1078" type="line"/>
      <point x="954" y="1142"/>
      <point x="830" y="1188"/>
      <point x="666" y="1188" type="curve" smooth="yes"/>
      <point x="297" y="1188"/>
      <point x="115" y="990.644"/>
      <point x="115" y="600" type="curve" smooth="yes"/>
      <point x="115" y="454" type="line" smooth="yes"/>
      <point x="115" y="271.991"/>
      <point x="152" y="108.387"/>
      <point x="229" y="0" type="curve"/>
      <point x="426" y="0" type="line"/>
      <point x="348" y="120.664"/>
      <point x="303" y="272.005"/>
      <point x="303" y="453" type="curve" smooth="yes"/>
      <point x="303" y="601" type="line" smooth="yes"/>
      <point x="303" y="892.722"/>
      <point x="430" y="1035"/>
      <point x="694" y="1035" type="curve" smooth="yes"/>
      <point x="770" y="1035"/>
      <point x="836" y="1022"/>
      <point x="891" y="997" type="curve"/>
      <point x="894.098" y="995.79"/>
      <point x="952.56" y="972.953"/>
      <point x="955" y="972" type="curve"/>
      <point x="1096" y="896.492"/>
      <point x="1163" y="757.316"/>
      <point x="1163" y="547" type="curve" smooth="yes"/>
      <point x="1163" y="376" type="line" smooth="yes"/>
      <point x="1163" y="210.234"/>
      <point x="1103" y="131"/>
      <point x="982" y="131" type="curve" smooth="yes"/>
      <point x="861" y="131"/>
      <point x="800" y="210.234"/>
      <point x="800" y="376" type="curve" smooth="yes"/>
      <point x="800" y="547" type="line" smooth="yes"/>
      <point x="800" y="757.316"/>
      <point x="867" y="896.492"/>
      <point x="1008" y="972" type="curve"/>
      <point x="1010.44" y="972.953"/>
      <point x="1068.9" y="995.79"/>
      <point x="1072" y="997" type="curve" smooth="yes"/>
      <point x="1133" y="1022"/>
      <point x="1202" y="1035"/>
      <point x="1284" y="1035" type="curve" smooth="yes"/>
      <point x="1521" y="1035"/>
      <point x="1634" y="923.905"/>
      <point x="1634" y="676" type="curve" smooth="yes"/>
      <point x="1634" y="580.375"/>
      <point x="1626" y="472.562"/>
      <point x="1626" y="376" type="curve" smooth="yes"/>
      <point x="1626" y="107.35"/>
      <point x="1749" y="-28"/>
      <point x="1990" y="-28" type="curve" smooth="yes"/>
      <point x="2182" y="-28"/>
      <point x="2291" y="66"/>
      <point x="2314" y="224" type="curve"/>
      <point x="2363" y="224" type="line"/>
      <point x="2366" y="589" type="line"/>
      <point x="2223" y="610" type="line"/>
      <point x="2223" y="405" type="line" smooth="yes"/>
      <point x="2223" y="229"/>
      <point x="2156" y="143"/>
      <point x="2017" y="143" type="curve" smooth="yes"/>
      <point x="1880" y="143"/>
      <point x="1813" y="225.264"/>
    </contour>
    <contour>
      <point x="2319" y="224" type="line"/>
      <point x="2345" y="65"/>
      <point x="2459" y="-29"/>
      <point x="2661" y="-29" type="curve" smooth="yes"/>
      <point x="2930" y="-29"/>
      <point x="3061" y="130.333"/>
      <point x="3061" y="449" type="curve" smooth="yes"/>
      <point x="3061" y="668" type="line" smooth="yes"/>
      <point x="3061" y="869.156"/>
      <point x="3010.75" y="1035.59"/>
      <point x="2922" y="1152" type="curve"/>
      <point x="2731" y="1152" type="line"/>
      <point x="2813.84" y="1030.47"/>
      <point x="2873" y="868.098"/>
      <point x="2873" y="671" type="curve" smooth="yes"/>
      <point x="2873" y="451" type="line" smooth="yes"/>
      <point x="2873" y="243.278"/>
      <point x="2797" y="142"/>
      <point x="2634" y="142" type="curve" smooth="yes"/>
      <point x="2483" y="142"/>
      <point x="2410" y="230"/>
      <point x="2410" y="412" type="curve" smooth="yes"/>
      <point x="2410" y="607" type="line"/>
      <point x="2316" y="607" type="line"/>
    </contour>
  </outline>
</glyph>
<glyph name="Tta.mlm" format="2">
  <advance width="1079"/>
  <unicode hex="0D1F"/>
  <outline>
    <contour>
      <point x="541" y="-32" type="curve" smooth="yes"/>
      <point x="839" y="-32"/>
      <point x="983" y="78"/>
      <point x="983" y="304" type="curve" smooth="yes"/>
      <point x="983" y="320" type="line" smooth="yes"/>
      <point x="983" y="522.594"/>
      <point x="887.984" y="612.764"/>
      <point x="594" y="661" type="curve" smooth="yes"/>
      <point x="345.984" y="701.694"/>
      <point x="289" y="750.536"/>
      <point x="289" y="854" type="curve" smooth="yes"/>
      <point x="289" y="859" type="line" smooth="yes"/>
      <point x="289" y="971"/>
      <point x="364" y="1028"/>
      <point x="552" y="1028" type="curve" smooth="yes"/>
      <point x="699" y="1028"/>
      <point x="827" y="992"/>
      <point x="944" y="930" type="curve"/>
      <point x="930" y="1098" type="line"/>
      <point x="840" y="1151"/>
      <point x="708" y="1191"/>
      <point x="542" y="1191" type="curve" smooth="yes"/>
      <point x="245" y="1191"/>
      <point x="101" y="1081"/>
      <point x="101" y="858" type="curve" smooth="yes"/>
      <point x="101" y="851" type="line" smooth="yes"/>
      <point x="101" y="654.411"/>
      <point x="200.011" y="567.22"/>
      <point x="506" y="517" type="curve" smooth="yes"/>
      <point x="742.011" y="478.265"/>
      <point x="795" y="427.45"/>
      <point x="795" y="318" type="curve" smooth="yes"/>
      <point x="795" y="306" type="line" smooth="yes"/>
      <point x="795" y="190"/>
      <point x="718" y="131"/>
      <point x="532" y="131" type="curve" smooth="yes"/>
      <point x="362" y="131"/>
      <point x="219" y="185"/>
      <point x="90" y="265" type="curve"/>
      <point x="106" y="88" type="line"/>
      <point x="205" y="20"/>
      <point x="357" y="-32"/>
    </contour>
  </outline>
</glyph>
<glyph name="Ddha.mlm" format="2">
  <advance width="2594"/>
  <unicode hex="0D22"/>
  <outline>
    <contour>
      <point x="1529" y="500" type="line"/>
      <point x="1529" y="1146" type="line"/>
      <point x="1342" y="1146" type="line"/>
      <point x="1342" y="482" type="line"/>
    </contour>
    <contour>
      <point x="1108" y="-28" type="curve" smooth="yes"/>
      <point x="1309" y="-28"/>
      <point x="1419" y="70"/>
      <point x="1442" y="238" type="curve"/>
      <point x="1490" y="238" type="line"/>
      <point x="1489" y="589" type="line"/>
      <point x="1342" y="610" type="line"/>
      <point x="1342" y="402" type="line" smooth="yes"/>
      <point x="1342" y="228"/>
      <point x="1274" y="143"/>
      <point x="1134" y="143" type="curve" smooth="yes"/>
      <point x="995" y="143"/>
      <point x="925" y="226.265"/>
      <point x="925" y="398" type="curve" smooth="yes"/>
      <point x="925" y="521.35"/>
      <point x="936" y="645.65"/>
      <point x="936" y="769" type="curve" smooth="yes"/>
      <point x="936" y="1048.66"/>
      <point x="802" y="1189"/>
      <point x="537" y="1189" type="curve" smooth="yes"/>
      <point x="256" y="1189"/>
      <point x="116" y="1034.7"/>
      <point x="116" y="722" type="curve" smooth="yes"/>
      <point x="116" y="488" type="line" smooth="yes"/>
      <point x="116" y="286.879"/>
      <point x="166.239" y="113.322"/>
      <point x="254" y="0" type="curve"/>
      <point x="451" y="0" type="line"/>
      <point x="364.191" y="123.537"/>
      <point x="304" y="287.912"/>
      <point x="304" y="487" type="curve" smooth="yes"/>
      <point x="304" y="720" type="line" smooth="yes"/>
      <point x="304" y="924.758"/>
      <point x="381" y="1023"/>
      <point x="537" y="1023" type="curve" smooth="yes"/>
      <point x="680" y="1023"/>
      <point x="749" y="936.732"/>
      <point x="749" y="759" type="curve" smooth="yes"/>
      <point x="749" y="634.599"/>
      <point x="738" y="507.35"/>
      <point x="738" y="382" type="curve" smooth="yes"/>
      <point x="738" y="110.375"/>
      <point x="864" y="-28"/>
    </contour>
    <contour>
      <point x="1923" y="-28" type="curve" smooth="yes"/>
      <point x="2296" y="-28"/>
      <point x="2481" y="178.729"/>
      <point x="2481" y="570" type="curve" smooth="yes"/>
      <point x="2481" y="788" type="line" smooth="yes"/>
      <point x="2481" y="1055.33"/>
      <point x="2357" y="1189"/>
      <point x="2118" y="1189" type="curve" smooth="yes"/>
      <point x="1886" y="1189"/>
      <point x="1766" y="1067.28"/>
      <point x="1766" y="835" type="curve" smooth="yes"/>
      <point x="1766" y="724" type="line" smooth="yes"/>
      <point x="1766" y="505.641"/>
      <point x="1862" y="399"/>
      <point x="2034" y="399" type="curve" smooth="yes"/>
      <point x="2188" y="399"/>
      <point x="2282" y="478.773"/>
      <point x="2310" y="624" type="curve"/>
      <point x="2301" y="681" type="line"/>
      <point x="2266.47" y="599.292"/>
      <point x="2203.45" y="555"/>
      <point x="2112" y="555" type="curve" smooth="yes"/>
      <point x="2005" y="555"/>
      <point x="1949" y="618.713"/>
      <point x="1949" y="741" type="curve" smooth="yes"/>
      <point x="1949" y="834" type="line" smooth="yes"/>
      <point x="1949" y="967.351"/>
      <point x="2007" y="1033"/>
      <point x="2118" y="1033" type="curve" smooth="yes"/>
      <point x="2238" y="1033"/>
      <point x="2298" y="963.502"/>
      <point x="2298" y="801" type="curve" smooth="yes"/>
      <point x="2298" y="653" type="line"/>
      <point x="2284" y="577" type="line"/>
      <point x="2304" y="577" type="line"/>
      <point x="2304" y="569" type="line" smooth="yes"/>
      <point x="2304" y="278.647"/>
      <point x="2172" y="136"/>
      <point x="1913" y="136" type="curve" smooth="yes"/>
      <point x="1658" y="136"/>
      <point x="1529" y="247"/>
      <point x="1529" y="461" type="curve" smooth="yes"/>
      <point x="1529" y="586" type="line"/>
      <point x="1443" y="586" type="line"/>
      <point x="1447" y="238" type="line"/>
      <point x="1493" y="68"/>
      <point x="1654" y="-28"/>
    </contour>
  </outline>
</glyph>
<glyph name="Nna.mlm" format="2">
  <advance width="2681"/>
  <unicode hex="0D23"/>
  <outline>
    <contour>
      <point x="1078" y="5" type="line"/>
      <point x="1265" y="5" type="line"/>
      <point x="1265" y="683" type="line"/>
      <point x="1078" y="648" type="line"/>
    </contour>
    <contour>
      <point x="686" y="1189" type="curve" smooth="yes"/>
      <point x="303" y="1189"/>
      <point x="112" y="979.487"/>
      <point x="112" y="581" type="curve" smooth="yes"/>
      <point x="112" y="381" type="line" smooth="yes"/>
      <point x="112" y="108.317"/>
      <point x="237" y="-27"/>
      <point x="478" y="-27" type="curve" smooth="yes"/>
      <point x="712" y="-27"/>
      <point x="833" y="96.4188"/>
      <point x="833" y="334" type="curve" smooth="yes"/>
      <point x="833" y="431" type="line" smooth="yes"/>
      <point x="833" y="653.708"/>
      <point x="736" y="763"/>
      <point x="562" y="763" type="curve" smooth="yes"/>
      <point x="406" y="763"/>
      <point x="311" y="685"/>
      <point x="283" y="542" type="curve"/>
      <point x="291" y="480" type="line"/>
      <point x="326.18" y="564.491"/>
      <point x="391.513" y="607"/>
      <point x="484" y="607" type="curve" smooth="yes"/>
      <point x="593" y="607"/>
      <point x="650" y="541.612"/>
      <point x="650" y="414" type="curve" smooth="yes"/>
      <point x="650" y="335" type="line" smooth="yes"/>
      <point x="650" y="196.265"/>
      <point x="591" y="129"/>
      <point x="478" y="129" type="curve" smooth="yes"/>
      <point x="356" y="129"/>
      <point x="295" y="201.013"/>
      <point x="295" y="368" type="curve" smooth="yes"/>
      <point x="295" y="513" type="line"/>
      <point x="309" y="589" type="line"/>
      <point x="289" y="589" type="line"/>
      <point x="289" y="591" type="line"/>
      <point x="289" y="882.014"/>
      <point x="426" y="1026"/>
      <point x="695" y="1026" type="curve" smooth="yes"/>
      <point x="950" y="1026"/>
      <point x="1078" y="913"/>
      <point x="1078" y="696" type="curve" smooth="yes"/>
      <point x="1078" y="581" type="line"/>
      <point x="1167" y="581" type="line"/>
      <point x="1166" y="916" type="line"/>
      <point x="1122" y="1092"/>
      <point x="960" y="1189"/>
    </contour>
    <contour>
      <point x="1713" y="674" type="line"/>
      <point x="1713" y="5" type="line"/>
      <point x="1900" y="5" type="line"/>
      <point x="1900" y="674" type="line"/>
    </contour>
    <contour>
      <point x="1804" y="931" type="line"/>
      <point x="1782" y="1094"/>
      <point x="1675" y="1189"/>
      <point x="1489" y="1189" type="curve" smooth="yes"/>
      <point x="1303" y="1189"/>
      <point x="1193" y="1095"/>
      <point x="1171" y="916" type="curve"/>
      <point x="1121" y="916" type="line"/>
      <point x="1121" y="560" type="line"/>
      <point x="1265" y="555" type="line"/>
      <point x="1265" y="746" type="line" smooth="yes"/>
      <point x="1265" y="927"/>
      <point x="1336" y="1018"/>
      <point x="1488" y="1018" type="curve" smooth="yes"/>
      <point x="1641" y="1018"/>
      <point x="1713" y="927"/>
      <point x="1713" y="746" type="curve" smooth="yes"/>
      <point x="1713" y="547" type="line"/>
      <point x="1811" y="547" type="line"/>
    </contour>
    <contour>
      <point x="1900" y="542" type="line"/>
      <point x="1900" y="745" type="line" smooth="yes"/>
      <point x="1900" y="928"/>
      <point x="1974" y="1019"/>
      <point x="2129" y="1019" type="curve" smooth="yes"/>
      <point x="2297" y="1019"/>
      <point x="2377" y="914.699"/>
      <point x="2377" y="703" type="curve" smooth="yes"/>
      <point x="2377" y="480" type="line" smooth="yes"/>
      <point x="2377" y="283.915"/>
      <point x="2320.83" y="121.532"/>
      <point x="2243" y="0" type="curve"/>
      <point x="2440" y="0" type="line"/>
      <point x="2520.46" y="113.357"/>
      <point x="2565" y="281.86"/>
      <point x="2565" y="481" type="curve" smooth="yes"/>
      <point x="2565" y="703" type="line" smooth="yes"/>
      <point x="2565" y="1026.66"/>
      <point x="2430" y="1189"/>
      <point x="2154" y="1189" type="curve" smooth="yes"/>
      <point x="1949" y="1189"/>
      <point x="1838" y="1093"/>
      <point x="1809" y="931" type="curve"/>
      <point x="1758" y="931" type="line"/>
      <point x="1754" y="564" type="line"/>
    </contour>
  </outline>
</glyph>
<glyph name="Ta.mlm" format="2">
  <advance width="1962"/>
  <unicode hex="0D24"/>
  <outline>
    <contour>
      <point x="982" y="-27" type="curve" smooth="yes"/>
      <point x="1226" y="-27"/>
      <point x="1349" y="109.428"/>
      <point x="1349" y="371" type="curve" smooth="yes"/>
      <point x="1349" y="547" type="line" smooth="yes"/>
      <point x="1349" y="786.13"/>
      <point x="1266" y="945.236"/>
      <point x="1095" y="1039" type="curve"/>
      <point x="1029" y="1078" type="line"/>
      <point x="954" y="1142"/>
      <point x="830" y="1188"/>
      <point x="666" y="1188" type="curve" smooth="yes"/>
      <point x="297" y="1188"/>
      <point x="115" y="990.644"/>
      <point x="115" y="600" type="curve" smooth="yes"/>
      <point x="115" y="454" type="line" smooth="yes"/>
      <point x="115" y="271.991"/>
      <point x="152" y="108.387"/>
      <point x="229" y="0" type="curve"/>
      <point x="426" y="0" type="line"/>
      <point x="348" y="120.664"/>
      <point x="303" y="272.005"/>
      <point x="303" y="453" type="curve" smooth="yes"/>
      <point x="303" y="601" type="line" smooth="yes"/>
      <point x="303" y="892.722"/>
      <point x="430" y="1035"/>
      <point x="694" y="1035" type="curve" smooth="yes"/>
      <point x="770" y="1035"/>
      <point x="836" y="1022"/>
      <point x="891" y="997" type="curve"/>
      <point x="955" y="972" type="line"/>
      <point x="1096" y="896.492"/>
      <point x="1163" y="757.316"/>
      <point x="1163" y="547" type="curve" smooth="yes"/>
      <point x="1163" y="376" type="line" smooth="yes"/>
      <point x="1163" y="210.234"/>
      <point x="1103" y="131"/>
      <point x="982" y="131" type="curve" smooth="yes"/>
      <point x="861" y="131"/>
      <point x="800" y="210.234"/>
      <point x="800" y="376" type="curve" smooth="yes"/>
      <point x="800" y="547" type="line" smooth="yes"/>
      <point x="800" y="757.316"/>
      <point x="867" y="896.492"/>
      <point x="1008" y="972" type="curve"/>
      <point x="1072" y="997" type="line"/>
      <point x="1128" y="1022"/>
      <point x="1192" y="1035"/>
      <point x="1267" y="1035" type="curve" smooth="yes"/>
      <point x="1532" y="1035"/>
      <point x="1660" y="892.722"/>
      <point x="1660" y="601" type="curve" smooth="yes"/>
      <point x="1660" y="453" type="line" smooth="yes"/>
      <point x="1660" y="272.005"/>
      <point x="1617" y="120.664"/>
      <point x="1537" y="0" type="curve"/>
      <point x="1734" y="0" type="line"/>
      <point x="1812" y="108.387"/>
      <point x="1848" y="271.991"/>
      <point x="1848" y="454" type="curve" smooth="yes"/>
      <point x="1848" y="600" type="line" smooth="yes"/>
      <point x="1848" y="990.644"/>
      <point x="1667" y="1188"/>
      <point x="1296" y="1188" type="curve" smooth="yes"/>
      <point x="1133" y="1188"/>
      <point x="1010" y="1142"/>
      <point x="934" y="1078" type="curve"/>
      <point x="868" y="1039" type="line"/>
      <point x="697" y="945.236"/>
      <point x="614" y="786.13"/>
      <point x="614" y="547" type="curve" smooth="yes"/>
      <point x="614" y="371" type="line" smooth="yes"/>
      <point x="614" y="109.428"/>
      <point x="737" y="-27"/>
    </contour>
  </outline>
</glyph>
<glyph name="Da.mlm" format="2">
  <advance width="1259"/>
  <unicode hex="0D26"/>
  <outline>
    <contour>
      <point x="1137" y="845" type="line" smooth="yes"/>
      <point x="1137" y="1076.67"/>
      <point x="976" y="1192"/>
      <point x="659" y="1192" type="curve" smooth="yes"/>
      <point x="295" y="1192"/>
      <point x="117" y="1013.32"/>
      <point x="117" y="657" type="curve" smooth="yes"/>
      <point x="117" y="441" type="line" smooth="yes"/>
      <point x="117" y="257.847"/>
      <point x="145" y="105.39"/>
      <point x="197" y="0" type="curve"/>
      <point x="387" y="0" type="line"/>
      <point x="337" y="118.704"/>
      <point x="305" y="258.897"/>
      <point x="305" y="439" type="curve" smooth="yes"/>
      <point x="305" y="656" type="line" smooth="yes"/>
      <point x="305" y="908.465"/>
      <point x="417" y="1031"/>
      <point x="659" y="1031" type="curve" smooth="yes"/>
      <point x="854" y="1031"/>
      <point x="948" y="963.687"/>
      <point x="948" y="826" type="curve" smooth="yes"/>
      <point x="948" y="820" type="line" smooth="yes"/>
      <point x="948" y="714.29"/>
      <point x="887.992" y="666.493"/>
      <point x="760" y="664" type="curve" smooth="yes"/>
      <point x="606" y="661" type="line"/>
      <point x="606" y="507" type="line"/>
      <point x="761" y="503" type="line" smooth="yes"/>
      <point x="903.012" y="499.335"/>
      <point x="966" y="446.363"/>
      <point x="966" y="330" type="curve" smooth="yes"/>
      <point x="966" y="320" type="line" smooth="yes"/>
      <point x="966" y="194.592"/>
      <point x="901" y="136"/>
      <point x="765" y="136" type="curve" smooth="yes"/>
      <point x="696" y="136"/>
      <point x="631" y="143"/>
      <point x="564" y="160" type="curve"/>
      <point x="586" y="7" type="line"/>
      <point x="653" y="-12"/>
      <point x="725" y="-20"/>
      <point x="799" y="-20" type="curve" smooth="yes"/>
      <point x="1038" y="-20"/>
      <point x="1155" y="81.6287"/>
      <point x="1155" y="292" type="curve" smooth="yes"/>
      <point x="1155" y="306" type="line" smooth="yes"/>
      <point x="1155" y="471.996"/>
      <point x="1075" y="561.614"/>
      <point x="911" y="583" type="curve"/>
      <point x="911" y="588" type="line"/>
      <point x="1065" y="608.323"/>
      <point x="1137" y="692.661"/>
      <point x="1137" y="840" type="curve" smooth="yes"/>
    </contour>
  </outline>
</glyph>
<glyph name="Dha.mlm" format="2">
  <advance width="1735"/>
  <unicode hex="0D27"/>
  <outline>
    <contour>
      <point x="961" y="483" type="line"/>
      <point x="961" y="1147" type="line"/>
      <point x="774" y="1147" type="line"/>
      <point x="774" y="483" type="line"/>
    </contour>
    <contour>
      <point x="774" y="601" type="line"/>
      <point x="774" y="412" type="line" smooth="yes"/>
      <point x="774" y="231"/>
      <point x="700" y="143"/>
      <point x="546" y="143" type="curve" smooth="yes"/>
      <point x="383" y="143"/>
      <point x="304" y="245.311"/>
      <point x="304" y="452" type="curve" smooth="yes"/>
      <point x="304" y="672" type="line" smooth="yes"/>
      <point x="304" y="869.098"/>
      <point x="364.129" y="1031.47"/>
      <point x="446" y="1153" type="curve"/>
      <point x="255" y="1153" type="line"/>
      <point x="165.264" y="1036.59"/>
      <point x="116" y="870.156"/>
      <point x="116" y="669" type="curve" smooth="yes"/>
      <point x="116" y="450" type="line" smooth="yes"/>
      <point x="116" y="131.333"/>
      <point x="249" y="-28"/>
      <point x="519" y="-28" type="curve" smooth="yes"/>
      <point x="725" y="-28"/>
      <point x="840" y="66"/>
      <point x="865" y="225" type="curve"/>
      <point x="915" y="225" type="line"/>
      <point x="919" y="579" type="line"/>
    </contour>
    <contour>
      <point x="870" y="225" type="line"/>
      <point x="896" y="66"/>
      <point x="1010" y="-28"/>
      <point x="1216" y="-28" type="curve" smooth="yes"/>
      <point x="1487" y="-28"/>
      <point x="1619" y="131.333"/>
      <point x="1619" y="450" type="curve" smooth="yes"/>
      <point x="1619" y="669" type="line" smooth="yes"/>
      <point x="1619" y="870.156"/>
      <point x="1569.75" y="1036.59"/>
      <point x="1481" y="1153" type="curve"/>
      <point x="1289" y="1153" type="line"/>
      <point x="1371.84" y="1031.47"/>
      <point x="1431" y="869.098"/>
      <point x="1431" y="672" type="curve" smooth="yes"/>
      <point x="1431" y="452" type="line" smooth="yes"/>
      <point x="1431" y="245.311"/>
      <point x="1353" y="143"/>
      <point x="1189" y="143" type="curve" smooth="yes"/>
      <point x="1036" y="143"/>
      <point x="961" y="231"/>
      <point x="961" y="412" type="curve" smooth="yes"/>
      <point x="961" y="598" type="line"/>
      <point x="866" y="598" type="line"/>
    </contour>
  </outline>
</glyph>
<glyph name="Na.mlm" format="2">
  <advance width="1755"/>
  <unicode hex="0D28"/>
  <outline>
    <contour>
      <point x="784" y="669" type="line"/>
      <point x="784" y="5" type="line"/>
      <point x="971" y="5" type="line"/>
      <point x="971" y="669" type="line"/>
    </contour>
    <contour>
      <point x="116" y="703" type="curve" smooth="yes"/>
      <point x="116" y="481" type="line" smooth="yes"/>
      <point x="116" y="281.86"/>
      <point x="159.282" y="113.357"/>
      <point x="242" y="0" type="curve"/>
      <point x="439" y="0" type="line"/>
      <point x="361.143" y="121.532"/>
      <point x="304" y="283.915"/>
      <point x="304" y="480" type="curve" smooth="yes"/>
      <point x="304" y="703" type="line" smooth="yes"/>
      <point x="304" y="914.699"/>
      <point x="385" y="1019"/>
      <point x="553" y="1019" type="curve" smooth="yes"/>
      <point x="709" y="1019"/>
      <point x="784" y="928"/>
      <point x="784" y="746" type="curve" smooth="yes"/>
      <point x="784" y="545" type="line"/>
      <point x="879" y="545" type="line"/>
      <point x="875" y="928" type="line"/>
      <point x="848" y="1093"/>
      <point x="736" y="1189"/>
      <point x="528" y="1189" type="curve" smooth="yes"/>
      <point x="252" y="1189"/>
      <point x="116" y="1026.66"/>
    </contour>
    <contour>
      <point x="971" y="542" type="line"/>
      <point x="971" y="746" type="line" smooth="yes"/>
      <point x="971" y="929"/>
      <point x="1046" y="1019"/>
      <point x="1202" y="1019" type="curve" smooth="yes"/>
      <point x="1369" y="1019"/>
      <point x="1451" y="914.699"/>
      <point x="1451" y="703" type="curve" smooth="yes"/>
      <point x="1451" y="480" type="line" smooth="yes"/>
      <point x="1451" y="283.915"/>
      <point x="1395.2" y="121.532"/>
      <point x="1318" y="0" type="curve"/>
      <point x="1514" y="0" type="line"/>
      <point x="1597.02" y="113.357"/>
      <point x="1639" y="281.86"/>
      <point x="1639" y="481" type="curve" smooth="yes"/>
      <point x="1639" y="703" type="line" smooth="yes"/>
      <point x="1639" y="1026.66"/>
      <point x="1504" y="1189"/>
      <point x="1228" y="1189" type="curve" smooth="yes"/>
      <point x="1020" y="1189"/>
      <point x="907" y="1093"/>
      <point x="880" y="928" type="curve"/>
      <point x="830" y="928" type="line"/>
      <point x="826" y="564" type="line"/>
    </contour>
  </outline>
</glyph>
<glyph name="Pa.mlm" format="2">
  <advance width="1671"/>
  <unicode hex="0D2A"/>
  <outline>
    <contour>
      <point x="499" y="781" type="curve" smooth="yes"/>
      <point x="236" y="781"/>
      <point x="103" y="643.948"/>
      <point x="103" y="371" type="curve" smooth="yes"/>
      <point x="103" y="304" type="line" smooth="yes"/>
      <point x="103" y="178.943"/>
      <point x="127" y="72.1873"/>
      <point x="176" y="0" type="curve"/>
      <point x="365" y="0" type="line"/>
      <point x="318" y="78.2876"/>
      <point x="289" y="178.943"/>
      <point x="289" y="304" type="curve" smooth="yes"/>
      <point x="289" y="368" type="line" smooth="yes"/>
      <point x="289" y="535.975"/>
      <point x="358" y="618"/>
      <point x="498" y="618" type="curve" smooth="yes"/>
      <point x="640" y="618"/>
      <point x="710" y="535.975"/>
      <point x="710" y="368" type="curve" smooth="yes"/>
      <point x="710" y="304" type="line" smooth="yes"/>
      <point x="710" y="184.969"/>
      <point x="680" y="87.3021"/>
      <point x="628" y="11" type="curve"/>
      <point x="628" y="0" type="line"/>
      <point x="771" y="0" type="line"/>
      <point x="852.693" y="77.2338"/>
      <point x="896" y="178.857"/>
      <point x="896" y="313" type="curve" smooth="yes"/>
      <point x="896" y="386" type="line" smooth="yes"/>
      <point x="896" y="648.946"/>
      <point x="764" y="781"/>
    </contour>
    <contour>
      <point x="1338" y="1156" type="line"/>
      <point x="1338" y="0" type="line"/>
      <point x="1525" y="0" type="line"/>
      <point x="1525" y="1156" type="line"/>
    </contour>
    <contour>
      <point x="795" y="150" type="line"/>
      <point x="628" y="0" type="line"/>
      <point x="1495" y="0" type="line"/>
      <point x="1495" y="150" type="line"/>
    </contour>
  </outline>
</glyph>
<glyph name="Pha.mlm" format="2">
  <advance width="2173"/>
  <unicode hex="0D2B"/>
  <outline>
    <contour>
      <point x="717" y="150" type="line"/>
      <point x="708" y="0" type="line"/>
      <point x="1299" y="0" type="line"/>
      <point x="1299" y="150" type="line"/>
    </contour>
    <contour>
      <point x="499" y="781" type="curve" smooth="yes"/>
      <point x="236" y="781"/>
      <point x="103" y="643.948"/>
      <point x="103" y="371" type="curve" smooth="yes"/>
      <point x="103" y="304" type="line" smooth="yes"/>
      <point x="103" y="178.943"/>
      <point x="127" y="72.1873"/>
      <point x="176" y="0" type="curve"/>
      <point x="365" y="0" type="line"/>
      <point x="318" y="78.2876"/>
      <point x="289" y="178.943"/>
      <point x="289" y="304" type="curve" smooth="yes"/>
      <point x="289" y="368" type="line" smooth="yes"/>
      <point x="289" y="535.975"/>
      <point x="358" y="618"/>
      <point x="498" y="618" type="curve" smooth="yes"/>
      <point x="640" y="618"/>
      <point x="710" y="535.975"/>
      <point x="710" y="368" type="curve" smooth="yes"/>
      <point x="710" y="304" type="line" smooth="yes"/>
      <point x="710" y="184.969"/>
      <point x="680" y="87.3021"/>
      <point x="628" y="11" type="curve"/>
      <point x="628" y="0" type="line"/>
      <point x="771" y="0" type="line"/>
      <point x="852.693" y="77.2338"/>
      <point x="896" y="178.857"/>
      <point x="896" y="313" type="curve" smooth="yes"/>
      <point x="896" y="386" type="line" smooth="yes"/>
      <point x="896" y="648.946"/>
      <point x="764" y="781"/>
    </contour>
    <contour>
      <point x="1308" y="150" type="line"/>
      <point x="1251" y="0" type="line"/>
      <point x="2037" y="0" type="line"/>
      <point x="2037" y="748" type="line" smooth="yes"/>
      <point x="2037" y="1044.39"/>
      <point x="1899" y="1190"/>
      <point x="1620" y="1190" type="curve" smooth="yes"/>
      <point x="1342" y="1190"/>
      <point x="1201" y="1043.36"/>
      <point x="1201" y="748" type="curve" smooth="yes"/>
      <point x="1201" y="0" type="line"/>
      <point x="1388" y="0" type="line"/>
      <point x="1388" y="749" type="line" smooth="yes"/>
      <point x="1388" y="934.441"/>
      <point x="1463" y="1024"/>
      <point x="1619" y="1024" type="curve" smooth="yes"/>
      <point x="1775" y="1024"/>
      <point x="1850" y="934.441"/>
      <point x="1850" y="749" type="curve" smooth="yes"/>
      <point x="1850" y="150" type="line"/>
    </contour>
  </outline>
</glyph>
<glyph name="Bha.mlm" format="2">
  <advance width="1298"/>
  <unicode hex="0D2D"/>
  <outline>
    <contour>
      <point x="1187" y="889" type="curve" smooth="yes"/>
      <point x="1187" y="1082"/>
      <point x="1026.02" y="1192"/>
      <point x="713" y="1192" type="curve" smooth="yes"/>
      <point x="313.992" y="1192"/>
      <point x="117" y="1007.55"/>
      <point x="117" y="614" type="curve" smooth="yes"/>
      <point x="117" y="441" type="line" smooth="yes"/>
      <point x="117" y="257.847"/>
      <point x="145" y="105.39"/>
      <point x="197" y="0" type="curve"/>
      <point x="387" y="0" type="line"/>
      <point x="337" y="118.704"/>
      <point x="305" y="258.897"/>
      <point x="305" y="439" type="curve" smooth="yes"/>
      <point x="305" y="612" type="line" smooth="yes"/>
      <point x="305" y="903.977"/>
      <point x="431.931" y="1033"/>
      <point x="714" y="1033" type="curve" smooth="yes"/>
      <point x="905.972" y="1033"/>
      <point x="998" y="980"/>
      <point x="998" y="893" type="curve" smooth="yes"/>
      <point x="998" y="852"/>
      <point x="976" y="829"/>
      <point x="908" y="827" type="curve" smooth="yes"/>
      <point x="798" y="824" type="line" smooth="yes"/>
      <point x="648" y="820"/>
      <point x="552" y="741"/>
      <point x="552" y="587" type="curve" smooth="yes"/>
      <point x="552" y="581" type="line" smooth="yes"/>
      <point x="552" y="428"/>
      <point x="646" y="352"/>
      <point x="797" y="346" type="curve" smooth="yes"/>
      <point x="900" y="342" type="line" smooth="yes"/>
      <point x="995" y="338"/>
      <point x="1025" y="309"/>
      <point x="1025" y="252" type="curve" smooth="yes"/>
      <point x="1025" y="247" type="line" smooth="yes"/>
      <point x="1025" y="167"/>
      <point x="955" y="132"/>
      <point x="811" y="132" type="curve" smooth="yes"/>
      <point x="731" y="132"/>
      <point x="652" y="142"/>
      <point x="575" y="160" type="curve"/>
      <point x="595" y="8" type="line"/>
      <point x="670" y="-13"/>
      <point x="749" y="-21"/>
      <point x="831" y="-21" type="curve" smooth="yes"/>
      <point x="1088" y="-21"/>
      <point x="1214" y="65"/>
      <point x="1214" y="238" type="curve" smooth="yes"/>
      <point x="1214" y="247" type="line" smooth="yes"/>
      <point x="1214" y="410"/>
      <point x="1125" y="476"/>
      <point x="964" y="482" type="curve" smooth="yes"/>
      <point x="861" y="486" type="line" smooth="yes"/>
      <point x="772" y="489"/>
      <point x="735" y="523"/>
      <point x="735" y="582" type="curve" smooth="yes"/>
      <point x="735" y="586" type="line" smooth="yes"/>
      <point x="735" y="645"/>
      <point x="771" y="682"/>
      <point x="861" y="684" type="curve" smooth="yes"/>
      <point x="972" y="687" type="line" smooth="yes"/>
      <point x="1122" y="691"/>
      <point x="1187" y="757"/>
    </contour>
  </outline>
</glyph>
<glyph name="Ya.mlm" format="2">
  <advance width="1986"/>
  <unicode hex="0D2F"/>
  <outline>
    <contour>
      <point x="987" y="186" type="curve"/>
      <point x="930" y="161" type="line"/>
      <point x="872" y="136"/>
      <point x="802" y="121"/>
      <point x="718" y="121" type="curve" smooth="yes"/>
      <point x="443" y="121"/>
      <point x="303" y="267.31"/>
      <point x="303" y="563" type="curve" smooth="yes"/>
      <point x="303" y="797" type="line" smooth="yes"/>
      <point x="303" y="949"/>
      <point x="362" y="1027"/>
      <point x="477" y="1027" type="curve" smooth="yes"/>
      <point x="585" y="1027"/>
      <point x="630" y="959"/>
      <point x="640" y="819" type="curve" smooth="yes"/>
      <point x="660" y="546" type="line" smooth="yes"/>
      <point x="675" y="340"/>
      <point x="754" y="197"/>
      <point x="902" y="117" type="curve"/>
      <point x="963" y="81" type="line"/>
      <point x="1038" y="15"/>
      <point x="1160" y="-34"/>
      <point x="1326" y="-34" type="curve" smooth="yes"/>
      <point x="1692" y="-34"/>
      <point x="1873" y="160.357"/>
      <point x="1873" y="545" type="curve" smooth="yes"/>
      <point x="1873" y="697" type="line" smooth="yes"/>
      <point x="1873" y="888.193"/>
      <point x="1827" y="1042.58"/>
      <point x="1741" y="1153" type="curve"/>
      <point x="1552" y="1153" type="line"/>
      <point x="1638" y="1036.41"/>
      <point x="1686" y="888.127"/>
      <point x="1686" y="702" type="curve" smooth="yes"/>
      <point x="1686" y="548" type="line" smooth="yes"/>
      <point x="1686" y="262.309"/>
      <point x="1560" y="121"/>
      <point x="1300" y="121" type="curve" smooth="yes"/>
      <point x="1220" y="121"/>
      <point x="1153" y="136"/>
      <point x="1097" y="161" type="curve"/>
      <point x="1043" y="186" type="line"/>
      <point x="925" y="246"/>
      <point x="860" y="366"/>
      <point x="847" y="539" type="curve" smooth="yes"/>
      <point x="826" y="826" type="line" smooth="yes"/>
      <point x="823" y="865"/>
      <point x="820" y="898"/>
      <point x="811" y="930" type="curve"/>
      <point x="790" y="957" type="line"/>
      <point x="756" y="1112"/>
      <point x="656" y="1189"/>
      <point x="477" y="1189" type="curve" smooth="yes"/>
      <point x="241" y="1189"/>
      <point x="116" y="1050"/>
      <point x="116" y="793" type="curve" smooth="yes"/>
      <point x="116" y="562" type="line" smooth="yes"/>
      <point x="116" y="166.362"/>
      <point x="313" y="-34"/>
      <point x="700" y="-34" type="curve" smooth="yes"/>
      <point x="866" y="-34"/>
      <point x="989" y="15"/>
      <point x="1064" y="81" type="curve"/>
      <point x="1127" y="117" type="line" smooth="yes"/>
      <point x="1222" y="171"/>
      <point x="1280" y="248"/>
      <point x="1326" y="378" type="curve" smooth="yes"/>
      <point x="1373" y="510"/>
      <point x="1394" y="667"/>
      <point x="1394" y="821" type="curve" smooth="yes"/>
      <point x="1394" y="1064"/>
      <point x="1283" y="1188"/>
      <point x="1072" y="1188" type="curve" smooth="yes"/>
      <point x="916" y="1188"/>
      <point x="818" y="1115"/>
      <point x="785" y="998" type="curve"/>
      <point x="749" y="998" type="line"/>
      <point x="817" y="891" type="line"/>
      <point x="848" y="973"/>
      <point x="917" y="1026"/>
      <point x="1019" y="1026" type="curve" smooth="yes"/>
      <point x="1142" y="1026"/>
      <point x="1208" y="953"/>
      <point x="1208" y="807" type="curve" smooth="yes"/>
      <point x="1208" y="670"/>
      <point x="1189" y="520"/>
      <point x="1158" y="425" type="curve" smooth="yes"/>
      <point x="1116" y="294"/>
      <point x="1062" y="223"/>
    </contour>
  </outline>
</glyph>
<glyph name="Ra.mlm" format="2">
  <advance width="1447"/>
  <unicode hex="0D30"/>
  <outline>
    <contour>
      <point x="736" y="1029" type="curve" smooth="yes"/>
      <point x="1015" y="1029"/>
      <point x="1155" y="877.052"/>
      <point x="1155" y="639" type="curve"/>
      <point x="1155" y="639" type="line"/>
      <point x="1133" y="639" type="line"/>
      <point x="1152" y="573" type="line"/>
      <point x="1152" y="368" type="line" smooth="yes"/>
      <point x="1152" y="203.56"/>
      <point x="1092.33" y="129"/>
      <point x="973" y="129" type="curve" smooth="yes"/>
      <point x="856" y="129"/>
      <point x="792" y="199.716"/>
      <point x="792" y="335" type="curve" smooth="yes"/>
      <point x="792" y="429" type="line" smooth="yes"/>
      <point x="792" y="567.48"/>
      <point x="852" y="635"/>
      <point x="971" y="635" type="curve" smooth="yes"/>
      <point x="1051" y="635"/>
      <point x="1112" y="604.165"/>
      <point x="1156" y="551" type="curve"/>
      <point x="1159" y="609" type="line"/>
      <point x="1126" y="718.081"/>
      <point x="1034" y="786"/>
      <point x="897" y="786" type="curve" smooth="yes"/>
      <point x="712" y="786"/>
      <point x="609" y="673.597"/>
      <point x="609" y="441" type="curve" smooth="yes"/>
      <point x="609" y="334" type="line" smooth="yes"/>
      <point x="609" y="97.7275"/>
      <point x="735" y="-27"/>
      <point x="972" y="-27" type="curve" smooth="yes"/>
      <point x="1212" y="-27"/>
      <point x="1335" y="107.671"/>
      <point x="1335" y="376" type="curve" smooth="yes"/>
      <point x="1335" y="607" type="line" smooth="yes"/>
      <point x="1335" y="992.293"/>
      <point x="1132" y="1192"/>
      <point x="729" y="1192" type="curve" smooth="yes"/>
      <point x="322" y="1192"/>
      <point x="115" y="984.566"/>
      <point x="115" y="588" type="curve" smooth="yes"/>
      <point x="115" y="447" type="line" smooth="yes"/>
      <point x="115" y="267.995"/>
      <point x="153" y="106.38"/>
      <point x="227" y="0" type="curve"/>
      <point x="424" y="0" type="line"/>
      <point x="348" y="118.661"/>
      <point x="303" y="268.009"/>
      <point x="303" y="446" type="curve" smooth="yes"/>
      <point x="303" y="584" type="line" smooth="yes"/>
      <point x="303" y="879.644"/>
      <point x="448" y="1029"/>
    </contour>
  </outline>
</glyph>
<glyph name="Rra.mlm" format="2">
  <advance width="1239"/>
  <unicode hex="0D31"/>
  <outline>
    <contour>
      <point x="619" y="1025" type="curve" smooth="yes"/>
      <point x="829" y="1025"/>
      <point x="935" y="904.695"/>
      <point x="935" y="661" type="curve" smooth="yes"/>
      <point x="935" y="465" type="line" smooth="yes"/>
      <point x="935" y="275.934"/>
      <point x="878.875" y="117.527"/>
      <point x="804" y="0" type="curve"/>
      <point x="1002" y="0" type="line"/>
      <point x="1078.79" y="107.288"/>
      <point x="1123" y="273.839"/>
      <point x="1123" y="469" type="curve" smooth="yes"/>
      <point x="1123" y="662" type="line" smooth="yes"/>
      <point x="1123" y="1013.63"/>
      <point x="952" y="1192"/>
      <point x="619" y="1192" type="curve" smooth="yes"/>
      <point x="286" y="1192"/>
      <point x="116" y="1013.63"/>
      <point x="116" y="662" type="curve" smooth="yes"/>
      <point x="116" y="469" type="line" smooth="yes"/>
      <point x="116" y="273.839"/>
      <point x="160.214" y="107.288"/>
      <point x="237" y="0" type="curve"/>
      <point x="435" y="0" type="line"/>
      <point x="360.125" y="117.527"/>
      <point x="304" y="275.934"/>
      <point x="304" y="465" type="curve" smooth="yes"/>
      <point x="304" y="661" type="line" smooth="yes"/>
      <point x="304" y="904.695"/>
      <point x="409" y="1025"/>
    </contour>
  </outline>
</glyph>
<glyph name="Lla.mlm" format="2">
  <advance width="1438"/>
  <unicode hex="0D33"/>
  <outline>
    <contour>
      <point x="402" y="-361" type="curve" smooth="yes"/>
      <point x="1302" y="-361" type="line"/>
      <point x="1327" y="-213" type="line"/>
      <point x="420" y="-213" type="line" smooth="yes"/>
      <point x="337" y="-213"/>
      <point x="294" y="-178"/>
      <point x="294" y="-106" type="curve" smooth="yes"/>
      <point x="294" y="-35"/>
      <point x="337" y="0"/>
      <point x="420" y="0" type="curve" smooth="yes"/>
      <point x="977" y="0" type="line" smooth="yes"/>
      <point x="1220.39" y="0"/>
      <point x="1336" y="100.707"/>
      <point x="1336" y="295" type="curve" smooth="yes"/>
      <point x="1336" y="304" type="line" smooth="yes"/>
      <point x="1336" y="462.966"/>
      <point x="1259" y="550.601"/>
      <point x="1097" y="572" type="curve"/>
      <point x="1097" y="577" type="line"/>
      <point x="1248" y="599.359"/>
      <point x="1320" y="680.665"/>
      <point x="1320" y="826" type="curve" smooth="yes"/>
      <point x="1320" y="835" type="line" smooth="yes"/>
      <point x="1320" y="1070.64"/>
      <point x="1132" y="1192"/>
      <point x="750" y="1192" type="curve" smooth="yes"/>
      <point x="347.686" y="1192"/>
      <point x="110" y="1032.57"/>
      <point x="110" y="657" type="curve" smooth="yes"/>
      <point x="110" y="567" type="line" smooth="yes"/>
      <point x="110" y="340.711"/>
      <point x="218" y="223"/>
      <point x="440" y="223" type="curve" smooth="yes"/>
      <point x="660" y="223"/>
      <point x="762" y="329.78"/>
      <point x="762" y="523" type="curve" smooth="yes"/>
      <point x="762" y="582" type="line" smooth="yes"/>
      <point x="762" y="770.246"/>
      <point x="677" y="872"/>
      <point x="512" y="872" type="curve" smooth="yes"/>
      <point x="381" y="872"/>
      <point x="299" y="805.298"/>
      <point x="276" y="676" type="curve"/>
      <point x="283" y="612" type="line"/>
      <point x="310" y="685.125"/>
      <point x="368" y="729"/>
      <point x="446" y="729" type="curve" smooth="yes"/>
      <point x="537" y="729"/>
      <point x="586" y="672.237"/>
      <point x="586" y="568" type="curve" smooth="yes"/>
      <point x="586" y="528" type="line" smooth="yes"/>
      <point x="586" y="422.752"/>
      <point x="536" y="366"/>
      <point x="441" y="366" type="curve" smooth="yes"/>
      <point x="338" y="366"/>
      <point x="285" y="427.639"/>
      <point x="285" y="554" type="curve" smooth="yes"/>
      <point x="285" y="651" type="line"/>
      <point x="299" y="725" type="line"/>
      <point x="282" y="725" type="line"/>
      <point x="282" y="725" type="line"/>
      <point x="282" y="862.22"/>
      <point x="399" y="1034"/>
      <point x="751" y="1034" type="curve" smooth="yes"/>
      <point x="1010" y="1034"/>
      <point x="1132" y="960.648"/>
      <point x="1132" y="817" type="curve" smooth="yes"/>
      <point x="1132" y="812" type="line" smooth="yes"/>
      <point x="1132" y="708.359"/>
      <point x="1076.01" y="659.801"/>
      <point x="956" y="655" type="curve" smooth="yes"/>
      <point x="881" y="652" type="line"/>
      <point x="881" y="499" type="line"/>
      <point x="957" y="496" type="line" smooth="yes"/>
      <point x="1087" y="490.868"/>
      <point x="1148" y="438.343"/>
      <point x="1148" y="322" type="curve" smooth="yes"/>
      <point x="1148" y="317" type="line" smooth="yes"/>
      <point x="1148" y="203.667"/>
      <point x="1081.4" y="147"/>
      <point x="940" y="147" type="curve" smooth="yes"/>
      <point x="402" y="147" type="line" smooth="yes"/>
      <point x="206" y="147"/>
      <point x="107" y="60"/>
      <point x="107" y="-106" type="curve" smooth="yes"/>
      <point x="107" y="-273"/>
      <point x="206" y="-361"/>
    </contour>
  </outline>
</glyph>
<glyph name="Zha.mlm" format="2">
  <advance width="1363"/>
  <unicode hex="0D34"/>
  <outline>
    <contour>
      <point x="749" y="810" type="curve" smooth="yes"/>
      <point x="749" y="832" type="line" smooth="yes"/>
      <point x="749" y="962.561"/>
      <point x="806" y="1031"/>
      <point x="916" y="1031" type="curve" smooth="yes"/>
      <point x="1030" y="1031"/>
      <point x="1088" y="964.667"/>
      <point x="1088" y="832" type="curve" smooth="yes"/>
      <point x="1088" y="785" type="line" smooth="yes"/>
      <point x="1088" y="578.421"/>
      <point x="962" y="471"/>
      <point x="693" y="471" type="curve" smooth="yes"/>
      <point x="411" y="471"/>
      <point x="281" y="582.273"/>
      <point x="281" y="811" type="curve" smooth="yes"/>
      <point x="281" y="842" type="line" smooth="yes"/>
      <point x="281" y="969.128"/>
      <point x="308" y="1073.52"/>
      <point x="353" y="1150" type="curve"/>
      <point x="168" y="1150" type="line"/>
      <point x="121" y="1075.62"/>
      <point x="95" y="968.172"/>
      <point x="95" y="838" type="curve" smooth="yes"/>
      <point x="95" y="806" type="line" smooth="yes"/>
      <point x="95" y="482.368"/>
      <point x="295" y="318"/>
      <point x="692" y="318" type="curve" smooth="yes"/>
      <point x="1078" y="318"/>
      <point x="1274" y="480.472"/>
      <point x="1274" y="786" type="curve" smooth="yes"/>
      <point x="1274" y="836" type="line" smooth="yes"/>
      <point x="1274" y="1068.57"/>
      <point x="1156" y="1190"/>
      <point x="917" y="1190" type="curve" smooth="yes"/>
      <point x="683" y="1190"/>
      <point x="564" y="1069.56"/>
      <point x="564" y="840" type="curve" smooth="yes"/>
      <point x="564" y="812" type="line" smooth="yes"/>
      <point x="564" y="654.797"/>
      <point x="616" y="547.94"/>
      <point x="686" y="438" type="curve"/>
      <point x="714" y="368" type="line"/>
      <point x="737" y="321"/>
      <point x="749" y="278"/>
      <point x="749" y="231" type="curve" smooth="yes"/>
      <point x="749" y="147"/>
      <point x="692" y="103"/>
      <point x="567" y="103" type="curve" smooth="yes"/>
      <point x="494" y="103"/>
      <point x="422" y="115"/>
      <point x="351" y="140" type="curve"/>
      <point x="380" y="-16" type="line"/>
      <point x="449" y="-42"/>
      <point x="525" y="-52"/>
      <point x="602" y="-52" type="curve" smooth="yes"/>
      <point x="825" y="-52"/>
      <point x="933" y="36"/>
      <point x="933" y="208" type="curve" smooth="yes"/>
      <point x="933" y="267"/>
      <point x="920" y="320"/>
      <point x="891" y="377" type="curve"/>
      <point x="862" y="445" type="line"/>
      <point x="800" y="557.07"/>
      <point x="749" y="668.113"/>
    </contour>
  </outline>
</glyph>
<glyph name="Ha.mlm" format="2">
  <advance width="2238"/>
  <unicode hex="0D39"/>
  <outline>
    <contour>
      <point x="499" y="781" type="curve" smooth="yes"/>
      <point x="236" y="781"/>
      <point x="103" y="643.948"/>
      <point x="103" y="371" type="curve" smooth="yes"/>
      <point x="103" y="304" type="line" smooth="yes"/>
      <point x="103" y="178.943"/>
      <point x="127" y="72.1873"/>
      <point x="176" y="0" type="curve"/>
      <point x="365" y="0" type="line"/>
      <point x="318" y="78.2876"/>
      <point x="289" y="178.943"/>
      <point x="289" y="304" type="curve" smooth="yes"/>
      <point x="289" y="368" type="line" smooth="yes"/>
      <point x="289" y="535.975"/>
      <point x="358" y="618"/>
      <point x="498" y="618" type="curve" smooth="yes"/>
      <point x="640" y="618"/>
      <point x="710" y="535.975"/>
      <point x="710" y="368" type="curve" smooth="yes"/>
      <point x="710" y="304" type="line" smooth="yes"/>
      <point x="710" y="184.969"/>
      <point x="680" y="87.3021"/>
      <point x="628" y="11" type="curve"/>
      <point x="628" y="0" type="line"/>
      <point x="771" y="0" type="line"/>
      <point x="852.693" y="77.2338"/>
      <point x="896" y="178.857"/>
      <point x="896" y="313" type="curve" smooth="yes"/>
      <point x="896" y="386" type="line" smooth="yes"/>
      <point x="896" y="648.946"/>
      <point x="764" y="781"/>
    </contour>
    <contour>
      <point x="813" y="149" type="line"/>
      <point x="633" y="0" type="line"/>
      <point x="1475" y="0" type="line"/>
      <point x="1322" y="149" type="line"/>
    </contour>
    <contour>
      <point x="1640" y="1025" type="curve" smooth="yes"/>
      <point x="1836" y="1025"/>
      <point x="1934" y="910.706"/>
      <point x="1934" y="678" type="curve" smooth="yes"/>
      <point x="1934" y="460" type="line" smooth="yes"/>
      <point x="1934" y="272.933"/>
      <point x="1879.84" y="115.511"/>
      <point x="1806" y="0" type="curve"/>
      <point x="2003" y="0" type="line"/>
      <point x="2078.77" y="108.34"/>
      <point x="2122" y="269.828"/>
      <point x="2122" y="463" type="curve" smooth="yes"/>
      <point x="2122" y="680" type="line" smooth="yes"/>
      <point x="2122" y="1019.63"/>
      <point x="1959" y="1192"/>
      <point x="1641" y="1192" type="curve" smooth="yes"/>
      <point x="1322" y="1192"/>
      <point x="1159" y="1019.59"/>
      <point x="1159" y="687" type="curve" smooth="yes"/>
      <point x="1159" y="464" type="line" smooth="yes"/>
      <point x="1159" y="267.771"/>
      <point x="1201.07" y="116.511"/>
      <point x="1312" y="0" type="curve"/>
      <point x="1475" y="0" type="line"/>
      <point x="1475" y="11" type="line"/>
      <point x="1401.16" y="125.551"/>
      <point x="1347" y="277.945"/>
      <point x="1347" y="460" type="curve" smooth="yes"/>
      <point x="1347" y="678" type="line" smooth="yes"/>
      <point x="1347" y="910.706"/>
      <point x="1445" y="1025"/>
    </contour>
  </outline>
</glyph>
<glyph name="Ttta.mlm" format="2">
  <advance width="1339"/>
  <unicode hex="0D3A"/>
  <outline>
    <contour>
      <point x="146" y="1156" type="line"/>
      <point x="146" y="0" type="line"/>
      <point x="333" y="0" type="line"/>
      <point x="333" y="1156" type="line"/>
    </contour>
    <contour>
      <point x="1292" y="151" type="line"/>
      <point x="267" y="151" type="line"/>
      <point x="267" y="0" type="line"/>
      <point x="1268" y="0" type="line"/>
    </contour>
    <contour>
      <point x="809" y="88" type="line"/>
      <point x="639" y="88" type="line"/>
      <point x="639" y="-312" type="line"/>
      <point x="809" y="-312" type="line"/>
    </contour>
  </outline>
</glyph>
<glyph name="verticalbarviramasign.mlm" format="2">
  <unicode hex="0D3B"/>
  <outline>
    <contour>
      <point x="-689" y="1701" type="line"/>
      <point x="-689" y="1288" type="line"/>
      <point x="-521" y="1288" type="line"/>
      <point x="-521" y="1701" type="line"/>
    </contour>
  </outline>
</glyph>
<glyph name="circularviramasign.mlm" format="2">
  <unicode hex="0D3C"/>
  <outline>
    <contour>
      <point x="-292" y="1438" type="line" smooth="yes"/>
      <point x="-292" y="1274"/>
      <point x="-192" y="1185"/>
      <point x="-6" y="1185" type="curve" smooth="yes"/>
      <point x="181" y="1185"/>
      <point x="282" y="1274"/>
      <point x="282" y="1438" type="curve" smooth="yes"/>
      <point x="282" y="1447" type="line" smooth="yes"/>
      <point x="282" y="1612"/>
      <point x="181" y="1700"/>
      <point x="-6" y="1700" type="curve" smooth="yes"/>
      <point x="-192" y="1700"/>
      <point x="-292" y="1612"/>
      <point x="-292" y="1447" type="curve" smooth="yes"/>
    </contour>
    <contour>
      <point x="126" y="1438" type="line" smooth="yes"/>
      <point x="126" y="1359.5"/>
      <point x="78.7883" y="1316"/>
      <point x="-6" y="1316" type="curve" smooth="yes"/>
      <point x="-90.7407" y="1316"/>
      <point x="-136" y="1359.5"/>
      <point x="-136" y="1438" type="curve" smooth="yes"/>
      <point x="-136" y="1447" type="line" smooth="yes"/>
      <point x="-136" y="1525.5"/>
      <point x="-90.7407" y="1569"/>
      <point x="-6" y="1569" type="curve" smooth="yes"/>
      <point x="78.7883" y="1569"/>
      <point x="126" y="1525.5"/>
      <point x="126" y="1447" type="curve" smooth="yes"/>
    </contour>
  </outline>
</glyph>
<glyph name="Praslesham.mlm" format="2">
  <advance width="672"/>
  <unicode hex="0D3D"/>
  <outline>
    <contour>
      <point x="394" y="-41" type="curve" smooth="yes"/>
      <point x="465" y="1125" type="line" smooth="yes"/>
      <point x="475" y="1293"/>
      <point x="527" y="1368"/>
      <point x="658" y="1368" type="curve" smooth="yes"/>
      <point x="711" y="1368"/>
      <point x="767" y="1355"/>
      <point x="811" y="1335" type="curve"/>
      <point x="785" y="1491" type="line"/>
      <point x="745" y="1512"/>
      <point x="684" y="1526"/>
      <point x="619" y="1526" type="curve" smooth="yes"/>
      <point x="391" y="1526"/>
      <point x="298" y="1390"/>
      <point x="282" y="1129" type="curve" smooth="yes"/>
      <point x="210" y="-37" type="line" smooth="yes"/>
      <point x="199" y="-210"/>
      <point x="142" y="-287"/>
      <point x="1" y="-287" type="curve" smooth="yes"/>
      <point x="-60" y="-287"/>
      <point x="-123" y="-273"/>
      <point x="-174" y="-251" type="curve"/>
      <point x="-148" y="-408" type="line"/>
      <point x="-99" y="-432"/>
      <point x="-33" y="-445"/>
      <point x="40" y="-445" type="curve" smooth="yes"/>
      <point x="278" y="-445"/>
      <point x="378" y="-306"/>
    </contour>
  </outline>
</glyph>
<glyph name="matraA.mlm" format="2">
  <advance width="880"/>
  <unicode hex="0D3E"/>
  <outline>
    <contour>
      <point x="325" y="135" type="curve" smooth="yes"/>
      <point x="224" y="135"/>
      <point x="137" y="164"/>
      <point x="64" y="213" type="curve"/>
      <point x="83" y="37" type="line"/>
      <point x="154" y="-7"/>
      <point x="242" y="-32"/>
      <point x="355" y="-32" type="curve" smooth="yes"/>
      <point x="631" y="-32"/>
      <point x="764" y="127"/>
      <point x="764" y="448" type="curve" smooth="yes"/>
      <point x="764" y="708" type="line" smooth="yes"/>
      <point x="764" y="1032"/>
      <point x="628" y="1189"/>
      <point x="348" y="1189" type="curve" smooth="yes"/>
      <point x="242" y="1189"/>
      <point x="153" y="1163"/>
      <point x="86" y="1124" type="curve"/>
      <point x="67" y="955" type="line"/>
      <point x="139" y="998"/>
      <point x="220" y="1023"/>
      <point x="315" y="1023" type="curve" smooth="yes"/>
      <point x="492" y="1023"/>
      <point x="576" y="919"/>
      <point x="576" y="702" type="curve" smooth="yes"/>
      <point x="576" y="454" type="line" smooth="yes"/>
      <point x="576" y="239"/>
      <point x="493" y="135"/>
    </contour>
  </outline>
</glyph>
<glyph name="matraI.mlm" format="2">
  <advance width="505"/>
  <unicode hex="0D3F"/>
  <outline>
    <contour>
      <point x="359" y="0" type="line"/>
      <point x="359" y="1128" type="line" smooth="yes"/>
      <point x="359" y="1448.02"/>
      <point x="221.3" y="1607"/>
      <point x="-63" y="1607" type="curve" smooth="yes"/>
      <point x="-200" y="1607"/>
      <point x="-321.687" y="1568.64"/>
      <point x="-413" y="1511" type="curve"/>
      <point x="-440" y="1327" type="line"/>
      <point x="-325.175" y="1401.28"/>
      <point x="-193.64" y="1446"/>
      <point x="-85" y="1446" type="curve" smooth="yes"/>
      <point x="95.3573" y="1446"/>
      <point x="172" y="1351.43"/>
      <point x="172" y="1128" type="curve" smooth="yes"/>
      <point x="172" y="0" type="line"/>
    </contour>
  </outline>
</glyph>
<glyph name="matraIi.mlm" format="2">
  <advance width="512"/>
  <unicode hex="0D40"/>
  <outline>
    <contour>
      <point x="-314" y="1372" type="line" smooth="yes"/>
      <point x="-314" y="1201.43"/>
      <point x="-211.786" y="1107"/>
      <point x="-37" y="1107" type="curve" smooth="yes"/>
      <point x="73.8479" y="1107"/>
      <point x="143.857" y="1150.65"/>
      <point x="174" y="1233" type="curve"/>
      <point x="194" y="1233" type="line"/>
      <point x="190" y="1331" type="line"/>
      <point x="152" y="1278"/>
      <point x="89" y="1245"/>
      <point x="8" y="1245" type="curve" smooth="yes"/>
      <point x="-88" y="1245"/>
      <point x="-140" y="1292"/>
      <point x="-140" y="1380" type="curve" smooth="yes"/>
      <point x="-140" y="1395" type="line" smooth="yes"/>
      <point x="-140" y="1492"/>
      <point x="-84" y="1542"/>
      <point x="17" y="1542" type="curve" smooth="yes"/>
      <point x="125" y="1542"/>
      <point x="182" y="1484"/>
      <point x="182" y="1375" type="curve" smooth="yes"/>
      <point x="182" y="1298" type="line"/>
      <point x="179" y="1277" type="line"/>
      <point x="179" y="0" type="line"/>
      <point x="366" y="0" type="line"/>
      <point x="366" y="1355" type="line" smooth="yes"/>
      <point x="366" y="1574"/>
      <point x="243" y="1690"/>
      <point x="16" y="1690" type="curve" smooth="yes"/>
      <point x="-198" y="1690"/>
      <point x="-314" y="1585"/>
      <point x="-314" y="1389" type="curve" smooth="yes"/>
    </contour>
  </outline>
</glyph>
<glyph name="matrashortE.mlm" format="2">
  <advance width="1442"/>
  <unicode hex="0D46"/>
  <outline>
    <contour>
      <point x="714" y="1029" type="curve" smooth="yes"/>
      <point x="999" y="1029"/>
      <point x="1140" y="886"/>
      <point x="1140" y="594" type="curve" smooth="yes"/>
      <point x="1140" y="445" type="line" smooth="yes"/>
      <point x="1140" y="265"/>
      <point x="1098" y="117"/>
      <point x="1020" y="0" type="curve"/>
      <point x="1216" y="0" type="line"/>
      <point x="1290" y="106"/>
      <point x="1328" y="267"/>
      <point x="1328" y="453" type="curve" smooth="yes"/>
      <point x="1328" y="605" type="line" smooth="yes"/>
      <point x="1328" y="993"/>
      <point x="1125" y="1192"/>
      <point x="718" y="1192" type="curve" smooth="yes"/>
      <point x="312" y="1192"/>
      <point x="112" y="987"/>
      <point x="112" y="591" type="curve" smooth="yes"/>
      <point x="112" y="373" type="line" smooth="yes"/>
      <point x="112" y="106"/>
      <point x="238" y="-27"/>
      <point x="480" y="-27" type="curve" smooth="yes"/>
      <point x="716" y="-27"/>
      <point x="837" y="94"/>
      <point x="837" y="326" type="curve" smooth="yes"/>
      <point x="837" y="439" type="line" smooth="yes"/>
      <point x="837" y="657"/>
      <point x="739" y="763"/>
      <point x="562" y="763" type="curve" smooth="yes"/>
      <point x="406" y="763"/>
      <point x="311" y="685"/>
      <point x="283" y="542" type="curve"/>
      <point x="291" y="480" type="line"/>
      <point x="326.544" y="564.491"/>
      <point x="392.555" y="607"/>
      <point x="486" y="607" type="curve" smooth="yes"/>
      <point x="596" y="607"/>
      <point x="654" y="544"/>
      <point x="654" y="422" type="curve" smooth="yes"/>
      <point x="654" y="327" type="line" smooth="yes"/>
      <point x="654" y="194"/>
      <point x="594" y="129"/>
      <point x="480" y="129" type="curve" smooth="yes"/>
      <point x="357" y="129"/>
      <point x="295" y="198"/>
      <point x="295" y="360" type="curve" smooth="yes"/>
      <point x="295" y="513" type="line"/>
      <point x="295.765" y="517.152"/>
      <point x="308.322" y="585.319"/>
      <point x="309" y="589" type="curve"/>
      <point x="308.027" y="589"/>
      <point x="290.091" y="589"/>
      <point x="289" y="589" type="curve"/>
      <point x="289" y="591" type="line"/>
      <point x="289" y="886"/>
      <point x="431" y="1029"/>
    </contour>
  </outline>
</glyph>
<glyph name="Virama.mlm" format="2">
  <unicode hex="0D4D"/>
  <outline>
    <contour>
      <point x="-254" y="1424" type="curve" smooth="yes"/>
      <point x="-379.388" y="1424"/>
      <point x="-446" y="1497.29"/>
      <point x="-446" y="1616" type="curve" smooth="yes"/>
      <point x="-446" y="1645" type="line"/>
      <point x="-613" y="1645" type="line"/>
      <point x="-613" y="1613" type="line" smooth="yes"/>
      <point x="-613" y="1405.78"/>
      <point x="-493" y="1280"/>
      <point x="-255" y="1280" type="curve" smooth="yes"/>
      <point x="-16" y="1280"/>
      <point x="105" y="1405.78"/>
      <point x="105" y="1613" type="curve" smooth="yes"/>
      <point x="105" y="1645" type="line"/>
      <point x="-62" y="1645" type="line"/>
      <point x="-62" y="1616" type="line" smooth="yes"/>
      <point x="-62" y="1496.26"/>
      <point x="-127.969" y="1424"/>
    </contour>
  </outline>
</glyph>
<glyph name="parasign.mlm" format="2">
  <advance width="2537"/>
  <unicode hex="0D4F"/>
  <outline>
    <contour>
      <point x="304" y="430" type="curve" smooth="yes"/>
      <point x="304" y="514" type="line" smooth="yes"/>
      <point x="304" y="784.209"/>
      <point x="379.622" y="989.405"/>
      <point x="516" y="1156" type="curve"/>
      <point x="316" y="1156" type="line"/>
      <point x="184.476" y="1002.61"/>
      <point x="116" y="786.25"/>
      <point x="116" y="513" type="curve" smooth="yes"/>
      <point x="116" y="429" type="line" smooth="yes"/>
      <point x="116" y="-157.636"/>
      <point x="471" y="-455"/>
      <point x="1275" y="-455" type="curve" smooth="yes"/>
      <point x="2070" y="-455"/>
      <point x="2421" y="-161.705"/>
      <point x="2421" y="435" type="curve" smooth="yes"/>
      <point x="2421" y="667" type="line" smooth="yes"/>
      <point x="2421" y="1013.64"/>
      <point x="2283" y="1189"/>
      <point x="1998" y="1189" type="curve" smooth="yes"/>
      <point x="1792" y="1189"/>
      <point x="1671" y="1095"/>
      <point x="1646" y="916" type="curve"/>
      <point x="1597" y="916" type="line"/>
      <point x="1597" y="560" type="line"/>
      <point x="1740" y="555" type="line"/>
      <point x="1740" y="746" type="line" smooth="yes"/>
      <point x="1740" y="928"/>
      <point x="1816" y="1019"/>
      <point x="1972" y="1019" type="curve" smooth="yes"/>
      <point x="2148" y="1019"/>
      <point x="2233" y="902.686"/>
      <point x="2233" y="668" type="curve" smooth="yes"/>
      <point x="2233" y="435" type="line" smooth="yes"/>
      <point x="2233" y="-55.7316"/>
      <point x="1944" y="-294"/>
      <point x="1275" y="-294" type="curve" smooth="yes"/>
      <point x="601" y="-294"/>
      <point x="304" y="-55.7087"/>
    </contour>
    <contour>
      <point x="1553" y="5" type="line"/>
      <point x="1740" y="5" type="line"/>
      <point x="1740" y="683" type="line"/>
      <point x="1553" y="648" type="line"/>
    </contour>
    <contour>
      <point x="1161" y="1189" type="curve" smooth="yes"/>
      <point x="778" y="1189"/>
      <point x="587" y="979.487"/>
      <point x="587" y="581" type="curve" smooth="yes"/>
      <point x="587" y="381" type="line" smooth="yes"/>
      <point x="587" y="108.317"/>
      <point x="712" y="-27"/>
      <point x="953" y="-27" type="curve" smooth="yes"/>
      <point x="1187" y="-27"/>
      <point x="1308" y="96.4188"/>
      <point x="1308" y="334" type="curve" smooth="yes"/>
      <point x="1308" y="431" type="line" smooth="yes"/>
      <point x="1308" y="653.708"/>
      <point x="1211" y="763"/>
      <point x="1037" y="763" type="curve" smooth="yes"/>
      <point x="881" y="763"/>
      <point x="786" y="685"/>
      <point x="758" y="542" type="curve"/>
      <point x="766" y="480" type="line"/>
      <point x="801.18" y="564.491"/>
      <point x="866.513" y="607"/>
      <point x="959" y="607" type="curve" smooth="yes"/>
      <point x="1068" y="607"/>
      <point x="1125" y="541.612"/>
      <point x="1125" y="414" type="curve" smooth="yes"/>
      <point x="1125" y="335" type="line" smooth="yes"/>
      <point x="1125" y="196.265"/>
      <point x="1066" y="129"/>
      <point x="953" y="129" type="curve" smooth="yes"/>
      <point x="831" y="129"/>
      <point x="770" y="201.013"/>
      <point x="770" y="368" type="curve" smooth="yes"/>
      <point x="770" y="513" type="line"/>
      <point x="784" y="589" type="line"/>
      <point x="764" y="589" type="line"/>
      <point x="764" y="591" type="line"/>
      <point x="764" y="882.014"/>
      <point x="901" y="1026"/>
      <point x="1170" y="1026" type="curve" smooth="yes"/>
      <point x="1425" y="1026"/>
      <point x="1553" y="913"/>
      <point x="1553" y="696" type="curve" smooth="yes"/>
      <point x="1553" y="581" type="line"/>
      <point x="1642" y="581" type="line"/>
      <point x="1641" y="916" type="line"/>
      <point x="1597" y="1092"/>
      <point x="1435" y="1189"/>
    </contour>
  </outline>
</glyph>
<glyph name="chilluM.mlm" format="2">
  <advance width="1415"/>
  <unicode hex="0D54"/>
  <outline>
    <contour>
      <point x="229" y="145" type="line"/>
      <point x="157" y="0" type="line"/>
      <point x="1254" y="0" type="line"/>
      <point x="1221" y="145" type="line"/>
    </contour>
    <contour>
      <point x="1279" y="617" type="line" smooth="yes"/>
      <point x="1279" y="955.394"/>
      <point x="1161" y="1041.01"/>
      <point x="1161" y="1305" type="curve" smooth="yes"/>
      <point x="1161" y="1384.76"/>
      <point x="1173" y="1457.37"/>
      <point x="1199" y="1531" type="curve"/>
      <point x="1031" y="1531" type="line"/>
      <point x="1006" y="1465.48"/>
      <point x="990" y="1394.83"/>
      <point x="990" y="1316" type="curve" smooth="yes"/>
      <point x="990" y="1224.72"/>
      <point x="1014" y="1151.9"/>
      <point x="1059" y="1076" type="curve"/>
      <point x="1055" y="1070" type="line"/>
      <point x="979" y="1153.04"/>
      <point x="862" y="1192"/>
      <point x="697" y="1192" type="curve" smooth="yes"/>
      <point x="327" y="1192"/>
      <point x="137" y="997.613"/>
      <point x="137" y="618" type="curve" smooth="yes"/>
      <point x="137" y="0" type="line"/>
      <point x="318" y="0" type="line"/>
      <point x="318" y="617" type="line" smooth="yes"/>
      <point x="318" y="904.887"/>
      <point x="439" y="1035"/>
      <point x="708" y="1035" type="curve" smooth="yes"/>
      <point x="966" y="1035"/>
      <point x="1096" y="904.88"/>
      <point x="1096" y="618" type="curve" smooth="yes"/>
      <point x="1096" y="0" type="line"/>
      <point x="1279" y="0" type="line"/>
    </contour>
    <contour>
      <point x="846" y="652" type="line" smooth="yes"/>
      <point x="846" y="878"/>
      <point x="732.598" y="1005"/>
      <point x="525" y="1005" type="curve" smooth="yes"/>
      <point x="486.185" y="1005"/>
      <point x="439.284" y="1000"/>
      <point x="394" y="980" type="curve"/>
      <point x="345" y="868" type="line"/>
      <point x="383.246" y="888.6"/>
      <point x="423.231" y="895"/>
      <point x="458" y="895" type="curve" smooth="yes"/>
      <point x="594.13" y="895"/>
      <point x="660" y="805.741"/>
      <point x="660" y="654" type="curve" smooth="yes"/>
      <point x="660" y="631" type="line" smooth="yes"/>
      <point x="660" y="422"/>
      <point x="561" y="253"/>
      <point x="406" y="139" type="curve"/>
      <point x="571" y="106" type="line"/>
      <point x="742" y="215"/>
      <point x="846" y="402"/>
      <point x="846" y="628" type="curve" smooth="yes"/>
    </contour>
  </outline>
</glyph>
<glyph name="chilluY.mlm" format="2">
  <advance width="1967"/>
  <unicode hex="0D55"/>
  <outline>
    <contour>
      <point x="660" y="546" type="line" smooth="yes"/>
      <point x="675" y="340"/>
      <point x="754" y="197"/>
      <point x="902" y="117" type="curve"/>
      <point x="963" y="81" type="line"/>
      <point x="1038" y="15"/>
      <point x="1160" y="-34"/>
      <point x="1326" y="-34" type="curve" smooth="yes"/>
      <point x="1684" y="-34"/>
      <point x="1861" y="137"/>
      <point x="1861" y="476" type="curve" smooth="yes"/>
      <point x="1861" y="735.089"/>
      <point x="1758" y="958.025"/>
      <point x="1758" y="1190" type="curve" smooth="yes"/>
      <point x="1758" y="1312.8"/>
      <point x="1778" y="1419.36"/>
      <point x="1823" y="1531" type="curve"/>
      <point x="1641" y="1531" type="line"/>
      <point x="1595" y="1426.49"/>
      <point x="1571" y="1316.92"/>
      <point x="1571" y="1184" type="curve" smooth="yes"/>
      <point x="1571" y="938.954"/>
      <point x="1673" y="717.007"/>
      <point x="1673" y="481" type="curve" smooth="yes"/>
      <point x="1673" y="238"/>
      <point x="1551" y="121"/>
      <point x="1300" y="121" type="curve" smooth="yes"/>
      <point x="1220" y="121"/>
      <point x="1153" y="136"/>
      <point x="1097" y="161" type="curve" smooth="yes"/>
      <point x="1043" y="186" type="line"/>
      <point x="925" y="246"/>
      <point x="860" y="366"/>
      <point x="847" y="539" type="curve" smooth="yes"/>
      <point x="826" y="826" type="line" smooth="yes"/>
      <point x="823" y="865"/>
      <point x="820" y="898"/>
      <point x="811" y="930" type="curve"/>
      <point x="790" y="957" type="line"/>
      <point x="756" y="1112"/>
      <point x="656" y="1189"/>
      <point x="477" y="1189" type="curve" smooth="yes"/>
      <point x="241" y="1189"/>
      <point x="116" y="1050"/>
      <point x="116" y="793" type="curve" smooth="yes"/>
      <point x="116" y="563" type="line" smooth="yes"/>
      <point x="116" y="166.698"/>
      <point x="313" y="-34"/>
      <point x="700" y="-34" type="curve" smooth="yes"/>
      <point x="866" y="-34"/>
      <point x="989" y="15"/>
      <point x="1064" y="81" type="curve"/>
      <point x="1127" y="117" type="line" smooth="yes"/>
      <point x="1222" y="171"/>
      <point x="1280" y="248"/>
      <point x="1326" y="378" type="curve" smooth="yes"/>
      <point x="1373" y="510"/>
      <point x="1394" y="667"/>
      <point x="1394" y="821" type="curve" smooth="yes"/>
      <point x="1394" y="1064"/>
      <point x="1283" y="1188"/>
      <point x="1072" y="1188" type="curve" smooth="yes"/>
      <point x="916" y="1188"/>
      <point x="818" y="1115"/>
      <point x="785" y="998" type="curve"/>
      <point x="749" y="998" type="line"/>
      <point x="817" y="891" type="line"/>
      <point x="848" y="973"/>
      <point x="917" y="1026"/>
      <point x="1019" y="1026" type="curve" smooth="yes"/>
      <point x="1142" y="1026"/>
      <point x="1208" y="953"/>
      <point x="1208" y="807" type="curve" smooth="yes"/>
      <point x="1208" y="670"/>
      <point x="1189" y="520"/>
      <point x="1158" y="425" type="curve" smooth="yes"/>
      <point x="1116" y="294"/>
      <point x="1062" y="223"/>
      <point x="987" y="186" type="curve"/>
      <point x="930" y="161" type="line" smooth="yes"/>
      <point x="872" y="136"/>
      <point x="802" y="121"/>
      <point x="718" y="121" type="curve" smooth="yes"/>
      <point x="443" y="121"/>
      <point x="303" y="267.641"/>
      <point x="303" y="564" type="curve" smooth="yes"/>
      <point x="303" y="797" type="line" smooth="yes"/>
      <point x="303" y="949"/>
      <point x="362" y="1027"/>
      <point x="477" y="1027" type="curve" smooth="yes"/>
      <point x="585" y="1027"/>
      <point x="630" y="959"/>
      <point x="640" y="819" type="curve" smooth="yes"/>
    </contour>
  </outline>
</glyph>
<glyph name="oneonehundredandsixtieth.mlm" format="2">
  <advance width="2352"/>
  <unicode hex="0D58"/>
  <outline>
    <contour>
      <point x="767" y="485" type="line"/>
      <point x="954" y="482" type="line"/>
      <point x="954" y="1146" type="line"/>
      <point x="767" y="1146" type="line"/>
    </contour>
    <contour>
      <point x="859" y="225" type="curve"/>
      <point x="869" y="611" type="line"/>
      <point x="767" y="608" type="line"/>
      <point x="767" y="412" type="line" smooth="yes"/>
      <point x="767" y="231"/>
      <point x="695" y="143"/>
      <point x="545" y="143" type="curve" smooth="yes"/>
      <point x="381" y="143"/>
      <point x="304" y="245.311"/>
      <point x="304" y="452" type="curve" smooth="yes"/>
      <point x="304" y="672" type="line" smooth="yes"/>
      <point x="304" y="869.098"/>
      <point x="363.163" y="1031.47"/>
      <point x="446" y="1153" type="curve"/>
      <point x="255" y="1153" type="line"/>
      <point x="165.264" y="1036.59"/>
      <point x="116" y="870.156"/>
      <point x="116" y="669" type="curve" smooth="yes"/>
      <point x="116" y="450" type="line" smooth="yes"/>
      <point x="116" y="131.333"/>
      <point x="248" y="-28"/>
      <point x="519" y="-28" type="curve" smooth="yes"/>
      <point x="723" y="-28"/>
      <point x="834" y="66"/>
    </contour>
    <contour>
      <point x="1171" y="-28" type="curve" smooth="yes"/>
      <point x="1353" y="-28"/>
      <point x="1456" y="67"/>
      <point x="1478" y="225" type="curve"/>
      <point x="1529" y="225" type="line"/>
      <point x="1532" y="589" type="line"/>
      <point x="1387" y="610" type="line"/>
      <point x="1387" y="407" type="line" smooth="yes"/>
      <point x="1387" y="230"/>
      <point x="1316" y="143"/>
      <point x="1171" y="143" type="curve" smooth="yes"/>
      <point x="1027" y="143"/>
      <point x="956" y="230"/>
      <point x="955" y="407" type="curve" smooth="yes"/>
      <point x="954" y="610" type="line"/>
      <point x="810" y="589" type="line"/>
      <point x="814" y="225" type="line"/>
      <point x="864" y="225" type="line"/>
      <point x="886" y="67"/>
      <point x="990" y="-28"/>
    </contour>
    <contour>
      <point x="1574" y="485" type="line"/>
      <point x="1574" y="1146" type="line"/>
      <point x="1387" y="1146" type="line"/>
      <point x="1387" y="482" type="line"/>
    </contour>
    <contour>
      <point x="2048" y="481" type="line" smooth="yes"/>
      <point x="2048" y="254.293"/>
      <point x="1969" y="143"/>
      <point x="1799" y="143" type="curve" smooth="yes"/>
      <point x="1648" y="143"/>
      <point x="1574" y="231"/>
      <point x="1574" y="412" type="curve" smooth="yes"/>
      <point x="1574" y="608" type="line"/>
      <point x="1479" y="608" type="line"/>
      <point x="1483" y="225" type="line"/>
      <point x="1509" y="66"/>
      <point x="1621" y="-28"/>
      <point x="1824" y="-28" type="curve" smooth="yes"/>
      <point x="2100" y="-28"/>
      <point x="2236" y="140.347"/>
      <point x="2236" y="475" type="curve" smooth="yes"/>
      <point x="2236" y="735" type="line" smooth="yes"/>
      <point x="2236" y="1271.54"/>
      <point x="1928" y="1556"/>
      <point x="1333" y="1556" type="curve" smooth="yes"/>
      <point x="1141" y="1556"/>
      <point x="958" y="1533"/>
      <point x="797" y="1480" type="curve"/>
      <point x="756" y="1316" type="line"/>
      <point x="911" y="1365"/>
      <point x="1107" y="1398"/>
      <point x="1321" y="1398" type="curve" smooth="yes"/>
      <point x="1803" y="1398"/>
      <point x="2048" y="1178.69"/>
      <point x="2048" y="736" type="curve" smooth="yes"/>
    </contour>
  </outline>
</glyph>
<glyph name="onefortieth.mlm" format="2">
  <advance width="2133"/>
  <unicode hex="0D59"/>
  <outline>
    <contour>
      <point x="729" y="1029" type="curve" smooth="yes"/>
      <point x="997" y="1029"/>
      <point x="1128" y="882.46"/>
      <point x="1128" y="615" type="curve" smooth="yes"/>
      <point x="1128" y="359" type="line" smooth="yes"/>
      <point x="1128" y="201.578"/>
      <point x="1070" y="129"/>
      <point x="956" y="129" type="curve" smooth="yes"/>
      <point x="843" y="129"/>
      <point x="783" y="196.719"/>
      <point x="783" y="326" type="curve" smooth="yes"/>
      <point x="783" y="391" type="line" smooth="yes"/>
      <point x="783" y="520.281"/>
      <point x="841" y="588"/>
      <point x="965" y="588" type="curve" smooth="yes"/>
      <point x="1238" y="588" type="line"/>
      <point x="1261" y="735" type="line"/>
      <point x="939" y="735" type="line" smooth="yes"/>
      <point x="715" y="735"/>
      <point x="600" y="620.298"/>
      <point x="600" y="398" type="curve" smooth="yes"/>
      <point x="600" y="325" type="line" smooth="yes"/>
      <point x="600" y="94.7291"/>
      <point x="723" y="-27"/>
      <point x="955" y="-27" type="curve" smooth="yes"/>
      <point x="1190" y="-27"/>
      <point x="1311" y="104.671"/>
      <point x="1311" y="367" type="curve" smooth="yes"/>
      <point x="1311" y="594" type="line" smooth="yes"/>
      <point x="1311" y="989.616"/>
      <point x="1115" y="1192"/>
      <point x="722" y="1192" type="curve" smooth="yes"/>
      <point x="317" y="1192"/>
      <point x="115" y="984.589"/>
      <point x="115" y="584" type="curve" smooth="yes"/>
      <point x="115" y="447" type="line" smooth="yes"/>
      <point x="115" y="266.973"/>
      <point x="154" y="106.38"/>
      <point x="227" y="0" type="curve"/>
      <point x="424" y="0" type="line"/>
      <point x="348" y="117.638"/>
      <point x="303" y="268.009"/>
      <point x="303" y="446" type="curve" smooth="yes"/>
      <point x="303" y="580" type="line" smooth="yes"/>
      <point x="303" y="880.697"/>
      <point x="443" y="1029"/>
    </contour>
    <contour>
      <point x="1619" y="720" type="line"/>
      <point x="1619" y="874" type="line" smooth="yes"/>
      <point x="1619" y="981"/>
      <point x="1669" y="1031"/>
      <point x="1768" y="1031" type="curve" smooth="yes"/>
      <point x="1860" y="1031"/>
      <point x="1908" y="981"/>
      <point x="1908" y="885" type="curve" smooth="yes"/>
      <point x="1908" y="873" type="line" smooth="yes"/>
      <point x="1908" y="780"/>
      <point x="1859" y="735"/>
      <point x="1761" y="735" type="curve" smooth="yes"/>
      <point x="1228" y="735" type="line"/>
      <point x="1278" y="588" type="line"/>
      <point x="1775" y="588" type="line" smooth="yes"/>
      <point x="1979" y="588"/>
      <point x="2085" y="683"/>
      <point x="2085" y="868" type="curve" smooth="yes"/>
      <point x="2085" y="882" type="line" smooth="yes"/>
      <point x="2085" y="1078"/>
      <point x="1977" y="1183"/>
      <point x="1771" y="1183" type="curve" smooth="yes"/>
      <point x="1560" y="1183"/>
      <point x="1452" y="1079"/>
      <point x="1452" y="879" type="curve" smooth="yes"/>
      <point x="1452" y="718" type="line"/>
    </contour>
  </outline>
</glyph>
<glyph name="vowelRuu.mlm" format="2">
  <advance width="1670"/>
  <unicode hex="0D60"/>
  <outline>
    <contour>
      <point x="943.876" y="-275" type="line" smooth="yes"/>
      <point x="1277.88" y="-275"/>
      <point x="1450.88" y="-175.017"/>
      <point x="1450.88" y="26" type="curve" smooth="yes"/>
      <point x="1450.88" y="167.752"/>
      <point x="1366.88" y="250.264"/>
      <point x="1204.88" y="282" type="curve"/>
      <point x="1204.88" y="299" type="line"/>
      <point x="958" y="371" type="line"/>
      <point x="712" y="371" type="line"/>
      <point x="466" y="299" type="line"/>
      <point x="466" y="282" type="line"/>
      <point x="304" y="250.264"/>
      <point x="220" y="167.752"/>
      <point x="220" y="26" type="curve" smooth="yes"/>
      <point x="220" y="-175.017"/>
      <point x="393" y="-275"/>
      <point x="727" y="-275" type="curve" smooth="yes"/>
    </contour>
    <contour>
      <point x="938.876" y="235" type="line" smooth="yes"/>
      <point x="1164.19" y="235"/>
      <point x="1277.88" y="176.321"/>
      <point x="1277.88" y="41" type="curve" smooth="yes"/>
      <point x="1277.88" y="-82.3333"/>
      <point x="1165.35" y="-139"/>
      <point x="939" y="-139" type="curve" smooth="yes"/>
      <point x="732" y="-139" type="line" smooth="yes"/>
      <point x="505.655" y="-139"/>
      <point x="393" y="-82.3333"/>
      <point x="393" y="41" type="curve" smooth="yes"/>
      <point x="393" y="176.321"/>
      <point x="506.689" y="235"/>
      <point x="732" y="235" type="curve" smooth="yes"/>
    </contour>
    <contour>
      <point x="687" y="158" type="curve" smooth="yes"/>
      <point x="564.52" y="158"/>
      <point x="498" y="96"/>
      <point x="498" y="-12" type="curve" smooth="yes"/>
      <point x="498" y="-37" type="line"/>
      <point x="617" y="-44" type="line"/>
      <point x="617" y="-19" type="line" smooth="yes"/>
      <point x="617" y="31.8696"/>
      <point x="644.586" y="59"/>
      <point x="697" y="59" type="curve" smooth="yes"/>
      <point x="750.647" y="59"/>
      <point x="775.432" y="33.0481"/>
      <point x="777" y="-14" type="curve" smooth="yes"/>
      <point x="778" y="-44" type="line"/>
      <point x="893" y="-44" type="line"/>
      <point x="894" y="-14" type="line" smooth="yes"/>
      <point x="895.54" y="32.207"/>
      <point x="920.353" y="59"/>
      <point x="974" y="59" type="curve" smooth="yes"/>
      <point x="1027.39" y="59"/>
      <point x="1055" y="31.8696"/>
      <point x="1055" y="-19" type="curve" smooth="yes"/>
      <point x="1055" y="-44" type="line"/>
      <point x="1174" y="-37" type="line"/>
      <point x="1174" y="-12" type="line" smooth="yes"/>
      <point x="1174" y="96"/>
      <point x="1108.54" y="158"/>
      <point x="985" y="158" type="curve" smooth="yes"/>
      <point x="898" y="158"/>
      <point x="850" y="122.776"/>
      <point x="838" y="70" type="curve"/>
      <point x="835" y="70" type="line"/>
      <point x="824" y="122.776"/>
      <point x="775" y="158"/>
    </contour>
    <contour>
      <point x="1406.88" y="699" type="line"/>
      <point x="1406.88" y="483.389"/>
      <point x="1238.57" y="371"/>
      <point x="897.876" y="371" type="curve"/>
      <point x="1128.88" y="260" type="line"/>
      <point x="1154.88" y="267.269"/>
      <point x="1178.76" y="282.449"/>
      <point x="1204.88" y="287" type="curve" smooth="yes"/>
      <point x="1438.76" y="327.75"/>
      <point x="1574.88" y="470.639"/>
      <point x="1574.88" y="731" type="curve" smooth="yes"/>
      <point x="1574.88" y="827" type="line" smooth="yes"/>
      <point x="1574.88" y="1059.21"/>
      <point x="1463.88" y="1189"/>
      <point x="1234.88" y="1189" type="curve" smooth="yes"/>
      <point x="1019.88" y="1189"/>
      <point x="911.876" y="1076.91"/>
      <point x="911.876" y="867" type="curve" smooth="yes"/>
      <point x="911.876" y="832" type="line" smooth="yes"/>
      <point x="911.876" y="651.793"/>
      <point x="1003.88" y="551"/>
      <point x="1170.88" y="551" type="curve" smooth="yes"/>
      <point x="1300.88" y="551"/>
      <point x="1385.88" y="625"/>
      <point x="1410.88" y="736" type="curve"/>
      <point x="1401.88" y="793" type="line"/>
      <point x="1371.52" y="724.633"/>
      <point x="1312.84" y="685"/>
      <point x="1229.88" y="685" type="curve" smooth="yes"/>
      <point x="1137.07" y="685"/>
      <point x="1086.88" y="738.942"/>
      <point x="1086.88" y="838" type="curve" smooth="yes"/>
      <point x="1086.88" y="866" type="line" smooth="yes"/>
      <point x="1086.88" y="981.337"/>
      <point x="1140.81" y="1038"/>
      <point x="1238.88" y="1038" type="curve" smooth="yes"/>
      <point x="1345.88" y="1038"/>
      <point x="1399.88" y="970.646"/>
      <point x="1399.88" y="848" type="curve" smooth="yes"/>
      <point x="1399.88" y="764" type="line"/>
      <point x="1394.88" y="701" type="line"/>
      <point x="1406.88" y="701" type="line"/>
    </contour>
    <contour>
      <point x="773" y="371" type="line"/>
      <point x="432.305" y="371"/>
      <point x="263.506" y="483.435"/>
      <point x="264.084" y="699.017" type="curve"/>
      <point x="264" y="701" type="line"/>
      <point x="276" y="701" type="line"/>
      <point x="271" y="764" type="line"/>
      <point x="271" y="848" type="line" smooth="yes"/>
      <point x="271" y="970.646"/>
      <point x="324.994" y="1038"/>
      <point x="432" y="1038" type="curve" smooth="yes"/>
      <point x="530.065" y="1038"/>
      <point x="584" y="981.337"/>
      <point x="584" y="866" type="curve" smooth="yes"/>
      <point x="584" y="838" type="line" smooth="yes"/>
      <point x="584" y="738.942"/>
      <point x="533.808" y="685"/>
      <point x="441" y="685" type="curve" smooth="yes"/>
      <point x="358.035" y="685"/>
      <point x="299.353" y="724.633"/>
      <point x="269" y="793" type="curve"/>
      <point x="260" y="736" type="line"/>
      <point x="285" y="625"/>
      <point x="370" y="551"/>
      <point x="500" y="551" type="curve" smooth="yes"/>
      <point x="667" y="551"/>
      <point x="759" y="651.793"/>
      <point x="759" y="832" type="curve" smooth="yes"/>
      <point x="759" y="867" type="line" smooth="yes"/>
      <point x="759" y="1076.91"/>
      <point x="651" y="1189"/>
      <point x="436" y="1189" type="curve" smooth="yes"/>
      <point x="207" y="1189"/>
      <point x="96" y="1059.21"/>
      <point x="96" y="827" type="curve" smooth="yes"/>
      <point x="96" y="731" type="line" smooth="yes"/>
      <point x="96" y="470.639"/>
      <point x="232.117" y="327.75"/>
      <point x="466" y="287" type="curve" smooth="yes"/>
      <point x="492.12" y="282.449"/>
      <point x="516" y="267.269"/>
      <point x="542" y="260" type="curve"/>
    </contour>
  </outline>
</glyph>
<glyph name="vowelLruu.mlm" format="2">
  <advance width="2745"/>
  <unicode hex="0D61"/>
  <outline>
    <contour>
      <point x="2147" y="704" type="line"/>
      <point x="2357" y="686.547"/>
      <point x="2461" y="554.107"/>
      <point x="2461" y="319" type="curve" smooth="yes"/>
      <point x="2461" y="257" type="line" smooth="yes"/>
      <point x="2461" y="-43.6667"/>
      <point x="2313" y="-194"/>
      <point x="1990" y="-194" type="curve" smooth="yes"/>
      <point x="1845" y="-194"/>
      <point x="1724" y="-175"/>
      <point x="1608" y="-133" type="curve"/>
      <point x="1643" y="-296" type="line"/>
      <point x="1751" y="-333"/>
      <point x="1872" y="-350"/>
      <point x="2003" y="-350" type="curve" smooth="yes"/>
      <point x="2434" y="-350"/>
      <point x="2644" y="-149.661"/>
      <point x="2644" y="250" type="curve" smooth="yes"/>
      <point x="2644" y="315" type="line" smooth="yes"/>
      <point x="2644" y="644.06"/>
      <point x="2475" y="837.625"/>
      <point x="2143" y="858" type="curve"/>
    </contour>
    <contour>
      <point x="1650" y="1025" type="curve" smooth="yes"/>
      <point x="1834" y="1025"/>
      <point x="1956" y="953.223"/>
      <point x="2010" y="823" type="curve"/>
      <point x="2022" y="754" type="line"/>
      <point x="2031" y="705.831"/>
      <point x="2037" y="659.803"/>
      <point x="2037" y="602" type="curve" smooth="yes"/>
      <point x="2037" y="411" type="line" smooth="yes"/>
      <point x="2037" y="249.55"/>
      <point x="1979" y="177"/>
      <point x="1865" y="177" type="curve" smooth="yes"/>
      <point x="1752" y="177"/>
      <point x="1693" y="246.717"/>
      <point x="1693" y="380" type="curve" smooth="yes"/>
      <point x="1693" y="418" type="line" smooth="yes"/>
      <point x="1693" y="607.24"/>
      <point x="1794" y="710"/>
      <point x="2006" y="710" type="curve" smooth="yes"/>
      <point x="2039" y="710"/>
      <point x="2070" y="710"/>
      <point x="2102" y="707" type="curve"/>
      <point x="2107" y="855" type="line"/>
      <point x="2079" y="859"/>
      <point x="2030" y="863"/>
      <point x="1988" y="863" type="curve" smooth="yes"/>
      <point x="1681" y="863"/>
      <point x="1510" y="707.27"/>
      <point x="1510" y="413" type="curve" smooth="yes"/>
      <point x="1510" y="377" type="line" smooth="yes"/>
      <point x="1510" y="143.724"/>
      <point x="1633" y="21"/>
      <point x="1863" y="21" type="curve" smooth="yes"/>
      <point x="2100" y="21"/>
      <point x="2219" y="154.692"/>
      <point x="2219" y="416" type="curve" smooth="yes"/>
      <point x="2219" y="599" type="line" smooth="yes"/>
      <point x="2219" y="655.706"/>
      <point x="2211.69" y="703.634"/>
      <point x="2204" y="752" type="curve" smooth="yes"/>
      <point x="2197" y="796" type="line"/>
      <point x="2143" y="1047.2"/>
      <point x="1966" y="1188"/>
      <point x="1658" y="1188" type="curve" smooth="yes"/>
      <point x="1379" y="1188"/>
      <point x="1216" y="1086"/>
      <point x="1174" y="898" type="curve"/>
      <point x="1141" y="898" type="line"/>
      <point x="1148" y="577" type="line"/>
      <point x="1265" y="561" type="line"/>
      <point x="1265" y="683" type="line" smooth="yes"/>
      <point x="1265" y="909"/>
      <point x="1396" y="1025"/>
    </contour>
    <contour>
      <point x="687" y="1189" type="curve" smooth="yes"/>
      <point x="304" y="1189"/>
      <point x="112" y="980"/>
      <point x="112" y="581" type="curve" smooth="yes"/>
      <point x="112" y="376" type="line" smooth="yes"/>
      <point x="112" y="107"/>
      <point x="237" y="-27"/>
      <point x="478" y="-27" type="curve" smooth="yes"/>
      <point x="712" y="-27"/>
      <point x="833" y="95"/>
      <point x="833" y="329" type="curve" smooth="yes"/>
      <point x="833" y="436" type="line" smooth="yes"/>
      <point x="833" y="655"/>
      <point x="736" y="763"/>
      <point x="562" y="763" type="curve" smooth="yes"/>
      <point x="406" y="763"/>
      <point x="311" y="685"/>
      <point x="283" y="542" type="curve"/>
      <point x="291" y="480" type="line"/>
      <point x="326.18" y="564.491"/>
      <point x="391.513" y="607"/>
      <point x="484" y="607" type="curve" smooth="yes"/>
      <point x="593" y="607"/>
      <point x="650" y="543"/>
      <point x="650" y="419" type="curve" smooth="yes"/>
      <point x="650" y="330" type="line" smooth="yes"/>
      <point x="650" y="195"/>
      <point x="591" y="129"/>
      <point x="478" y="129" type="curve" smooth="yes"/>
      <point x="356" y="129"/>
      <point x="295" y="200"/>
      <point x="295" y="363" type="curve" smooth="yes"/>
      <point x="295" y="513" type="line"/>
      <point x="309" y="589" type="line"/>
      <point x="289" y="589" type="line"/>
      <point x="289" y="591" type="line"/>
      <point x="289" y="882"/>
      <point x="426" y="1026"/>
      <point x="693" y="1026" type="curve" smooth="yes"/>
      <point x="949" y="1026"/>
      <point x="1078" y="911"/>
      <point x="1078" y="689" type="curve" smooth="yes"/>
      <point x="1078" y="579" type="line"/>
      <point x="1167" y="579" type="line"/>
      <point x="1169" y="899" type="line"/>
      <point x="1127" y="1087"/>
      <point x="963" y="1189"/>
    </contour>
    <contour>
      <point x="1078" y="5" type="line"/>
      <point x="1265" y="5" type="line"/>
      <point x="1265" y="669" type="line"/>
      <point x="1078" y="652" type="line"/>
    </contour>
  </outline>
</glyph>
<glyph name="uni0D63" format="2">
  <unicode hex="0D63"/>
  <outline>
    <contour>
      <point x="-141" y="-99" type="curve"/>
      <point x="-146.5" y="-210" type="line"/>
      <point x="-37.6479" y="-225"/>
      <point x="21.5" y="-272"/>
      <point x="21.5" y="-377.5" type="curve" smooth="yes"/>
      <point x="21.5" y="-386" type="line" smooth="yes"/>
      <point x="21.5" y="-513.172"/>
      <point x="-73.1785" y="-577.5"/>
      <point x="-273" y="-577.5" type="curve" smooth="yes"/>
      <point x="-368.5" y="-577.5"/>
      <point x="-447" y="-568"/>
      <point x="-524.5" y="-546" type="curve"/>
      <point x="-498.5" y="-658" type="line"/>
      <point x="-427" y="-678"/>
      <point x="-349" y="-688.5"/>
      <point x="-262" y="-688.5" type="curve" smooth="yes"/>
      <point x="23.5" y="-688.5"/>
      <point x="166.5" y="-587"/>
      <point x="166.5" y="-392" type="curve" smooth="yes"/>
      <point x="166.5" y="-380.5" type="line" smooth="yes"/>
      <point x="166.5" y="-207"/>
      <point x="51" y="-117"/>
    </contour>
    <contour>
      <point x="-478.85" y="-32" type="curve" smooth="yes"/>
      <point x="-361.85" y="-32"/>
      <point x="-290.5" y="-59.4578"/>
      <point x="-253" y="-118" type="curve"/>
      <point x="-244" y="-162.5" type="line"/>
      <point x="-238.5" y="-186.641"/>
      <point x="-235.5" y="-209.888"/>
      <point x="-235.5" y="-238.5" type="curve" smooth="yes"/>
      <point x="-235.5" y="-250" type="line" smooth="yes"/>
      <point x="-235.5" y="-329.741"/>
      <point x="-271.812" y="-369.5"/>
      <point x="-352" y="-369.5" type="curve" smooth="yes"/>
      <point x="-419.355" y="-369.5"/>
      <point x="-456.5" y="-341"/>
      <point x="-456.5" y="-291.5" type="curve" smooth="yes"/>
      <point x="-456.5" y="-285.5" type="line" smooth="yes"/>
      <point x="-456.5" y="-226.783"/>
      <point x="-408" y="-196.452"/>
      <point x="-311" y="-196" type="curve" smooth="yes"/>
      <point x="-273.5" y="-195.825"/>
      <point x="-230" y="-197.5"/>
      <point x="-194" y="-201.5" type="curve"/>
      <point x="-203" y="-100" type="line"/>
      <point x="-236.5" y="-94.5"/>
      <point x="-278" y="-91.5"/>
      <point x="-322.5" y="-91.5" type="curve" smooth="yes"/>
      <point x="-501.5" y="-92"/>
      <point x="-599.5" y="-158.5"/>
      <point x="-599.5" y="-288.5" type="curve" smooth="yes"/>
      <point x="-599.5" y="-296" type="line" smooth="yes"/>
      <point x="-599.5" y="-415"/>
      <point x="-513.347" y="-480"/>
      <point x="-351.5" y="-480" type="curve" smooth="yes"/>
      <point x="-181.333" y="-480"/>
      <point x="-96.5" y="-405.786"/>
      <point x="-96.5" y="-251.5" type="curve" smooth="yes"/>
      <point x="-96.5" y="-240.5" type="line" smooth="yes"/>
      <point x="-96.5" y="-215.128"/>
      <point x="-100.272" y="-190.196"/>
      <point x="-107.5" y="-167.5" type="curve"/>
      <point x="-112" y="-129.5" type="line"/>
      <point x="-149.5" y="4"/>
      <point x="-272.35" y="81"/>
      <point x="-476.85" y="81" type="curve" smooth="yes"/>
      <point x="-659.998" y="81"/>
      <point x="-777.363" y="27.5584"/>
      <point x="-817.85" y="-83" type="curve"/>
      <point x="-861.659" y="-82.9041" type="line"/>
      <point x="-831.85" y="-228" type="line"/>
      <point x="-746.85" y="-276" type="line"/>
      <point x="-746.85" y="-231" type="line" smooth="yes"/>
      <point x="-746.85" y="-99.0102"/>
      <point x="-656.85" y="-32"/>
    </contour>
    <contour>
      <point x="-892.936" y="-515" type="line"/>
      <point x="-746.936" y="-515" type="line"/>
      <point x="-746.936" y="-202" type="line"/>
      <point x="-892.936" y="-214" type="line"/>
    </contour>
    <contour>
      <point x="-1162.94" y="81" type="curve" smooth="yes"/>
      <point x="-1428.94" y="81"/>
      <point x="-1566.94" y="-28.3234"/>
      <point x="-1566.94" y="-257" type="curve" smooth="yes"/>
      <point x="-1566.94" y="-279" type="line" smooth="yes"/>
      <point x="-1566.94" y="-448.333"/>
      <point x="-1478.94" y="-533"/>
      <point x="-1302.94" y="-533" type="curve" smooth="yes"/>
      <point x="-1137.25" y="-533"/>
      <point x="-1049.94" y="-465.665"/>
      <point x="-1049.94" y="-332" type="curve" smooth="yes"/>
      <point x="-1049.94" y="-322" type="line" smooth="yes"/>
      <point x="-1049.94" y="-198.349"/>
      <point x="-1123.2" y="-132"/>
      <point x="-1248.94" y="-132" type="curve" smooth="yes"/>
      <point x="-1342.4" y="-132"/>
      <point x="-1406.34" y="-178.089"/>
      <point x="-1430.94" y="-259" type="curve"/>
      <point x="-1424.94" y="-302" type="line"/>
      <point x="-1403.45" y="-264.138"/>
      <point x="-1358.52" y="-241"/>
      <point x="-1298.94" y="-241" type="curve" smooth="yes"/>
      <point x="-1229.26" y="-241"/>
      <point x="-1193.94" y="-270.659"/>
      <point x="-1193.94" y="-328" type="curve" smooth="yes"/>
      <point x="-1193.94" y="-335" type="line" smooth="yes"/>
      <point x="-1193.94" y="-393.33"/>
      <point x="-1233.22" y="-422"/>
      <point x="-1303.94" y="-422" type="curve" smooth="yes"/>
      <point x="-1384.9" y="-422"/>
      <point x="-1422.94" y="-384.243"/>
      <point x="-1422.94" y="-290" type="curve" smooth="yes"/>
      <point x="-1422.94" y="-271" type="line"/>
      <point x="-1410.94" y="-240" type="line"/>
      <point x="-1428.94" y="-240" type="line"/>
      <point x="-1428.94" y="-107.413"/>
      <point x="-1333.58" y="-35"/>
      <point x="-1160.94" y="-35" type="curve" smooth="yes"/>
      <point x="-982.937" y="-35"/>
      <point x="-892.937" y="-101"/>
      <point x="-892.937" y="-231" type="curve" smooth="yes"/>
      <point x="-892.937" y="-276" type="line"/>
      <point x="-807.937" y="-228" type="line"/>
      <point x="-821.937" y="-83" type="line"/>
      <point x="-862.423" y="27.5584"/>
      <point x="-979.788" y="81"/>
    </contour>
  </outline>
</glyph>
<glyph name="one.mlm" format="2">
  <advance width="1472"/>
  <unicode hex="0D67"/>
  <outline>
    <contour>
      <point x="607" y="150" type="line"/>
      <point x="550" y="0" type="line"/>
      <point x="1336" y="0" type="line"/>
      <point x="1336" y="748" type="line" smooth="yes"/>
      <point x="1336" y="1044.39"/>
      <point x="1198" y="1190"/>
      <point x="919" y="1190" type="curve" smooth="yes"/>
      <point x="641" y="1190"/>
      <point x="500" y="1043.36"/>
      <point x="500" y="748" type="curve" smooth="yes"/>
      <point x="500" y="0" type="line"/>
      <point x="687" y="0" type="line"/>
      <point x="687" y="749" type="line" smooth="yes"/>
      <point x="687" y="934.441"/>
      <point x="762" y="1024"/>
      <point x="918" y="1024" type="curve" smooth="yes"/>
      <point x="1074" y="1024"/>
      <point x="1149" y="934.441"/>
      <point x="1149" y="749" type="curve" smooth="yes"/>
      <point x="1149" y="150" type="line"/>
    </contour>
    <contour>
      <point x="570" y="148" type="line"/>
      <point x="280" y="148" type="line" smooth="yes"/>
      <point x="84" y="148"/>
      <point x="-16" y="60"/>
      <point x="-16" y="-109" type="curve" smooth="yes"/>
      <point x="-16" y="-277"/>
      <point x="84" y="-366"/>
      <point x="280" y="-366" type="curve" smooth="yes"/>
      <point x="574" y="-366" type="line"/>
      <point x="598" y="-218" type="line"/>
      <point x="297" y="-218" type="line" smooth="yes"/>
      <point x="213" y="-218"/>
      <point x="169" y="-182"/>
      <point x="169" y="-109" type="curve" smooth="yes"/>
      <point x="169" y="-37"/>
      <point x="213" y="0"/>
      <point x="297" y="0" type="curve" smooth="yes"/>
      <point x="595" y="0" type="line"/>
    </contour>
  </outline>
</glyph>
<glyph name="three.mlm" format="2">
  <advance width="2044"/>
  <unicode hex="0D69"/>
  <outline>
    <contour>
      <point x="784" y="669" type="line"/>
      <point x="784" y="5" type="line"/>
      <point x="971" y="5" type="line"/>
      <point x="971" y="669" type="line"/>
    </contour>
    <contour>
      <point x="116" y="703" type="curve" smooth="yes"/>
      <point x="116" y="481" type="line" smooth="yes"/>
      <point x="116" y="281.86"/>
      <point x="159.282" y="113.357"/>
      <point x="242" y="0" type="curve"/>
      <point x="439" y="0" type="line"/>
      <point x="361.143" y="121.532"/>
      <point x="304" y="283.915"/>
      <point x="304" y="480" type="curve" smooth="yes"/>
      <point x="304" y="703" type="line" smooth="yes"/>
      <point x="304" y="914.699"/>
      <point x="385" y="1019"/>
      <point x="553" y="1019" type="curve" smooth="yes"/>
      <point x="709" y="1019"/>
      <point x="784" y="928"/>
      <point x="784" y="746" type="curve" smooth="yes"/>
      <point x="784" y="545" type="line"/>
      <point x="879" y="545" type="line"/>
      <point x="875" y="928" type="line"/>
      <point x="848" y="1093"/>
      <point x="736" y="1189"/>
      <point x="528" y="1189" type="curve" smooth="yes"/>
      <point x="252" y="1189"/>
      <point x="116" y="1026.66"/>
    </contour>
    <contour>
      <point x="1639" y="713" type="line" smooth="yes"/>
      <point x="1639" y="1030.67"/>
      <point x="1506" y="1189"/>
      <point x="1228" y="1189" type="curve" smooth="yes"/>
      <point x="1021" y="1189"/>
      <point x="907" y="1093"/>
      <point x="880" y="928" type="curve"/>
      <point x="830" y="928" type="line"/>
      <point x="826" y="564" type="line"/>
      <point x="971" y="542" type="line"/>
      <point x="971" y="745" type="line" smooth="yes"/>
      <point x="971" y="928"/>
      <point x="1047" y="1019"/>
      <point x="1202" y="1019" type="curve" smooth="yes"/>
      <point x="1371" y="1019"/>
      <point x="1451" y="914.699"/>
      <point x="1451" y="703" type="curve" smooth="yes"/>
      <point x="1451" y="482" type="line" smooth="yes"/>
      <point x="1451" y="290.944"/>
      <point x="1397.79" y="131.56"/>
      <point x="1322" y="11" type="curve"/>
      <point x="1322" y="0" type="line"/>
      <point x="1485" y="0" type="line"/>
      <point x="1595.96" y="121.505"/>
      <point x="1639" y="279.768"/>
      <point x="1639" y="485" type="curve" smooth="yes"/>
    </contour>
    <contour>
      <point x="1482" y="148" type="line"/>
      <point x="1323" y="0" type="line"/>
      <point x="1997" y="0" type="line"/>
      <point x="2021" y="148" type="line"/>
    </contour>
  </outline>
</glyph>
<glyph name="seven.mlm" format="2">
  <advance width="1453"/>
  <unicode hex="0D6D"/>
  <outline>
    <contour>
      <point x="283" y="542" type="curve"/>
      <point x="291" y="480" type="line"/>
      <point x="326.544" y="564.491"/>
      <point x="392.555" y="607"/>
      <point x="486" y="607" type="curve" smooth="yes"/>
      <point x="596" y="607"/>
      <point x="654" y="542.297"/>
      <point x="654" y="417" type="curve" smooth="yes"/>
      <point x="654" y="332" type="line" smooth="yes"/>
      <point x="654" y="195.641"/>
      <point x="594" y="129"/>
      <point x="480" y="129" type="curve" smooth="yes"/>
      <point x="357" y="129"/>
      <point x="295" y="199.493"/>
      <point x="295" y="365" type="curve" smooth="yes"/>
      <point x="295" y="513" type="line"/>
      <point x="306" y="589" type="line"/>
      <point x="289" y="589" type="line"/>
      <point x="289" y="591" type="line"/>
      <point x="289" y="882"/>
      <point x="433" y="1029"/>
      <point x="714" y="1029" type="curve" smooth="yes"/>
      <point x="1004" y="1029"/>
      <point x="1151" y="871.681"/>
      <point x="1151" y="555" type="curve" smooth="yes"/>
      <point x="1151" y="321" type="line" smooth="yes"/>
      <point x="1151" y="-24.634"/>
      <point x="996" y="-200"/>
      <point x="679" y="-200" type="curve" smooth="yes"/>
      <point x="576" y="-200"/>
      <point x="487" y="-188"/>
      <point x="415" y="-166" type="curve"/>
      <point x="454" y="-325" type="line"/>
      <point x="532" y="-348"/>
      <point x="618" y="-356"/>
      <point x="710" y="-356" type="curve" smooth="yes"/>
      <point x="1131" y="-356"/>
      <point x="1339" y="-118.518"/>
      <point x="1339" y="326" type="curve" smooth="yes"/>
      <point x="1339" y="557" type="line" smooth="yes"/>
      <point x="1339" y="974.576"/>
      <point x="1132" y="1192"/>
      <point x="718" y="1192" type="curve" smooth="yes"/>
      <point x="314" y="1192"/>
      <point x="112" y="981.556"/>
      <point x="112" y="581" type="curve" smooth="yes"/>
      <point x="112" y="378" type="line" smooth="yes"/>
      <point x="112" y="107.663"/>
      <point x="238" y="-27"/>
      <point x="480" y="-27" type="curve" smooth="yes"/>
      <point x="716" y="-27"/>
      <point x="837" y="95.7139"/>
      <point x="837" y="331" type="curve" smooth="yes"/>
      <point x="837" y="434" type="line" smooth="yes"/>
      <point x="837" y="655.364"/>
      <point x="739" y="763"/>
      <point x="562" y="763" type="curve" smooth="yes"/>
      <point x="406" y="763"/>
      <point x="311" y="685"/>
    </contour>
  </outline>
</glyph>
<glyph name="nine.mlm" format="2">
  <advance width="2068"/>
  <unicode hex="0D6F"/>
  <outline>
    <contour>
      <point x="793" y="653" type="line"/>
      <point x="793" y="5" type="line"/>
      <point x="980" y="5" type="line"/>
      <point x="980" y="679" type="line"/>
    </contour>
    <contour>
      <point x="557" y="1019" type="curve" smooth="yes"/>
      <point x="716" y="1019"/>
      <point x="793" y="928"/>
      <point x="793" y="746" type="curve" smooth="yes"/>
      <point x="793" y="542" type="line"/>
      <point x="889" y="545" type="line"/>
      <point x="891" y="917" type="line"/>
      <point x="866" y="1096"/>
      <point x="744" y="1189"/>
      <point x="532" y="1189" type="curve" smooth="yes"/>
      <point x="254" y="1189"/>
      <point x="116" y="1026.66"/>
      <point x="116" y="703" type="curve" smooth="yes"/>
      <point x="116" y="481" type="line" smooth="yes"/>
      <point x="116" y="281.86"/>
      <point x="159.244" y="113.357"/>
      <point x="242" y="0" type="curve"/>
      <point x="438" y="0" type="line"/>
      <point x="360.165" y="121.532"/>
      <point x="304" y="283.915"/>
      <point x="304" y="480" type="curve" smooth="yes"/>
      <point x="304" y="703" type="line" smooth="yes"/>
      <point x="304" y="914.699"/>
      <point x="386" y="1019"/>
    </contour>
    <contour>
      <point x="1354" y="1029" type="curve" smooth="yes"/>
      <point x="1450" y="1029"/>
      <point x="1531" y="1007.62"/>
      <point x="1593" y="967" type="curve"/>
      <point x="1646" y="928" type="line"/>
      <point x="1727" y="852.724"/>
      <point x="1770" y="736.759"/>
      <point x="1770" y="574" type="curve" smooth="yes"/>
      <point x="1770" y="365" type="line" smooth="yes"/>
      <point x="1770" y="209.681"/>
      <point x="1717" y="131"/>
      <point x="1601" y="131" type="curve" smooth="yes"/>
      <point x="1490" y="131"/>
      <point x="1432" y="206.689"/>
      <point x="1432" y="355" type="curve" smooth="yes"/>
      <point x="1432" y="473" type="line" smooth="yes"/>
      <point x="1432" y="696.413"/>
      <point x="1525" y="810.646"/>
      <point x="1709" y="936" type="curve"/>
      <point x="1768" y="990" type="line"/>
      <point x="1873" y="1067.75"/>
      <point x="1937" y="1166.69"/>
      <point x="1937" y="1303" type="curve" smooth="yes"/>
      <point x="1937" y="1390.96"/>
      <point x="1916" y="1462.56"/>
      <point x="1876" y="1527" type="curve"/>
      <point x="1706" y="1527" type="line"/>
      <point x="1749" y="1454.36"/>
      <point x="1766" y="1385.81"/>
      <point x="1766" y="1306" type="curve" smooth="yes"/>
      <point x="1766" y="1211.79"/>
      <point x="1724" y="1135.82"/>
      <point x="1636" y="1072" type="curve"/>
      <point x="1587" y="1024" type="line"/>
      <point x="1380" y="896.846"/>
      <point x="1246" y="762.628"/>
      <point x="1246" y="473" type="curve" smooth="yes"/>
      <point x="1246" y="356" type="line" smooth="yes"/>
      <point x="1246" y="106.746"/>
      <point x="1367" y="-27"/>
      <point x="1599" y="-27" type="curve" smooth="yes"/>
      <point x="1839" y="-27"/>
      <point x="1957" y="109.735"/>
      <point x="1957" y="367" type="curve" smooth="yes"/>
      <point x="1957" y="579" type="line" smooth="yes"/>
      <point x="1957" y="792.74"/>
      <point x="1890" y="944.688"/>
      <point x="1772" y="1047" type="curve"/>
      <point x="1714" y="1087" type="line"/>
      <point x="1619.95" y="1151.03"/>
      <point x="1502" y="1189"/>
      <point x="1359" y="1189" type="curve" smooth="yes"/>
      <point x="1099" y="1189"/>
      <point x="941" y="1091"/>
      <point x="896" y="917" type="curve"/>
      <point x="860" y="917" type="line"/>
      <point x="865" y="576" type="line"/>
      <point x="980" y="576" type="line"/>
      <point x="980" y="696" type="line" smooth="yes"/>
      <point x="980" y="916"/>
      <point x="1106" y="1029"/>
    </contour>
  </outline>
</glyph>
<glyph name="ten.mlm" format="2">
  <advance width="1801"/>
  <unicode hex="0D70"/>
  <outline>
    <contour>
      <point x="656" y="-28" type="curve" smooth="yes"/>
      <point x="823" y="-28"/>
      <point x="917" y="67"/>
      <point x="938" y="225" type="curve"/>
      <point x="988" y="225" type="line"/>
      <point x="992" y="589" type="line"/>
      <point x="847" y="610" type="line"/>
      <point x="847" y="407" type="line" smooth="yes"/>
      <point x="847" y="231"/>
      <point x="776" y="143"/>
      <point x="631" y="143" type="curve" smooth="yes"/>
      <point x="487" y="143"/>
      <point x="416" y="231"/>
      <point x="416" y="407" type="curve" smooth="yes"/>
      <point x="416" y="610" type="line"/>
      <point x="271" y="589" type="line"/>
      <point x="276" y="139" type="line"/>
      <point x="397" y="139" type="line"/>
      <point x="427" y="33"/>
      <point x="513" y="-28"/>
    </contour>
    <contour>
      <point x="1034" y="485" type="line"/>
      <point x="1034" y="1146" type="line"/>
      <point x="847" y="1146" type="line"/>
      <point x="847" y="482" type="line"/>
    </contour>
    <contour>
      <point x="229" y="86" type="line" smooth="yes"/>
      <point x="229" y="-87"/>
      <point x="154" y="-162"/>
      <point x="3" y="-162" type="curve" smooth="yes"/>
      <point x="-64" y="-162"/>
      <point x="-127" y="-154"/>
      <point x="-179" y="-136" type="curve"/>
      <point x="-141" y="-288" type="line"/>
      <point x="-90" y="-306"/>
      <point x="-33" y="-314"/>
      <point x="25" y="-314" type="curve" smooth="yes"/>
      <point x="266" y="-314"/>
      <point x="391" y="-185"/>
      <point x="391" y="73" type="curve" smooth="yes"/>
      <point x="391" y="194" type="line"/>
      <point x="416" y="229" type="line"/>
      <point x="416" y="1156" type="line"/>
      <point x="229" y="1156" type="line"/>
    </contour>
    <contour>
      <point x="943" y="225" type="line"/>
      <point x="969" y="66"/>
      <point x="1083" y="-28"/>
      <point x="1285" y="-28" type="curve" smooth="yes"/>
      <point x="1554" y="-28"/>
      <point x="1685" y="131.333"/>
      <point x="1685" y="450" type="curve" smooth="yes"/>
      <point x="1685" y="669" type="line" smooth="yes"/>
      <point x="1685" y="870.156"/>
      <point x="1634.75" y="1036.59"/>
      <point x="1546" y="1153" type="curve"/>
      <point x="1355" y="1153" type="line"/>
      <point x="1437.84" y="1031.47"/>
      <point x="1497" y="869.098"/>
      <point x="1497" y="672" type="curve" smooth="yes"/>
      <point x="1497" y="452" type="line" smooth="yes"/>
      <point x="1497" y="244.278"/>
      <point x="1421" y="143"/>
      <point x="1258" y="143" type="curve" smooth="yes"/>
      <point x="1107" y="143"/>
      <point x="1034" y="231"/>
      <point x="1034" y="413" type="curve" smooth="yes"/>
      <point x="1034" y="608" type="line"/>
      <point x="940" y="608" type="line"/>
    </contour>
  </outline>
</glyph>
<glyph name="onehundred.mlm" format="2">
  <advance width="1759"/>
  <unicode hex="0D71"/>
  <outline>
    <contour>
      <point x="1199" y="1019" type="curve" smooth="yes"/>
      <point x="1373" y="1019"/>
      <point x="1455" y="901.676"/>
      <point x="1455" y="666" type="curve" smooth="yes"/>
      <point x="1455" y="345" type="line" smooth="yes"/>
      <point x="1455" y="-16.6355"/>
      <point x="1301" y="-200"/>
      <point x="988" y="-200" type="curve" smooth="yes"/>
      <point x="878" y="-200"/>
      <point x="782" y="-188"/>
      <point x="705" y="-166" type="curve"/>
      <point x="743" y="-324" type="line"/>
      <point x="823" y="-348"/>
      <point x="911" y="-356"/>
      <point x="1006" y="-356" type="curve" smooth="yes"/>
      <point x="1430" y="-356"/>
      <point x="1643" y="-111.522"/>
      <point x="1643" y="347" type="curve" smooth="yes"/>
      <point x="1643" y="666" type="line" smooth="yes"/>
      <point x="1643" y="1014.67"/>
      <point x="1508" y="1189"/>
      <point x="1225" y="1189" type="curve" smooth="yes"/>
      <point x="1020" y="1189"/>
      <point x="910" y="1093"/>
      <point x="881" y="929" type="curve"/>
      <point x="860" y="929" type="line"/>
      <point x="867" y="554" type="line"/>
      <point x="971" y="545" type="line"/>
      <point x="971" y="745" type="line" smooth="yes"/>
      <point x="971" y="928"/>
      <point x="1045" y="1019"/>
    </contour>
    <contour>
      <point x="784" y="669" type="line"/>
      <point x="784" y="5" type="line"/>
      <point x="971" y="5" type="line"/>
      <point x="971" y="669" type="line"/>
    </contour>
    <contour>
      <point x="116" y="703" type="curve" smooth="yes"/>
      <point x="116" y="481" type="line" smooth="yes"/>
      <point x="116" y="281.86"/>
      <point x="159.282" y="113.357"/>
      <point x="242" y="0" type="curve"/>
      <point x="439" y="0" type="line"/>
      <point x="361.143" y="121.532"/>
      <point x="304" y="283.915"/>
      <point x="304" y="480" type="curve" smooth="yes"/>
      <point x="304" y="703" type="line" smooth="yes"/>
      <point x="304" y="914.699"/>
      <point x="385" y="1019"/>
      <point x="553" y="1019" type="curve" smooth="yes"/>
      <point x="709" y="1019"/>
      <point x="784" y="928"/>
      <point x="784" y="746" type="curve" smooth="yes"/>
      <point x="784" y="545" type="line"/>
      <point x="879" y="545" type="line"/>
      <point x="875" y="928" type="line"/>
      <point x="848" y="1093"/>
      <point x="736" y="1189"/>
      <point x="528" y="1189" type="curve" smooth="yes"/>
      <point x="252" y="1189"/>
      <point x="116" y="1026.66"/>
    </contour>
  </outline>
</glyph>
<glyph name="onethousand.mlm" format="2">
  <advance width="2751"/>
  <unicode hex="0D72"/>
  <outline>
    <component base="date.mlm"/>
    <contour>
      <point x="2236" y="720" type="line"/>
      <point x="2236" y="874" type="line" smooth="yes"/>
      <point x="2236" y="981"/>
      <point x="2286" y="1031"/>
      <point x="2385" y="1031" type="curve" smooth="yes"/>
      <point x="2477" y="1031"/>
      <point x="2525" y="981"/>
      <point x="2525" y="885" type="curve" smooth="yes"/>
      <point x="2525" y="873" type="line" smooth="yes"/>
      <point x="2525" y="780"/>
      <point x="2476" y="735"/>
      <point x="2378" y="735" type="curve" smooth="yes"/>
      <point x="1845" y="735" type="line"/>
      <point x="1895" y="588" type="line"/>
      <point x="2392" y="588" type="line" smooth="yes"/>
      <point x="2596" y="588"/>
      <point x="2702" y="682"/>
      <point x="2702" y="868" type="curve" smooth="yes"/>
      <point x="2702" y="882" type="line" smooth="yes"/>
      <point x="2702" y="1078"/>
      <point x="2594" y="1183"/>
      <point x="2388" y="1183" type="curve" smooth="yes"/>
      <point x="2177" y="1183"/>
      <point x="2069" y="1079"/>
      <point x="2069" y="879" type="curve" smooth="yes"/>
      <point x="2069" y="718" type="line"/>
    </contour>
  </outline>
</glyph>
<glyph name="onehalf.mlm" format="2">
  <advance width="1798"/>
  <unicode hex="0D74"/>
  <outline>
    <contour>
      <point x="1331" y="-28" type="curve" smooth="yes"/>
      <point x="1569" y="-28"/>
      <point x="1687" y="108.74"/>
      <point x="1687" y="365" type="curve" smooth="yes"/>
      <point x="1687" y="551" type="line" smooth="yes"/>
      <point x="1687" y="851.122"/>
      <point x="1552" y="1048.49"/>
      <point x="1281" y="1137" type="curve"/>
      <point x="1258" y="1145"/>
      <point x="1233" y="1152"/>
      <point x="1207" y="1158" type="curve" smooth="yes"/>
      <point x="1115" y="1180"/>
      <point x="1012" y="1192"/>
      <point x="893" y="1192" type="curve" smooth="yes"/>
      <point x="370" y="1192"/>
      <point x="112" y="978.63"/>
      <point x="112" y="553" type="curve" smooth="yes"/>
      <point x="112" y="373" type="line" smooth="yes"/>
      <point x="112" y="105.658"/>
      <point x="236" y="-27"/>
      <point x="474" y="-27" type="curve" smooth="yes"/>
      <point x="706" y="-27"/>
      <point x="825" y="93.7098"/>
      <point x="825" y="326" type="curve" smooth="yes"/>
      <point x="825" y="432" type="line" smooth="yes"/>
      <point x="825" y="650.359"/>
      <point x="729" y="757"/>
      <point x="556" y="757" type="curve" smooth="yes"/>
      <point x="404" y="757"/>
      <point x="310" y="681"/>
      <point x="283" y="542" type="curve"/>
      <point x="291" y="480" type="line"/>
      <point x="325.451" y="560.499"/>
      <point x="389.43" y="601"/>
      <point x="480" y="601" type="curve" smooth="yes"/>
      <point x="586" y="601"/>
      <point x="642" y="537.287"/>
      <point x="642" y="415" type="curve" smooth="yes"/>
      <point x="642" y="327" type="line" smooth="yes"/>
      <point x="642" y="193.632"/>
      <point x="584" y="129"/>
      <point x="474" y="129" type="curve" smooth="yes"/>
      <point x="355" y="129"/>
      <point x="295" y="198.504"/>
      <point x="295" y="360" type="curve" smooth="yes"/>
      <point x="295" y="513" type="line"/>
      <point x="309" y="589" type="line"/>
      <point x="289" y="589" type="line"/>
      <point x="289" y="590" type="line"/>
      <point x="289" y="872"/>
      <point x="489" y="1030"/>
      <point x="891" y="1030" type="curve" smooth="yes"/>
      <point x="988" y="1030"/>
      <point x="1072" y="1022"/>
      <point x="1145" y="1005" type="curve"/>
      <point x="1165" y="999"/>
      <point x="1221" y="979"/>
      <point x="1231" y="975" type="curve"/>
      <point x="1410" y="910.475"/>
      <point x="1499" y="772.206"/>
      <point x="1499" y="552" type="curve" smooth="yes"/>
      <point x="1499" y="362" type="line" smooth="yes"/>
      <point x="1499" y="207.674"/>
      <point x="1448" y="130"/>
      <point x="1332" y="130" type="curve" smooth="yes"/>
      <point x="1221" y="130"/>
      <point x="1164" y="201.667"/>
      <point x="1164" y="345" type="curve" smooth="yes"/>
      <point x="1164" y="533" type="line" smooth="yes"/>
      <point x="1164" y="733.033"/>
      <point x="1215" y="875.48"/>
      <point x="1291" y="1025" type="curve"/>
      <point x="1296" y="1038"/>
      <point x="1322" y="1096"/>
      <point x="1327" y="1109" type="curve"/>
      <point x="1351" y="1175.02"/>
      <point x="1363" y="1237.98"/>
      <point x="1363" y="1304" type="curve" smooth="yes"/>
      <point x="1363" y="1395.98"/>
      <point x="1343" y="1468.55"/>
      <point x="1302" y="1536" type="curve"/>
      <point x="1129" y="1536" type="line"/>
      <point x="1173" y="1460.39"/>
      <point x="1192" y="1386.83"/>
      <point x="1192" y="1301" type="curve" smooth="yes"/>
      <point x="1192" y="1243.94"/>
      <point x="1182" y="1192.99"/>
      <point x="1162" y="1140" type="curve"/>
      <point x="1158" y="1127"/>
      <point x="1138" y="1080"/>
      <point x="1132" y="1065" type="curve"/>
      <point x="1035" y="908.532"/>
      <point x="978" y="766.197"/>
      <point x="978" y="532" type="curve" smooth="yes"/>
      <point x="978" y="346" type="line" smooth="yes"/>
      <point x="978" y="101.734"/>
      <point x="1098" y="-28"/>
    </contour>
  </outline>
</glyph>
<glyph name="threequarters.mlm" format="2">
  <advance width="2356"/>
  <unicode hex="0D75"/>
  <outline>
    <contour>
      <point x="687" y="1189" type="curve" smooth="yes"/>
      <point x="304" y="1189"/>
      <point x="112" y="980"/>
      <point x="112" y="581" type="curve" smooth="yes"/>
      <point x="112" y="376" type="line" smooth="yes"/>
      <point x="112" y="107"/>
      <point x="237" y="-27"/>
      <point x="478" y="-27" type="curve" smooth="yes"/>
      <point x="712" y="-27"/>
      <point x="833" y="95"/>
      <point x="833" y="329" type="curve" smooth="yes"/>
      <point x="833" y="436" type="line" smooth="yes"/>
      <point x="833" y="655"/>
      <point x="736" y="763"/>
      <point x="562" y="763" type="curve" smooth="yes"/>
      <point x="406" y="763"/>
      <point x="311" y="685"/>
      <point x="283" y="542" type="curve"/>
      <point x="291" y="480" type="line"/>
      <point x="326.18" y="564.491"/>
      <point x="391.513" y="607"/>
      <point x="484" y="607" type="curve" smooth="yes"/>
      <point x="593" y="607"/>
      <point x="650" y="543"/>
      <point x="650" y="419" type="curve" smooth="yes"/>
      <point x="650" y="330" type="line" smooth="yes"/>
      <point x="650" y="195"/>
      <point x="591" y="129"/>
      <point x="478" y="129" type="curve" smooth="yes"/>
      <point x="356" y="129"/>
      <point x="295" y="200"/>
      <point x="295" y="363" type="curve" smooth="yes"/>
      <point x="295" y="513" type="line"/>
      <point x="309" y="589" type="line"/>
      <point x="289" y="589" type="line"/>
      <point x="289" y="591" type="line"/>
      <point x="289" y="882"/>
      <point x="426" y="1026"/>
      <point x="693" y="1026" type="curve" smooth="yes"/>
      <point x="949" y="1026"/>
      <point x="1078" y="911"/>
      <point x="1078" y="689" type="curve" smooth="yes"/>
      <point x="1078" y="579" type="line"/>
      <point x="1167" y="579" type="line"/>
      <point x="1169" y="899" type="line"/>
      <point x="1127" y="1087"/>
      <point x="963" y="1189"/>
    </contour>
    <contour>
      <point x="1078" y="5" type="line"/>
      <point x="1265" y="5" type="line"/>
      <point x="1265" y="669" type="line"/>
      <point x="1078" y="652" type="line"/>
    </contour>
    <contour>
      <point x="1646" y="1032" type="curve" smooth="yes"/>
      <point x="1689" y="1032"/>
      <point x="1727" y="1027"/>
      <point x="1760" y="1019" type="curve"/>
      <point x="1799" y="1006" type="line"/>
      <point x="1973" y="953.806"/>
      <point x="2057" y="803.363"/>
      <point x="2057" y="569" type="curve" smooth="yes"/>
      <point x="2057" y="362" type="line" smooth="yes"/>
      <point x="2057" y="207.674"/>
      <point x="2006" y="130"/>
      <point x="1890" y="130" type="curve" smooth="yes"/>
      <point x="1779" y="130"/>
      <point x="1722" y="201.667"/>
      <point x="1722" y="345" type="curve" smooth="yes"/>
      <point x="1722" y="533" type="line" smooth="yes"/>
      <point x="1722" y="733.033"/>
      <point x="1773" y="875.48"/>
      <point x="1849" y="1025" type="curve"/>
      <point x="1854" y="1039"/>
      <point x="1877" y="1101"/>
      <point x="1882" y="1115" type="curve"/>
      <point x="1906" y="1179.02"/>
      <point x="1918" y="1239.98"/>
      <point x="1918" y="1304" type="curve" smooth="yes"/>
      <point x="1918" y="1395.98"/>
      <point x="1898" y="1468.55"/>
      <point x="1857" y="1536" type="curve"/>
      <point x="1684" y="1536" type="line"/>
      <point x="1728" y="1460.39"/>
      <point x="1747" y="1386.83"/>
      <point x="1747" y="1301" type="curve" smooth="yes"/>
      <point x="1747" y="1243.94"/>
      <point x="1737" y="1192.99"/>
      <point x="1717" y="1140" type="curve"/>
      <point x="1713" y="1127"/>
      <point x="1696" y="1080"/>
      <point x="1690" y="1065" type="curve"/>
      <point x="1593" y="908.532"/>
      <point x="1536" y="766.197"/>
      <point x="1536" y="532" type="curve" smooth="yes"/>
      <point x="1536" y="346" type="line" smooth="yes"/>
      <point x="1536" y="101.734"/>
      <point x="1656" y="-28"/>
      <point x="1889" y="-28" type="curve" smooth="yes"/>
      <point x="2127" y="-28"/>
      <point x="2245" y="108.74"/>
      <point x="2245" y="365" type="curve" smooth="yes"/>
      <point x="2245" y="574" type="line" smooth="yes"/>
      <point x="2245" y="886.275"/>
      <point x="2117" y="1097.85"/>
      <point x="1835" y="1166" type="curve"/>
      <point x="1775" y="1179" type="line"/>
      <point x="1735" y="1186"/>
      <point x="1696" y="1189"/>
      <point x="1650" y="1189" type="curve" smooth="yes"/>
      <point x="1375" y="1189"/>
      <point x="1216" y="1087"/>
      <point x="1174" y="899" type="curve"/>
      <point x="1142" y="899" type="line"/>
      <point x="1149" y="578" type="line"/>
      <point x="1265" y="562" type="line"/>
      <point x="1265" y="684" type="line" smooth="yes"/>
      <point x="1265" y="914"/>
      <point x="1394" y="1032"/>
    </contour>
  </outline>
</glyph>
<glyph name="threesixteenths.mlm" format="2">
  <advance width="4079"/>
  <unicode hex="0D78"/>
  <outline>
    <contour>
      <point x="410" y="459" type="line"/>
      <point x="597" y="462" type="line"/>
      <point x="597" y="1150" type="line"/>
      <point x="410" y="1150" type="line"/>
    </contour>
    <contour>
      <point x="209" y="-28" type="curve" smooth="yes"/>
      <point x="385" y="-28"/>
      <point x="480" y="64"/>
      <point x="501" y="216" type="curve"/>
      <point x="552" y="216" type="line"/>
      <point x="555" y="589" type="line"/>
      <point x="410" y="610" type="line"/>
      <point x="410" y="398" type="line" smooth="yes"/>
      <point x="410" y="223"/>
      <point x="338" y="136"/>
      <point x="189" y="136" type="curve" smooth="yes"/>
      <point x="122" y="136"/>
      <point x="66" y="146"/>
      <point x="19" y="162" type="curve"/>
      <point x="57" y="-5" type="line"/>
      <point x="102" y="-20"/>
      <point x="154" y="-28"/>
    </contour>
    <contour>
      <point x="2558" y="1189" type="curve" smooth="yes"/>
      <point x="2307" y="1189"/>
      <point x="2180" y="1052.68"/>
      <point x="2180" y="778" type="curve" smooth="yes"/>
      <point x="2180" y="648.716"/>
      <point x="2192" y="522.284"/>
      <point x="2192" y="393" type="curve" smooth="yes"/>
      <point x="2192" y="222.306"/>
      <point x="2124" y="138"/>
      <point x="1987" y="138" type="curve" smooth="yes"/>
      <point x="1850" y="138"/>
      <point x="1782" y="222.306"/>
      <point x="1782" y="393" type="curve" smooth="yes"/>
      <point x="1782" y="521.3"/>
      <point x="1794" y="647.7"/>
      <point x="1794" y="776" type="curve" smooth="yes"/>
      <point x="1794" y="1050.65"/>
      <point x="1660" y="1189"/>
      <point x="1395" y="1189" type="curve" smooth="yes"/>
      <point x="1130" y="1189"/>
      <point x="996" y="1050.65"/>
      <point x="996" y="776" type="curve" smooth="yes"/>
      <point x="996" y="647.7"/>
      <point x="1007" y="521.3"/>
      <point x="1007" y="393" type="curve" smooth="yes"/>
      <point x="1007" y="223.292"/>
      <point x="941" y="140"/>
      <point x="805" y="140" type="curve" smooth="yes"/>
      <point x="666" y="140"/>
      <point x="597" y="221"/>
      <point x="597" y="385" type="curve" smooth="yes"/>
      <point x="597" y="590" type="line"/>
      <point x="505" y="542" type="line"/>
      <point x="506" y="216" type="line"/>
      <point x="530" y="62"/>
      <point x="639" y="-28"/>
      <point x="833" y="-28" type="curve" smooth="yes"/>
      <point x="1074" y="-28"/>
      <point x="1194" y="110.358"/>
      <point x="1194" y="384" type="curve" smooth="yes"/>
      <point x="1194" y="512.3"/>
      <point x="1183" y="639.65"/>
      <point x="1183" y="767" type="curve" smooth="yes"/>
      <point x="1183" y="939.748"/>
      <point x="1254" y="1023"/>
      <point x="1396" y="1023" type="curve" smooth="yes"/>
      <point x="1539" y="1023"/>
      <point x="1607" y="939.748"/>
      <point x="1607" y="767" type="curve" smooth="yes"/>
      <point x="1607" y="639.65"/>
      <point x="1595" y="512.3"/>
      <point x="1595" y="384" type="curve" smooth="yes"/>
      <point x="1595" y="111.4"/>
      <point x="1728" y="-29"/>
      <point x="1987" y="-29" type="curve" smooth="yes"/>
      <point x="2247" y="-29"/>
      <point x="2379" y="111.4"/>
      <point x="2379" y="384" type="curve" smooth="yes"/>
      <point x="2379" y="513.267"/>
      <point x="2367" y="640.634"/>
      <point x="2367" y="768" type="curve" smooth="yes"/>
      <point x="2367" y="937.763"/>
      <point x="2439" y="1019"/>
      <point x="2585" y="1019" type="curve" smooth="yes"/>
      <point x="2731" y="1019"/>
      <point x="2802" y="933"/>
      <point x="2802" y="771" type="curve" smooth="yes"/>
      <point x="2802" y="542" type="line"/>
      <point x="2895" y="545" type="line"/>
      <point x="2903" y="902" type="line"/>
      <point x="2881.82" y="1094"/>
      <point x="2758.75" y="1189"/>
    </contour>
    <contour>
      <point x="3384" y="1189" type="curve" smooth="yes"/>
      <point x="3119.67" y="1189"/>
      <point x="2962.66" y="1089"/>
      <point x="2908" y="902" type="curve"/>
      <point x="2890" y="902" type="line"/>
      <point x="2802" y="610" type="line"/>
      <point x="2802" y="0" type="line"/>
      <point x="2983" y="0" type="line"/>
      <point x="2983" y="618" type="line" smooth="yes"/>
      <point x="2983" y="905.955"/>
      <point x="3104" y="1032"/>
      <point x="3373" y="1032" type="curve" smooth="yes"/>
      <point x="3632" y="1032"/>
      <point x="3761" y="902.881"/>
      <point x="3761" y="618" type="curve" smooth="yes"/>
      <point x="3761" y="0" type="line"/>
      <point x="3943" y="0" type="line"/>
      <point x="3943" y="617" type="line" smooth="yes"/>
      <point x="3943" y="995.619"/>
      <point x="3760" y="1189"/>
    </contour>
    <contour>
      <point x="2893" y="145" type="line"/>
      <point x="2821" y="0" type="line"/>
      <point x="3919" y="0" type="line"/>
      <point x="3885" y="145" type="line"/>
    </contour>
    <contour>
      <point x="3511.24" y="652" type="line" smooth="yes"/>
      <point x="3511.24" y="878"/>
      <point x="3397.84" y="1005"/>
      <point x="3190.24" y="1005" type="curve" smooth="yes"/>
      <point x="3151.43" y="1005"/>
      <point x="3104.53" y="1000"/>
      <point x="3059.24" y="980" type="curve"/>
      <point x="3010.24" y="868" type="line"/>
      <point x="3048.49" y="888.6"/>
      <point x="3088.48" y="895"/>
      <point x="3123.24" y="895" type="curve" smooth="yes"/>
      <point x="3259.38" y="895"/>
      <point x="3325.24" y="805.741"/>
      <point x="3325.24" y="654" type="curve" smooth="yes"/>
      <point x="3325.24" y="631" type="line" smooth="yes"/>
      <point x="3325.24" y="422"/>
      <point x="3226.24" y="253"/>
      <point x="3071.24" y="139" type="curve"/>
      <point x="3236.24" y="106" type="line"/>
      <point x="3407.24" y="215"/>
      <point x="3511.24" y="402"/>
      <point x="3511.24" y="628" type="curve" smooth="yes"/>
    </contour>
  </outline>
</glyph>
<glyph name="date.mlm" format="2">
  <advance width="2339"/>
  <unicode hex="0D79"/>
  <outline>
    <contour>
      <point x="793" y="653" type="line"/>
      <point x="793" y="5" type="line"/>
      <point x="980" y="5" type="line"/>
      <point x="980" y="679" type="line"/>
    </contour>
    <contour>
      <point x="557" y="1019" type="curve" smooth="yes"/>
      <point x="716" y="1019"/>
      <point x="793" y="928"/>
      <point x="793" y="746" type="curve" smooth="yes"/>
      <point x="793" y="542" type="line"/>
      <point x="889" y="545" type="line"/>
      <point x="891" y="917" type="line"/>
      <point x="866" y="1096"/>
      <point x="744" y="1189"/>
      <point x="532" y="1189" type="curve" smooth="yes"/>
      <point x="254" y="1189"/>
      <point x="116" y="1026.66"/>
      <point x="116" y="703" type="curve" smooth="yes"/>
      <point x="116" y="481" type="line" smooth="yes"/>
      <point x="116" y="281.86"/>
      <point x="159.244" y="113.357"/>
      <point x="242" y="0" type="curve"/>
      <point x="438" y="0" type="line"/>
      <point x="360.165" y="121.532"/>
      <point x="304" y="283.915"/>
      <point x="304" y="480" type="curve" smooth="yes"/>
      <point x="304" y="703" type="line" smooth="yes"/>
      <point x="304" y="914.699"/>
      <point x="386" y="1019"/>
    </contour>
    <contour>
      <point x="1360" y="1189" type="curve" smooth="yes"/>
      <point x="1100" y="1189"/>
      <point x="941" y="1091"/>
      <point x="896" y="917" type="curve"/>
      <point x="863" y="917" type="line"/>
      <point x="868" y="576" type="line"/>
      <point x="980" y="576" type="line"/>
      <point x="980" y="696" type="line" smooth="yes"/>
      <point x="980" y="914"/>
      <point x="1108" y="1026"/>
      <point x="1355" y="1026" type="curve" smooth="yes"/>
      <point x="1617" y="1026"/>
      <point x="1745" y="880.459"/>
      <point x="1745" y="615" type="curve" smooth="yes"/>
      <point x="1745" y="357" type="line" smooth="yes"/>
      <point x="1745" y="201.268"/>
      <point x="1688" y="129"/>
      <point x="1575" y="129" type="curve" smooth="yes"/>
      <point x="1464" y="129"/>
      <point x="1404" y="196.382"/>
      <point x="1404" y="324" type="curve" smooth="yes"/>
      <point x="1404" y="391" type="line" smooth="yes"/>
      <point x="1404" y="520.281"/>
      <point x="1462" y="588"/>
      <point x="1586" y="588" type="curve" smooth="yes"/>
      <point x="2291" y="588" type="line"/>
      <point x="2314" y="735" type="line"/>
      <point x="1560" y="735" type="line" smooth="yes"/>
      <point x="1336" y="735"/>
      <point x="1221" y="620.298"/>
      <point x="1221" y="398" type="curve" smooth="yes"/>
      <point x="1221" y="323" type="line" smooth="yes"/>
      <point x="1221" y="94.3873"/>
      <point x="1343" y="-27"/>
      <point x="1574" y="-27" type="curve" smooth="yes"/>
      <point x="1808" y="-27"/>
      <point x="1928" y="104.34"/>
      <point x="1928" y="365" type="curve" smooth="yes"/>
      <point x="1928" y="594" type="line" smooth="yes"/>
      <point x="1928" y="987.615"/>
      <point x="1739" y="1189"/>
    </contour>
  </outline>
</glyph>
